<?xml version="1.0" encoding="utf-8"?>
<!-- Generator: Adobe Illustrator 23.0.6, SVG Export Plug-In . SVG Version: 6.00 Build 0)  -->
<svg version="1.1" id="Layer_1" xmlns="http://www.w3.org/2000/svg" xmlns:xlink="http://www.w3.org/1999/xlink" x="0px" y="0px"
	 viewBox="0 0 1000 500" style="enable-background:new 0 0 1000 500;" xml:space="preserve">
<style type="text/css">
	.st0{clip-path:url(#SVGID_2_);}
	.st1{fill:#AEAEAE;fill-opacity:0.5;}
	.st2{fill:#154ED0;fill-opacity:0.5;}
	.st3{fill:#BA7ECF;fill-opacity:0.5;}
	.st4{fill:#ACACAC;fill-opacity:0.5;}
	.st5{fill:#C1BDC8;fill-opacity:0.5;}
	.st6{fill:#D09ACD;fill-opacity:0.5;}
	.st7{fill:#72BDE0;fill-opacity:0.5;}
	.st8{fill:#3099A4;fill-opacity:0.5;}
	.st9{fill:#B768D3;fill-opacity:0.5;}
	.st10{fill:#B32854;fill-opacity:0.5;}
	.st11{fill:#85AAA4;fill-opacity:0.5;}
	.st12{fill:#24605D;fill-opacity:0.5;}
	.st13{fill:#707C86;fill-opacity:0.5;}
	.st14{fill:#BDBDBD;fill-opacity:0.5;}
	.st15{fill-opacity:0.5;}
	.st16{fill:#3D3A54;fill-opacity:0.5;}
	.st17{fill:#828D97;fill-opacity:0.5;}
	.st18{fill:#4AAECA;fill-opacity:0.5;}
	.st19{fill:#4283D5;fill-opacity:0.5;}
	.st20{fill:#DA81D8;fill-opacity:0.5;}
	.st21{fill:#73D3D6;fill-opacity:0.5;}
	.st22{fill:#6139C2;fill-opacity:0.5;}
	.st23{fill:#008AA3;fill-opacity:0.5;}
	.st24{fill:#A47C8E;fill-opacity:0.5;}
	.st25{fill:#F75959;fill-opacity:0.5;}
	.st26{fill:#7890CD;fill-opacity:0.5;}
	.st27{fill:#943DA3;fill-opacity:0.5;}
	.st28{fill:#A9A9A9;fill-opacity:0.5;}
	.st29{fill:#1D812D;fill-opacity:0.5;}
	.st30{fill:#D19ED2;fill-opacity:0.5;}
	.st31{fill:#64D1D1;fill-opacity:0.5;}
	.st32{fill:#ABB9B8;fill-opacity:0.5;}
	.st33{fill:#C52C6F;fill-opacity:0.5;}
	.st34{fill:#CD91F4;fill-opacity:0.5;}
	.st35{fill:#00B4C7;fill-opacity:0.5;}
	.st36{fill:#55F7E7;fill-opacity:0.5;}
	.st37{fill:#596B6A;fill-opacity:0.5;}
	.st38{fill:#4BD9F6;fill-opacity:0.5;}
	.st39{fill:#2AF594;fill-opacity:0.5;}
	.st40{fill:#C9C9C9;fill-opacity:0.5;}
	.st41{fill:#13BEBE;fill-opacity:0.5;}
	.st42{fill:#5DC2B9;fill-opacity:0.5;}
	.st43{fill:#9D9D9D;fill-opacity:0.5;}
	.st44{fill:#743691;fill-opacity:0.5;}
	.st45{fill:#0918B9;fill-opacity:0.5;}
	.st46{fill:#00B4BA;fill-opacity:0.5;}
	.st47{fill:#1D3C3F;fill-opacity:0.5;}
	.st48{fill:#708186;fill-opacity:0.5;}
	.st49{fill:#187599;fill-opacity:0.5;}
	.st50{fill:#707070;fill-opacity:0.5;}
	.st51{clip-path:url(#SVGID_4_);}
</style>
<g>
	<defs>
		<rect id="SVGID_1_" x="500" width="500" height="500"/>
	</defs>
	<clipPath id="SVGID_2_">
		<use xlink:href="#SVGID_1_"  style="overflow:visible;"/>
	</clipPath>
	<g class="st0">
		<g transform="rotate(296.9478281252404) translate(0, 0)">
			<polygon class="st1" points="76.6,749.6 -53.8,820.9 35.2,951.7 117.1,782 137.2,786.5 124.8,775.7 117,643.9 			"/>
		</g>
		<g transform="rotate(272.659870206755) translate(0, 0)">
			<polygon class="st2" points="-222.6,754.7 -399.9,803 -274.4,884.2 -214.9,760.8 -194.7,765.4 -209.3,756.3 -214.9,573.5 			"/>
		</g>
		<g transform="rotate(185.33693374551942) translate(0, 0)">
			<polygon class="st3" points="-857.4,-248.8 -911.4,-146.9 -840.8,-32.1 -770,-179.2 -742.9,-173 -755.4,-190.8 -770,-222.9 			
				"/>
		</g>
		<g transform="rotate(103.06818050826541) translate(0, 0)">
			<polygon class="st4" points="63.4,-795.5 -80.3,-751.9 4,-641.8 73.9,-787.1 99.3,-781.3 82.6,-794 73.9,-858.9 			"/>
		</g>
		<g transform="rotate(128.92622877425876) translate(0, 0)">
			<polygon class="st5" points="-299.8,-758.9 -397.4,-713 -365.9,-555.4 -276.8,-740.5 -239.9,-732.1 -267.6,-747.9 -276.8,-804 
							"/>
		</g>
		<g transform="rotate(42.82219770199298) translate(0, 0)">
			<polygon class="st6" points="659.6,-374.6 633.7,-306.7 651.4,-183.8 720,-326.4 745.4,-320.6 732.6,-336.5 720,-373.9 			"/>
		</g>
		<g transform="rotate(230.22459105578727) translate(0, 0)">
			<polygon class="st7" points="-688.5,403.3 -863.5,460.2 -759.6,598.5 -671.9,416.5 -651.9,421 -654.7,402.7 -672,264.2 			"/>
		</g>
		<g transform="rotate(356.78111617405085) translate(0, 0)">
			<polygon class="st8" points="600.3,184.5 533.7,337.6 670.5,425.3 734.8,291.8 776.2,301.2 754.1,276.3 734.8,156.7 			"/>
		</g>
		<g transform="rotate(211.08670635661292) translate(0, 0)">
			<polygon class="st9" points="-787.6,160.2 -937.6,211.1 -843.7,323.4 -771.4,173.2 -747.4,178.6 -744.2,151.5 -771.4,-0.8 			"/>
		</g>
		<g transform="rotate(280.12188328159243) translate(0, 0)">
			<polygon class="st10" points="-118.3,779.1 -295.9,823.7 -183.9,926.9 -114.3,782.3 -98.3,785.9 -58.2,737.5 -114.3,725.8 			"/>
		</g>
		<g transform="rotate(333.16074881461867) translate(0, 0)">
			<polygon class="st11" points="445.9,473.6 375.7,602.9 499,680.8 556.3,561.7 573.1,565.5 567.3,552.9 556.3,330.7 			"/>
		</g>
		<g transform="rotate(200.7604425491044) translate(0, 0)">
			<polygon class="st12" points="-814.2,12.7 -945.9,67.7 -860.2,178 -789.9,32.1 -770.4,36.5 -753.4,2.9 -789.9,-104.9 			"/>
		</g>
		<g transform="rotate(186.15449472964184) translate(0, 0)">
			<polygon class="st13" points="-919.3,-285.2 -894.6,-140.3 -816.4,-76.9 -772.5,-168.2 -746.9,-162.3 -766.2,-173.1 
				-772.5,-279.7 			"/>
		</g>
		<g transform="rotate(207.87055192688737) translate(0, 0)">
			<polygon class="st14" points="-820.9,96.9 -926.8,163.1 -852.1,279.6 -779.9,129.6 -723.3,142.5 -770.9,122.5 -779.9,16.6 			"/>
		</g>
		<g transform="rotate(66.79121079906383) translate(0, 0)">
			<polygon class="st15" points="461.2,-641.9 354.5,-551.8 479.2,-495.1 539.4,-561.5 549.7,-585.2 598.6,-649.2 525.3,-731.3 			
				"/>
		</g>
		<g transform="rotate(197.3763051034021) translate(0, 0)">
			<polygon class="st16" points="-825.8,-42.8 -995.9,32.3 -832.8,73.5 -790.4,-14.6 -757,-7 -773.9,-27.8 -790.4,-138.6 			"/>
		</g>
		<g transform="rotate(131.13376541015202) translate(0, 0)">
			<polygon class="st17" points="-335,-753.2 -421.3,-702.8 -379,-575.7 -305.1,-729.3 -286.5,-725.1 -287,-743.8 -305.1,-815.6 			
				"/>
		</g>
		<g transform="rotate(24.01261146045718) translate(0, 0)">
			<polygon class="st18" points="769,-91.1 592.3,-32.4 713.6,75.2 786.8,-76.8 808.6,-71.9 795.5,-83.7 786.8,-287.3 			"/>
		</g>
		<g transform="rotate(120.93114374792856) translate(0, 0)">
			<polygon class="st19" points="-182.8,-781.2 -277.8,-747.5 -251.5,-604.7 -171.1,-771.8 -147.3,-766.4 -147,-791 -171.1,-835.1 
							"/>
		</g>
		<g transform="rotate(59.65386018879854) translate(0, 0)">
			<polygon class="st20" points="571.8,-539.2 442.3,-486.2 511.9,-349.1 594.7,-520.9 621.7,-514.8 614.1,-536.4 594.7,-585.7 			
				"/>
		</g>
		<g transform="rotate(170.48334048707386) translate(0, 0)">
			<polygon class="st21" points="-752.3,-413.6 -898.9,-324.8 -775.4,-210.6 -698.3,-370.6 -661.3,-362.1 -684.9,-381.3 
				-698.3,-464.6 			"/>
		</g>
		<g transform="rotate(175.08601798577274) translate(0, 0)">
			<polygon class="st22" points="-736.2,-321.6 -939.8,-264.5 -793,-173.9 -725.8,-313.3 -698.3,-307 -705.9,-329.2 -725.8,-473.1 
							"/>
		</g>
		<g transform="rotate(100.05897007181011) translate(0, 0)">
			<polygon class="st23" points="89.8,-802.4 -87.4,-735.9 55.3,-657.8 115.2,-782.1 140,-776.5 144.3,-805.4 115.2,-874.6 			"/>
		</g>
		<g transform="rotate(137.69316332911214) translate(0, 0)">
			<polygon class="st24" points="-503.7,-783.2 -535.1,-655.8 -454.1,-549.2 -386.4,-689.7 -327.2,-676.2 -326,-737.9 
				-386.4,-750.7 			"/>
		</g>
		<g transform="rotate(40.89404265194777) translate(0, 0)">
			<polygon class="st25" points="707.3,-320.6 633.1,-279.8 644.4,-122.9 730.6,-302 769.4,-293.2 820.7,-373.9 730.6,-477.5 			"/>
		</g>
		<g transform="rotate(351.4090122049626) translate(0, 0)">
			<polygon class="st26" points="566.8,249.7 522.2,400.8 644,484.2 704.2,359.2 739.3,367.2 710.4,354.3 704.2,258.5 			"/>
		</g>
		<g transform="rotate(223.41906232260976) translate(0, 0)">
			<polygon class="st27" points="-783.4,280.6 -887.9,373 -781,467.7 -716.6,333.9 -686.6,340.8 -701.9,322.2 -716.6,215.2 			"/>
		</g>
		<g transform="rotate(62.054009458188126) translate(0, 0)">
			<polygon class="st28" points="543.6,-568.3 407.6,-507.8 489.8,-374 572.3,-545.4 656.9,-526.1 586.7,-556.8 572.3,-685.1 			"/>
		</g>
		<g transform="rotate(349.44848033887763) translate(0, 0)">
			<polygon class="st29" points="595.4,306.4 604,403.1 632.6,505.4 691.5,383.1 720.3,389.7 709.5,368.8 691.5,269.9 			"/>
		</g>
		<g transform="rotate(231.47210566934456) translate(0, 0)">
			<polygon class="st30" points="-684.2,413.9 -837,470.8 -730.4,571.6 -662.7,431 -632.8,437.8 -640.5,413.2 -662.7,328 			"/>
		</g>
		<g transform="rotate(135.50371871001337) translate(0, 0)">
			<polygon class="st31" points="-413.3,-746.7 -535.5,-663.9 -443.9,-529.2 -359.8,-704 -284.7,-686.8 -323.2,-733.1 
				-359.8,-793.2 			"/>
		</g>
		<g transform="rotate(268.1727237897862) translate(0, 0)">
			<polygon class="st32" points="-364.1,669.6 -463.9,785 -356.1,912.6 -273.7,741.8 -238.9,749.6 -229.8,706.6 -273.8,596.9 			"/>
		</g>
		<g transform="rotate(311.9516767171072) translate(0, 0)">
			<polygon class="st33" points="285.7,701.2 131.7,766.9 245.4,870.4 315.5,724.9 341.8,730.9 377.4,675.5 315.5,617.7 			"/>
		</g>
		<g transform="rotate(178.12766348364994) translate(0, 0)">
			<polygon class="st34" points="-794.8,-316.9 -919.6,-233.7 -831.7,-87 -741.4,-274.4 -725.2,-270.7 -731.6,-282.2 -741.4,-509.4 
							"/>
		</g>
		<g transform="rotate(257.5945851241056) translate(0, 0)">
			<polygon class="st35" points="-408.6,676.1 -585.6,719.9 -459.3,791 -405,679.4 -327.5,696.5 -396.4,671.7 -405.3,515.8 			"/>
		</g>
		<g transform="rotate(228.15938845640017) translate(0, 0)">
			<polygon class="st36" points="-714.9,369.4 -883,436.8 -771.8,569 -686.5,392 -663.8,397.2 -672.1,380.4 -686.5,247 			"/>
		</g>
		<g transform="rotate(6.449109346539426) translate(0, 0)">
			<polygon class="st37" points="749.3,145 603.2,203 724.1,266.4 773.3,164.2 811.1,172.8 802.8,140.6 773.3,129.9 			"/>
		</g>
		<g transform="rotate(105.53881011509732) translate(0, 0)">
			<polygon class="st38" points="20.2,-805.3 -162.6,-743.3 -14.5,-676.5 39.9,-789.6 69.7,-782.8 48.9,-796.7 39.9,-814.8 			"/>
		</g>
		<g transform="rotate(62.103337418622935) translate(0, 0)">
			<polygon class="st39" points="568.5,-548.5 393,-505 481.2,-357.6 571.9,-545.9 615.5,-535.9 586.2,-557.3 571.9,-701.6 			"/>
		</g>
		<g transform="rotate(143.00825761065482) translate(0, 0)">
			<polygon class="st40" points="-462.5,-662 -625.3,-610.6 -534.3,-473 -448.6,-651 -433.9,-647.6 -410.1,-681.7 -448.6,-841.7 			
				"/>
		</g>
		<g transform="rotate(113.99214477808678) translate(0, 0)">
			<polygon class="st41" points="-170.8,-862 -273,-742 -137.1,-661.2 -76.6,-786.9 -61.5,-783.4 -63.2,-797.5 -76.6,-956.4 			"/>
		</g>
		<g transform="rotate(309.0938240854469) translate(0, 0)">
			<polygon class="st42" points="215,688.8 85.1,784 197,909.8 278.9,739.7 392,765.5 287.8,732.7 278.9,535.7 			"/>
		</g>
		<g transform="rotate(16.544290317745073) translate(0, 0)">
			<polygon class="st43" points="774.7,13.8 711.9,43.9 714.2,183.8 790.1,26.1 859.6,41.9 798.4,19.5 790.1,-73.4 			"/>
		</g>
		<g transform="rotate(18.970828564452546) translate(0, 0)">
			<polygon class="st44" points="757.3,-33.9 661.4,22.1 732.2,113.8 790.5,-7.4 851,6.4 797.1,-12.6 790.5,-79.4 			"/>
		</g>
		<g transform="rotate(36.46879826874657) translate(0, 0)">
			<polygon class="st45" points="743.8,-251 586.7,-207.1 671,-77.2 751.7,-244.7 769.8,-240.6 757.5,-249.3 751.7,-402.5 			"/>
		</g>
		<g transform="rotate(186.57965882856686) translate(0, 0)">
			<polygon class="st46" points="-846.8,-220.7 -952.1,-121.7 -823.9,-58.1 -773.7,-162.4 -726.4,-151.6 -768.1,-166.9 
				-773.7,-261.7 			"/>
		</g>
		<g transform="rotate(312.639267534328) translate(0, 0)">
			<polygon class="st47" points="319.3,717.2 133,764.7 268,837.5 324.1,721.1 361.9,729.7 365,688.5 324.1,669.6 			"/>
		</g>
		<g transform="rotate(184.49493978099045) translate(0, 0)">
			<polygon class="st48" points="-866.4,-269.5 -919.9,-155.6 -833.5,-53.1 -767.3,-190.5 -740.7,-184.4 -746.4,-207.1 
				-767.3,-260.5 			"/>
		</g>
		<g transform="rotate(249.22736474914777) translate(0, 0)">
			<polygon class="st49" points="-502.8,610.2 -668.7,651.1 -573.3,765.3 -499.7,612.6 -475.1,618.2 -493.4,607.5 -499.7,511.6 			
				"/>
		</g>
		<g transform="rotate(352.82945221349564) translate(0, 0)">
			<polygon class="st50" points="550.1,211.8 590.6,369.6 661.3,448.9 712.9,341.7 740.5,347.9 718.6,337.2 712.9,284.4 			"/>
		</g>
	</g>
</g>
<g>
	<defs>
		<rect id="SVGID_3_" y="0" width="500" height="500"/>
	</defs>
	<clipPath id="SVGID_4_">
		<use xlink:href="#SVGID_3_"  style="overflow:visible;"/>
	</clipPath>
	<g class="st51">
		<g transform="rotate(0) translate(122.70439011394643, -79.23162916974485)">
			<polygon class="st1" points="209.5,217.7 79.1,289 168.2,419.8 250.1,250.2 270.2,254.6 257.7,243.8 250,112 			"/>
		</g>
		<g transform="rotate(0) translate(-173.96180198549052, 31.733709949452646)">
			<polygon class="st2" points="242.3,243.9 65,292.2 190.6,373.4 250,250 270.2,254.6 255.7,245.5 250,62.8 			"/>
		</g>
		<g transform="rotate(0) translate(168.24907163683258, -7.008330850387836)">
			<polygon class="st3" points="162.6,180.3 108.6,282.3 179.2,397.1 250,250 277.1,256.2 264.6,238.4 250,206.2 			"/>
		</g>
		<g transform="rotate(0) translate(128.11278212045778, 190.1020710666598)">
			<polygon class="st4" points="239.5,241.6 95.7,285.2 180,395.3 250,250 275.3,255.8 258.6,243.1 250,178.2 			"/>
		</g>
		<g transform="rotate(0) translate(-32.7088161950727, 127.7108902092811)">
			<polygon class="st5" points="226.9,231.6 129.4,277.5 160.8,435.1 250,250 286.8,258.4 259.2,242.7 250,186.5 			"/>
		</g>
		<g transform="rotate(0) translate(192.05586181517242, 67.90355380299246)">
			<polygon class="st6" points="189.6,201.8 163.7,269.7 181.3,392.6 250,250 275.3,255.8 262.6,239.9 250,202.5 			"/>
		</g>
		<g transform="rotate(0) translate(117.96422016209067, -54.313146026111156)">
			<polygon class="st7" points="233.5,236.8 58.4,293.7 162.4,432 250,250.1 270,254.6 267.2,236.3 250,97.8 			"/>
		</g>
		<g transform="rotate(0) translate(24.986819560231993, -37.267996549747494)">
			<polygon class="st8" points="115.5,142.8 48.9,295.9 185.7,383.6 250,250 291.4,259.5 269.3,234.6 250,115 			"/>
		</g>
		<g transform="rotate(0) translate(-27.83262452631982, -25.42375175983716)">
			<polygon class="st9" points="233.7,237 83.8,287.9 177.6,400.2 250,250 274,255.5 277.2,228.3 250,76 			"/>
		</g>
		<g transform="rotate(0) translate(29.244900028819927, 191.43755403307733)">
			<polygon class="st10" points="246,246.8 68.4,291.4 180.4,394.6 250,250 266,253.7 306.1,205.3 250,193.5 			"/>
		</g>
		<g transform="rotate(0) translate(-34.16998723120801, 176.33199300842904)">
			<polygon class="st11" points="139.6,161.9 69.4,291.2 192.6,369.2 250,250 266.8,253.8 261,241.2 250,19 			"/>
		</g>
		<g transform="rotate(0) translate(-116.49685102717835, 166.30907493610772)">
			<polygon class="st12" points="225.8,230.7 94,285.6 179.7,396 250,250 269.5,254.5 286.6,220.9 250,113 			"/>
		</g>
		<g transform="rotate(0) translate(42.76906060895632, 136.94961620802894)">
			<polygon class="st13" points="103.2,132.9 127.9,277.9 206.1,341.2 250,250 275.6,255.8 256.2,245 250,138.5 			"/>
		</g>
		<g transform="rotate(0) translate(-186.29573020702304, 7.631246549578918)">
			<polygon class="st14" points="209,217.3 103,283.5 177.8,400 250,250 306.5,262.9 259,242.8 250,137 			"/>
		</g>
		<g transform="rotate(0) translate(-163.2055439349515, -4.525425045246635)">
			<polygon class="st15" points="185.9,198.9 79.1,289 203.9,345.7 264.1,279.3 274.4,255.6 323.3,191.5 250,109.5 			"/>
		</g>
		<g transform="rotate(0) translate(92.0401304129723, 105.07250651401586)">
			<polygon class="st16" points="214.6,221.8 44.5,296.9 207.6,338.1 250,250 283.4,257.6 266.5,236.8 250,126 			"/>
		</g>
		<g transform="rotate(0) translate(185.40842506815466, 184.99473071252282)">
			<polygon class="st17" points="220.1,226.2 133.7,276.5 176,403.6 250,250 268.6,254.2 268.1,235.6 250,163.8 			"/>
		</g>
		<g transform="rotate(0) translate(-4.500198130471574, 129.45693978517778)">
			<polygon class="st18" points="232.2,235.8 55.5,294.4 176.8,402 250,250 271.8,255 258.6,243.1 250,39.5 			"/>
		</g>
		<g transform="rotate(0) translate(-90.33434254124995, -94.23813893024153)">
			<polygon class="st19" points="238.2,240.6 143.2,274.4 169.5,417.1 250,250 273.8,255.4 274,230.8 250,186.8 			"/>
		</g>
		<g transform="rotate(0) translate(8.55683307999152, -107.90706128330041)">
			<polygon class="st20" points="227.1,231.8 97.7,284.8 167.2,421.9 250,250 277.1,256.2 269.4,234.5 250,185.2 			"/>
		</g>
		<g transform="rotate(0) translate(-46.6690701628965, -124.06108891694628)">
			<polygon class="st21" points="196.1,207 49.4,295.8 173,409.9 250,250 287,258.5 263.4,239.3 250,156 			"/>
		</g>
		<g transform="rotate(0) translate(7.062148471684168, 160.9380337159305)">
			<polygon class="st22" points="239.6,241.7 36,298.8 182.9,389.4 250,250 277.5,256.3 269.9,234.1 250,90.2 			"/>
		</g>
		<g transform="rotate(0) translate(-43.57625534049018, 27.614183095067546)">
			<polygon class="st23" points="224.6,229.7 47.5,296.2 190.1,374.3 250,250 274.9,255.7 279.1,226.8 250,157.5 			"/>
		</g>
		<g transform="rotate(0) translate(148.9544532094419, 76.95986451174895)">
			<polygon class="st24" points="132.7,156.5 101.3,283.9 182.3,390.6 250,250 309.2,263.5 310.4,201.8 250,189 			"/>
		</g>
		<g transform="rotate(0) translate(59.61191625772619, 121.58404416180014)">
			<polygon class="st25" points="226.7,231.5 152.5,272.3 163.8,429.1 250,250 288.8,258.8 340.1,178.1 250,74.5 			"/>
		</g>
		<g transform="rotate(0) translate(62.60145950349147, -174.83292536489765)">
			<polygon class="st26" points="112.6,140.4 67.9,291.6 189.8,375 250,250 285.1,258 256.2,245.1 250,149.2 			"/>
		</g>
		<g transform="rotate(0) translate(-144.57671396891072, 104.27399341021186)">
			<polygon class="st27" points="183.2,196.7 78.7,289.1 185.6,383.8 250,250 280,256.8 264.7,238.3 250,131.2 			"/>
		</g>
		<g transform="rotate(0) translate(-183.5192841468088, 163.65419762999983)">
			<polygon class="st28" points="221.3,227.1 85.2,287.6 167.5,421.4 250,250 334.6,269.3 264.4,238.5 250,110.2 			"/>
		</g>
		<g transform="rotate(0) translate(-95.02202710326068, 26.958245283693174)">
			<polygon class="st29" points="153.8,173.3 162.5,270 191.1,372.3 250,250 278.8,256.6 268,235.7 250,136.8 			"/>
		</g>
		<g transform="rotate(0) translate(60.17454745792452, -20.31741942786317)">
			<polygon class="st30" points="228.5,232.9 75.7,289.8 182.3,390.6 250,250 280,256.8 272.3,232.2 250,147 			"/>
		</g>
		<g transform="rotate(0) translate(-191.80543269055926, -39.4892994070168)">
			<polygon class="st31" points="196.4,207.3 74.3,290.1 165.8,424.8 250,250 325.1,267.1 286.6,220.9 250,160.8 			"/>
		</g>
		<g transform="rotate(0) translate(63.76737654974727, 138.2662633863755)">
			<polygon class="st32" points="159.7,178 59.9,293.4 167.7,421 250.1,250.2 284.9,258 294,214.9 250,105.2 			"/>
		</g>
		<g transform="rotate(0) translate(152.4755257796068, 24.30497305518253)">
			<polygon class="st33" points="220.3,226.3 66.2,291.9 179.9,395.5 250,250 276.3,256 312,200.6 250,142.8 			"/>
		</g>
		<g transform="rotate(0) translate(-146.7381929634218, 123.61465134693617)">
			<polygon class="st34" points="196.6,207.4 71.8,290.7 159.8,437.4 250,250 266.2,253.7 259.8,242.2 250,15 			"/>
		</g>
		<g transform="rotate(0) translate(95.50889022123829, -173.46385338442622)">
			<polygon class="st35" points="246.7,247.4 69.6,291.2 196,362.2 250.3,250.6 327.8,267.7 258.9,242.9 250,87 			"/>
		</g>
		<g transform="rotate(0) translate(-4.402940281711011, -148.70190102269922)">
			<polygon class="st36" points="221.7,227.4 53.6,294.8 164.7,427 250,250 272.8,255.2 264.5,238.4 250,105 			"/>
		</g>
		<g transform="rotate(0) translate(-105.34575587932213, 191.6088623955718)">
			<polygon class="st37" points="226,230.8 79.9,288.8 200.8,352.3 250,250 287.8,258.6 279.5,226.5 250,215.8 			"/>
		</g>
		<g transform="rotate(0) translate(-53.70362556312469, 17.365026084035776)">
			<polygon class="st38" points="230.3,234.3 47.5,296.2 195.5,363.1 250,250 279.7,256.8 259,242.8 250,224.8 			"/>
		</g>
		<g transform="rotate(0) translate(83.19401593191577, -104.97889140575371)">
			<polygon class="st39" points="246.7,247.4 71.1,290.8 159.3,438.3 250,250 293.6,260 264.4,238.5 250,94.2 			"/>
		</g>
		<g transform="rotate(0) translate(19.675641879523596, -155.65756658257777)">
			<polygon class="st40" points="236.1,238.9 73.3,290.3 164.3,427.9 250,250 264.7,253.3 288.5,219.3 250,59.2 			"/>
		</g>
		<g transform="rotate(0) translate(63.811718770310506, 123.08231206505826)">
			<polygon class="st41" points="155.8,174.9 53.6,294.8 189.5,375.7 250,250 265.1,253.4 263.3,239.4 250,80.5 			"/>
		</g>
		<g transform="rotate(0) translate(163.04720725276144, -155.39386198093257)">
			<polygon class="st42" points="186.1,199 56.2,294.2 168.1,420.1 250,250 363.1,275.8 258.9,242.9 250,46 			"/>
		</g>
		<g transform="rotate(0) translate(-15.251759016341595, 131.84762262674315)">
			<polygon class="st43" points="234.6,237.7 171.8,267.9 174.1,407.7 250,250 319.5,265.9 258.3,243.4 250,150.5 			"/>
		</g>
		<g transform="rotate(0) translate(-145.81007552068536, -61.761643391788056)">
			<polygon class="st44" points="216.8,223.5 120.8,279.5 191.6,371.2 250,250 310.4,263.8 256.5,244.8 250,178 			"/>
		</g>
		<g transform="rotate(0) translate(-149.68681730063872, 33.47184433871368)">
			<polygon class="st45" points="242.1,243.7 85,287.7 169.3,417.6 250,250 268,254.1 255.8,245.4 250,92.2 			"/>
		</g>
		<g transform="rotate(0) translate(154.17405498599857, 42.30766958006632)">
			<polygon class="st46" points="176.9,191.7 71.6,290.7 199.8,354.3 250,250 297.3,260.8 255.6,245.5 250,150.8 			"/>
		</g>
		<g transform="rotate(0) translate(-17.401509816199024, 99.47839037147753)">
			<polygon class="st47" points="245.1,246.1 58.9,293.6 193.9,366.5 250,250 287.8,258.6 290.9,217.4 250,198.5 			"/>
		</g>
		<g transform="rotate(0) translate(-35.574532448406075, 118.70949620857039)">
			<polygon class="st48" points="150.9,171 97.4,284.8 183.8,387.4 250,250 276.6,256.1 270.9,233.3 250,180 			"/>
		</g>
		<g transform="rotate(0) translate(-26.3498830942832, -127.72891223936202)">
			<polygon class="st49" points="247,247.6 81.1,288.6 176.5,402.7 250,250 274.6,255.6 256.3,244.9 250,149 			"/>
		</g>
		<g transform="rotate(0) translate(32.9997239006278, -166.11890725000904)">
			<polygon class="st50" points="87.2,120.2 127.6,277.9 198.4,357.2 250,250 277.5,256.3 255.6,245.5 250,192.8 			"/>
		</g>
	</g>
</g>
</svg>
