<?xml version="1.0" encoding="utf-8"?>
<!-- Generator: Adobe Illustrator 23.0.6, SVG Export Plug-In . SVG Version: 6.00 Build 0)  -->
<svg version="1.1" id="Layer_1" xmlns="http://www.w3.org/2000/svg" xmlns:xlink="http://www.w3.org/1999/xlink" x="0px" y="0px"
	 viewBox="0 0 1920 1080" style="enable-background:new 0 0 1920 1080;" xml:space="preserve">
<style type="text/css">
	.st0{fill:#AEAEAE;fill-opacity:0.5;}
	.st1{fill:#154ED0;fill-opacity:0.5;}
	.st2{fill:#BA7ECF;fill-opacity:0.5;}
	.st3{fill:#ACACAC;fill-opacity:0.5;}
	.st4{fill:#C1BDC8;fill-opacity:0.5;}
	.st5{fill:#D09ACD;fill-opacity:0.5;}
	.st6{fill:#B768D3;fill-opacity:0.5;}
	.st7{fill:#72BDE0;fill-opacity:0.5;}
	.st8{fill:#85AAA4;fill-opacity:0.5;}
	.st9{fill:#3099A4;fill-opacity:0.5;}
	.st10{fill:#B32854;fill-opacity:0.5;}
	.st11{fill:#BDBDBD;fill-opacity:0.5;}
	.st12{fill:#24605D;fill-opacity:0.5;}
	.st13{fill:#707C86;fill-opacity:0.5;}
	.st14{fill:#4283D5;fill-opacity:0.5;}
	.st15{fill-opacity:0.5;}
	.st16{fill:#3D3A54;fill-opacity:0.5;}
	.st17{fill:#828D97;fill-opacity:0.5;}
	.st18{fill:#DA81D8;fill-opacity:0.5;}
	.st19{fill:#4AAECA;fill-opacity:0.5;}
	.st20{fill:#A9A9A9;fill-opacity:0.5;}
	.st21{fill:#73D3D6;fill-opacity:0.5;}
	.st22{fill:#7890CD;fill-opacity:0.5;}
	.st23{fill:#008AA3;fill-opacity:0.5;}
	.st24{fill:#64D1D1;fill-opacity:0.5;}
	.st25{fill:#6139C2;fill-opacity:0.5;}
	.st26{fill:#F75959;fill-opacity:0.5;}
	.st27{fill:#A47C8E;fill-opacity:0.5;}
	.st28{fill:#1D812D;fill-opacity:0.5;}
	.st29{fill:#943DA3;fill-opacity:0.5;}
	.st30{fill:#D19ED2;fill-opacity:0.5;}
	.st31{fill:#ABB9B8;fill-opacity:0.5;}
	.st32{fill:#C52C6F;fill-opacity:0.5;}
	.st33{fill:#CD91F4;fill-opacity:0.5;}
	.st34{fill:#00B4C7;fill-opacity:0.5;}
	.st35{fill:#596B6A;fill-opacity:0.5;}
	.st36{fill:#55F7E7;fill-opacity:0.5;}
	.st37{fill:#9D9D9D;fill-opacity:0.5;}
	.st38{fill:#708186;fill-opacity:0.5;}
	.st39{fill:#2AF594;fill-opacity:0.5;}
	.st40{fill:#C9C9C9;fill-opacity:0.5;}
	.st41{fill:#4BD9F6;fill-opacity:0.5;}
	.st42{fill:#13BEBE;fill-opacity:0.5;}
	.st43{fill:#707070;fill-opacity:0.5;}
	.st44{fill:#0918B9;fill-opacity:0.5;}
	.st45{fill:#743691;fill-opacity:0.5;}
	.st46{fill:#5DC2B9;fill-opacity:0.5;}
	.st47{fill:#00B4BA;fill-opacity:0.5;}
	.st48{fill:#1D3C3F;fill-opacity:0.5;}
	.st49{fill:#187599;fill-opacity:0.5;}
</style>
<g transform="rotate(295.67732836915883) translate(0, 0)">
	<polygon class="st0" points="-226.1,1029.5 -726.8,1183.4 -384.8,1466 -70.4,1099.5 6.9,1109.1 -41,1085.8 -70.7,801.1 	"/>
</g>
<g transform="rotate(332.0546189308396) translate(0, 0)">
	<polygon class="st1" points="565.6,913.7 -115.4,1018.1 366.7,1193.5 595,926.9 672.5,936.9 616.8,917.2 595,522.5 	"/>
</g>
<g transform="rotate(83.67888901628693) translate(0, 0)">
	<polygon class="st2" points="306.9,-1045.2 99.6,-825 370.4,-577 642.4,-894.7 746.3,-881.4 698.3,-919.8 642.4,-989.2 	"/>
</g>
<g transform="rotate(312.13853575608107) translate(0, 0)">
	<polygon class="st3" points="203.3,1056 -348.8,1150.2 -25,1388 243.7,1074.2 341,1086.7 276.8,1059.3 243.7,919.2 	"/>
</g>
<g transform="rotate(67.54381961452582) translate(0, 0)">
	<polygon class="st4" points="777.2,-720.7 402.5,-621.5 523.4,-281 865.8,-680.9 1007.1,-662.8 901,-696.8 865.8,-818.1 	"/>
</g>
<g transform="rotate(137.55602275346664) translate(0, 0)">
	<polygon class="st5" points="-575.9,-1150.4 -675.3,-1003.8 -607.7,-738.4 -344,-1046.4 -246.7,-1033.9 -295.6,-1068.1 -344,-1149 
			"/>
</g>
<g transform="rotate(303.6736021205798) translate(0, 0)">
	<polygon class="st6" points="20.4,1070.3 -555.4,1180.3 -194.9,1422.8 82.9,1098.3 175,1110.2 187.2,1051.5 82.9,722.5 	"/>
</g>
<g transform="rotate(228.9032118962174) translate(0, 0)">
	<polygon class="st7" points="-1101.5,340 -1773.6,462.9 -1374.5,761.6 -1037.9,368.6 -961.1,378.4 -971.8,338.8 -1038,39.6 	"/>
</g>
<g transform="rotate(179.03908214806404) translate(0, 0)">
	<polygon class="st8" points="-1374.9,-746.3 -1644.3,-467 -1171.2,-298.7 -950.8,-556 -886.3,-547.7 -908.6,-575 -950.8,-1055 	"/>
</g>
<g transform="rotate(198.22908838144505) translate(0, 0)">
	<polygon class="st9" points="-1597.1,-444.2 -1852.9,-113.5 -1327.7,75.9 -1080.7,-212.5 -921.6,-192.2 -1006.6,-245.9 
		-1080.7,-504.2 	"/>
</g>
<g transform="rotate(22.68497968346216) translate(0, 0)">
	<polygon class="st10" points="1078.7,121.1 396.7,217.5 826.6,440.3 1094,128 1155.6,135.9 1309.4,31.4 1094,5.9 	"/>
</g>
<g transform="rotate(306.05952391882397) translate(0, 0)">
	<polygon class="st11" points="-29.1,1023.2 -435.8,1166.4 -148.9,1418 128.5,1093.9 345.7,1121.8 163,1078.5 128.5,849.8 	"/>
</g>
<g transform="rotate(97.9712412032978) translate(0, 0)">
	<polygon class="st12" points="308.6,-1067.4 -197.3,-948.7 131.7,-710.3 401.7,-1025.6 476.7,-1016 542,-1088.6 401.7,-1321.5 	"/>
</g>
<g transform="rotate(213.8184018392102) translate(0, 0)">
	<polygon class="st13" points="-1661.8,-167.2 -1567,145.9 -1266.8,282.7 -1098.1,85.7 -999.8,98.3 -1074.2,74.9 -1098.1,-155.2 	
		"/>
</g>
<g transform="rotate(340.9214424584957) translate(0, 0)">
	<polygon class="st14" points="685.5,803.8 320.8,876.8 421.7,1185.1 730.8,824.1 822,835.8 823.1,782.7 730.8,687.5 	"/>
</g>
<g transform="rotate(81.48755597594874) translate(0, 0)">
	<polygon class="st15" points="430,-979.9 20.1,-785.3 499.1,-662.7 730.3,-806.2 769.7,-857.5 957.6,-995.7 676.2,-1173 	"/>
</g>
<g transform="rotate(310.38466420720096) translate(0, 0)">
	<polygon class="st16" points="74.8,1020.2 -578.3,1182.4 47.8,1271.3 210.7,1081.1 338.9,1097.6 274.1,1052.7 210.7,813.3 	"/>
</g>
<g transform="rotate(333.82162044756666) translate(0, 0)">
	<polygon class="st17" points="508.5,856.6 176.9,965.4 339.2,1239.9 623.3,908.1 694.7,917.3 692.7,877 623.3,721.8 	"/>
</g>
<g transform="rotate(336.47998084521976) translate(0, 0)">
	<polygon class="st18" points="576.9,838.9 79.8,953.3 346.9,1249.5 664.8,878.3 768.6,891.6 739.4,844.8 664.7,738.4 	"/>
</g>
<g transform="rotate(214.62681259671422) translate(0, 0)">
	<polygon class="st19" points="-1165.3,70.4 -1843.7,197 -1378,429.6 -1096.8,101.2 -1013.1,111.9 -1063.6,86.3 -1096.8,-353.5 	"/>
</g>
<g transform="rotate(341.9128421245925) translate(0, 0)">
	<polygon class="st20" points="634.6,761.9 112.2,892.6 427.9,1181.6 744.9,811.4 1069.7,853.1 800.1,786.6 744.9,509.5 	"/>
</g>
<g transform="rotate(199.43388114674903) translate(0, 0)">
	<polygon class="st21" points="-1292.1,-282.7 -1855.2,-90.9 -1380.7,155.6 -1085,-189.8 -942.7,-171.6 -1033.3,-213 -1085,-392.9 	
		"/>
</g>
<g transform="rotate(20.720353933392243) translate(0, 0)">
	<polygon class="st22" points="561.3,-71.3 389.8,255.2 857.8,435.4 1089,165.4 1223.7,182.7 1112.7,154.8 1089,-52.2 	"/>
</g>
<g transform="rotate(91.455182864644) translate(0, 0)">
	<polygon class="st23" points="417.9,-1017.2 -262.3,-873.6 285.5,-704.8 515.4,-973.4 610.9,-961.1 627.3,-1023.6 515.4,-1173.2 	
		"/>
</g>
<g transform="rotate(164.70326784190493) translate(0, 0)">
	<polygon class="st24" points="-989.2,-866.4 -1458.3,-687.5 -1106.8,-396.6 -783.5,-774.1 -495.3,-737.1 -643.2,-837.1 
		-783.5,-966.9 	"/>
</g>
<g transform="rotate(351.3938857459862) translate(0, 0)">
	<polygon class="st25" points="828.4,659.6 46.6,783.1 610.6,978.7 868.4,677.6 974.1,691.2 944.9,643.2 868.4,332.5 	"/>
</g>
<g transform="rotate(34.117356140193905) translate(0, 0)">
	<polygon class="st26" points="1008.3,-131.5 723.3,-43.3 766.5,295.4 1097.7,-91.4 1246.5,-72.3 1443.7,-246.6 1097.7,-470.5 	"/>
</g>
<g transform="rotate(59.73957814904907) translate(0, 0)">
	<polygon class="st27" points="499.9,-759.1 379.3,-483.8 690.3,-253.5 950.2,-557.1 1177.6,-527.9 1182.1,-661.1 950.2,-688.8 	"/>
</g>
<g transform="rotate(35.516178754374124) translate(0, 0)">
	<polygon class="st28" points="725.8,-283.8 759.1,-75 868.9,146 1095.1,-118.2 1205.5,-104 1164.1,-149.1 1095.1,-362.8 	"/>
</g>
<g transform="rotate(263.1525079903224) translate(0, 0)">
	<polygon class="st29" points="-907.3,773.6 -1308.6,973.2 -898,1177.8 -650.6,888.8 -535.5,903.5 -594.2,863.5 -650.6,632.3 	"/>
</g>
<g transform="rotate(258.78607319805496) translate(0, 0)">
	<polygon class="st30" points="-798.9,799.6 -1385.6,922.6 -976.3,1140.2 -716.4,836.7 -601.3,851.4 -630.8,798.3 -716.4,614.2 	"/>
</g>
<g transform="rotate(38.59872296015921) translate(0, 0)">
	<polygon class="st31" points="740.4,-332.4 357.1,-83.2 771,192.4 1087.5,-176.5 1221,-159.7 1256,-252.6 1087.2,-489.5 	"/>
</g>
<g transform="rotate(166.98363842287932) translate(0, 0)">
	<polygon class="st32" points="-927.8,-793.5 -1519.4,-651.7 -1082.8,-428.1 -813.7,-742.3 -712.6,-729.4 -575.8,-849.1 
		-813.7,-974 	"/>
</g>
<g transform="rotate(329.9380518894722) translate(0, 0)">
	<polygon class="st33" points="355.5,856.3 -123.8,1036.1 213.8,1353 560.4,948.3 622.6,956.3 598.1,931.3 560.4,440.7 	"/>
</g>
<g transform="rotate(242.3573381272892) translate(0, 0)">
	<polygon class="st34" points="-936.4,594.2 -1616.4,688.8 -1131.2,842.2 -922.6,601.3 -625.2,638.2 -889.5,584.5 -923.8,247.8 	"/>
</g>
<g transform="rotate(196.93470587753453) translate(0, 0)">
	<polygon class="st35" points="-1168,-278.4 -1728.9,-153.1 -1264.8,-16.1 -1075.7,-237 -930.6,-218.3 -962.3,-287.8 
		-1075.7,-310.9 	"/>
</g>
<g transform="rotate(238.282440052249) translate(0, 0)">
	<polygon class="st36" points="-1072.9,483.9 -1718.4,629.6 -1291.4,915.1 -964.1,532.7 -876.5,544 -908.4,507.8 -964.1,219.5 	"/>
</g>
<g transform="rotate(307.84650801339194) translate(0, 0)">
	<polygon class="st37" points="103.4,1062.8 -137.8,1128 -129,1430 162.6,1089.4 429.3,1123.6 194.4,1075.1 162.6,874.5 	"/>
</g>
<g transform="rotate(150.62288848355377) translate(0, 0)">
	<polygon class="st38" points="-952.2,-1112.2 -1157.5,-866.3 -825.7,-644.7 -571.7,-941.5 -469.6,-928.4 -491.3,-977.5 
		-571.7,-1092.7 	"/>
</g>
<g transform="rotate(41.288818436974175) translate(0, 0)">
	<polygon class="st39" points="1064.9,-233.4 390.7,-139.5 729.4,179 1077.7,-227.7 1245.2,-206.2 1132.8,-252.5 1077.7,-564.1 	"/>
</g>
<g transform="rotate(93.64156388603718) translate(0, 0)">
	<polygon class="st40" points="424.6,-1016.3 -200.6,-905.2 148.9,-608 477.9,-992.4 534.3,-985.1 625.8,-1058.7 477.9,-1404.4 	"/>
</g>
<g transform="rotate(336.5909136077529) translate(0, 0)">
	<polygon class="st41" points="590.6,842.9 -111.3,976.8 457.3,1121.2 666.4,877 780.6,891.6 701,861.5 666.4,822.4 	"/>
</g>
<g transform="rotate(84.46928426038741) translate(0, 0)">
	<polygon class="st42" points="268.2,-1065.8 -124.4,-806.6 397.6,-632 630,-903.5 687.9,-896.1 681.3,-926.5 630,-1269.6 	"/>
</g>
<g transform="rotate(20.417032938677448) translate(0, 0)">
	<polygon class="st43" points="462.9,-109.3 618.2,231.5 889.8,402.8 1088.1,171.2 1193.8,184.8 1109.8,161.4 1088.1,47.5 	"/>
</g>
<g transform="rotate(288.94485971908995) translate(0, 0)">
	<polygon class="st44" points="-229.4,1069.7 -832.7,1164.7 -509,1445.3 -199,1083.4 -129.8,1092.2 -176.9,1073.4 -199.1,742.6 	"/>
</g>
<g transform="rotate(9.537250340853136) translate(0, 0)">
	<polygon class="st45" points="908.6,316.2 540.2,437.2 812.1,635.2 1036.2,373.5 1268.3,403.3 1061.3,362.2 1036.2,218 	"/>
</g>
<g transform="rotate(72.03210842329062) translate(0, 0)">
	<polygon class="st46" points="564.4,-856.7 65.7,-651.1 495.3,-379.3 809.8,-746.6 1244.1,-690.8 843.9,-761.9 809.8,-1187.2 	"/>
</g>
<g transform="rotate(51.656933353887894) translate(0, 0)">
	<polygon class="st47" points="738.4,-543.9 334,-330 826.2,-192.7 1019.1,-417.9 1200.7,-394.6 1040.6,-427.6 1019.1,-632.3 	"/>
</g>
<g transform="rotate(235.30561459090592) translate(0, 0)">
	<polygon class="st48" points="-1009.1,473.6 -1724.2,576.2 -1205.8,733.5 -990.4,481.9 -845.3,500.6 -833.6,411.6 -990.4,370.7 	
		"/>
</g>
<g transform="rotate(122.90839863621144) translate(0, 0)">
	<polygon class="st49" points="-79.8,-1104.5 -716.8,-1016.1 -350.6,-769.5 -68.2,-1099.3 26.3,-1087.2 -43.9,-1110.2 
		-68.2,-1317.5 	"/>
</g>
</svg>
