<?xml version="1.0" encoding="utf-8"?>
<!-- Generator: Adobe Illustrator 23.0.4, SVG Export Plug-In . SVG Version: 6.00 Build 0)  -->
<svg version="1.1" id="Layer_1" xmlns="http://www.w3.org/2000/svg" xmlns:xlink="http://www.w3.org/1999/xlink" x="0px" y="0px"
	 viewBox="0 0 453.5 255.1" style="enable-background:new 0 0 453.5 255.1;" xml:space="preserve">
<style type="text/css">
	.st0{fill-rule:evenodd;clip-rule:evenodd;fill:#FEFEFE;}
	.st1{fill:none;stroke:#FFFFFF;}
	.st2{fill-rule:evenodd;clip-rule:evenodd;fill:#FFFFFF;}
	.st3{opacity:0.3;}
	.st4{fill:none;stroke:#FFFFFF;stroke-dasharray:4.524,4.524;}
	.st5{fill:none;stroke:#FFFFFF;stroke-dasharray:4.372,4.372;}
	.st6{fill:none;stroke:#FFFFFF;stroke-dasharray:4.898,4.898;}
	.st7{fill-rule:evenodd;clip-rule:evenodd;fill:#FFFFFF;fill-opacity:0.5;stroke:#FFFFFF;}
	
		.st8{fill-rule:evenodd;clip-rule:evenodd;fill:#FFFFFF;fill-opacity:0.5;stroke:#FFFFFF;stroke-linecap:round;stroke-linejoin:round;}
</style>
<title>Page 1</title>
<desc>Created with Sketch.</desc>
<g>
	<g id="Artboard-Copy-6" transform="translate(-878.000000, -2437.000000)">
		<g id="Page-1" transform="translate(878.000000, 2437.000000)">
			<path id="Fill-1" class="st0" d="M185.5,167.7V16.4V167.7z"/>
			<path id="Stroke-2" class="st1" d="M185.5,23.4v144.3"/>
			<polygon id="Fill-3" class="st2" points="180.8,24.6 185.5,16.4 190.1,24.6 			"/>
			<path id="Fill-4" class="st0" d="M185.5,168.9h151.3H185.5z"/>
			<path id="Stroke-5" class="st1" d="M329.8,168.9H185.5"/>
			<polygon id="Fill-6" class="st2" points="328.6,164.2 336.7,168.9 328.6,173.5 			"/>
			<path id="Fill-7" class="st0" d="M113.3,241l72.1-72.1L113.3,241z"/>
			<path id="Stroke-8" class="st1" d="M185.5,168.9L118,236.3"/>
			<polygon id="Fill-9" class="st2" points="113.3,241 113.3,241 113.3,241 122.6,238.5 115.8,231.7 			"/>
			<g id="Group-50" transform="translate(61.553719, 0.000000)" class="st3">
				<path id="Fill-10" class="st0" d="M179.5,27.2v86.2"/>
				<path id="Stroke-12" class="st1" d="M179.5,27.2v4.7"/>
				<path id="Stroke-14" class="st4" d="M179.5,40.4v64"/>
				<path id="Stroke-16" class="st1" d="M179.5,108.6v4.7"/>
				<path id="Fill-18" class="st0" d="M265.6,113.3h-86.2"/>
				<path id="Stroke-20" class="st1" d="M265.6,113.3h-4.7"/>
				<path id="Stroke-22" class="st4" d="M252.4,113.3h-64"/>
				<path id="Stroke-24" class="st1" d="M184.2,113.3h-4.7"/>
				<path id="Fill-26" class="st0" d="M227.9,14.2v50.6"/>
				<path id="Stroke-28" class="st1" d="M227.9,14.2v4.7"/>
				<path id="Stroke-30" class="st5" d="M227.9,27.2V56"/>
				<path id="Stroke-32" class="st1" d="M227.9,60.1v4.7"/>
				<path id="Fill-34" class="st0" d="M278.6,64.8h-50.6"/>
				<path id="Stroke-36" class="st1" d="M278.6,64.8h-4.7"/>
				<path id="Stroke-38" class="st5" d="M265.6,64.8h-28.8"/>
				<path id="Stroke-40" class="st1" d="M232.6,64.8h-4.7"/>
				<path id="Fill-42" class="st0" d="M242.1,50.7L124.5,168.3"/>
				<path id="Stroke-44" class="st1" d="M242.1,50.7l-3.3,3.3"/>
				<path id="Stroke-46" class="st6" d="M232.2,60.5L131.1,161.7"/>
				<path id="Stroke-48" class="st1" d="M127.8,165l-3.3,3.3"/>
			</g>
			<path id="Stroke-51" class="st7" d="M200.6,88.1c0,4.1-6.7,7.5-14.9,7.5c-8.2,0-14.9-3.3-14.9-7.5c0-4.1,6.7-7.5,14.9-7.5
				C193.9,80.6,200.6,83.9,200.6,88.1z"/>
			<path id="Stroke-53" class="st7" d="M192.2,143.1c0,1.8-2.9,3.3-6.6,3.3c-3.6,0-6.6-1.5-6.6-3.3c0-1.8,2.9-3.3,6.6-3.3
				C189.3,139.8,192.2,141.3,192.2,143.1z"/>
			<path id="Stroke-55" class="st7" d="M175.5,116.4c0-2.8,4.5-5.1,10.1-5.1c5.6,0,10.1,2.3,10.1,5.1c0,2.8-4.5,5.1-10.1,5.1
				C180.1,121.5,175.5,119.2,175.5,116.4z"/>
			<path id="Stroke-57" class="st7" d="M167.2,55.5c0-5.1,8.3-9.2,18.5-9.2c10.2,0,18.5,4.1,18.5,9.2c0,5.1-8.3,9.2-18.5,9.2
				C175.4,64.8,167.2,60.6,167.2,55.5z"/>
			<path id="Stroke-59" class="st7" d="M216.1,150.6c-5,0-9.1,7.5-9.1,16.7c0,9.2,4.1,16.7,9.1,16.7s9.1-7.5,9.1-16.7
				C225.2,158.1,221.1,150.6,216.1,150.6"/>
			<path id="Stroke-61" class="st7" d="M252.9,150.5c-2.2,0-4.1,3.4-4.1,7.5c0,4.2,1.8,7.5,4.1,7.5c2.2,0,4.1-3.4,4.1-7.5
				C256.9,153.9,255.1,150.5,252.9,150.5"/>
			<path id="Stroke-63" class="st7" d="M247.1,170.7c-2.2,0-4.1,3.4-4.1,7.5s1.8,7.5,4.1,7.5c2.3,0,4.1-3.4,4.1-7.5
				S249.4,170.7,247.1,170.7"/>
			<path id="Stroke-65" class="st7" d="M258.8,170.7c-2.2,0-4.1,3.4-4.1,7.5s1.8,7.5,4.1,7.5c2.3,0,4.1-3.4,4.1-7.5
				S261.1,170.7,258.8,170.7"/>
			<path id="Stroke-67" class="st7" d="M293.6,146.4c-1.1,0-2.2,0.8-3,2.3c-0.8,1.5-1.2,3.4-1.2,5.5c0,2.1,0.4,4,1.2,5.5
				c0.8,1.5,1.9,2.3,3,2.3c1.1,0,2.2-0.8,3-2.3c0.8-1.5,1.2-3.4,1.2-5.5c0-2.1-0.4-4-1.2-5.5C295.8,147.2,294.7,146.4,293.6,146.4"
				/>
			<path id="Stroke-69" class="st7" d="M301.4,160.8c-1.1,0-2.2,0.8-3,2.3c-1.6,3-1.6,7.9,0,10.9c0.8,1.5,1.9,2.3,3,2.3
				c1.1,0,2.2-0.8,3-2.3c1.6-3,1.6-7.9,0-10.9C303.6,161.6,302.5,160.8,301.4,160.8"/>
			<path id="Stroke-71" class="st7" d="M285.8,160.8c-1.1,0-2.2,0.8-3,2.3c-1.6,3-1.6,7.9,0,10.9c0.8,1.5,1.9,2.3,3,2.3
				c1.1,0,2.2-0.8,3-2.3c1.6-3,1.6-7.9,0-10.9C287.9,161.6,286.9,160.8,285.8,160.8"/>
			<path id="Stroke-73" class="st7" d="M293.6,175.2c-1.1,0-2.1,0.8-3,2.3c-0.8,1.5-1.2,3.4-1.2,5.5c0,2.1,0.4,4,1.2,5.5
				c0.8,1.5,1.8,2.3,3,2.3c1.1,0,2.2-0.8,3-2.3c0.8-1.5,1.2-3.4,1.2-5.5c0-2.1-0.4-4-1.2-5.5C295.8,176,294.7,175.2,293.6,175.2"/>
			<path id="Stroke-75" class="st7" d="M193.1,168.7c0,4.1-3.3,7.4-7.4,7.4c-4.1,0-7.4-3.3-7.4-7.4s3.3-7.4,7.4-7.4
				C189.8,161.2,193.1,164.6,193.1,168.7z"/>
			<polygon id="Stroke-77" class="st8" points="123.9,230.5 152,230.5 152,202.3 123.9,202.3 			"/>
			<path id="Stroke-79" class="st8" d="M160.1,209.9h-9.9c-3.2,0-5.8-2.6-5.8-5.8v-9.9c0-3.2,2.6-5.8,5.8-5.8h9.9
				c3.2,0,5.8,2.6,5.8,5.8v9.9C165.9,207.3,163.3,209.9,160.1,209.9z"/>
			<path id="Stroke-80" class="st8" d="M171.2,192.7h-1.6c-4.4,0-7.9-3.5-7.9-7.9v-1.6c0-4.4,3.5-7.9,7.9-7.9h1.6
				c4.4,0,7.9,3.5,7.9,7.9v1.6C179.1,189.1,175.5,192.7,171.2,192.7z"/>
		</g>
	</g>
</g>
</svg>
