<?xml version="1.0" encoding="utf-8"?>
<!-- Generator: Adobe Illustrator 23.0.6, SVG Export Plug-In . SVG Version: 6.00 Build 0)  -->
<svg version="1.1" id="Layer_1" xmlns="http://www.w3.org/2000/svg" xmlns:xlink="http://www.w3.org/1999/xlink" x="0px" y="0px"
	 viewBox="0 0 1000 500" style="enable-background:new 0 0 1000 500;" xml:space="preserve">
<style type="text/css">
	.st0{fill:#4AAECA;}
	.st1{fill:none;stroke:#FFFFFF;stroke-miterlimit:10;}
	.st2{fill:#FFFFFF;}
	.st3{fill:#ABB9B8;}
</style>
<g transform="translate(0, 0)">
	<polygon class="st0" points="232.2,235.8 55.5,294.4 176.8,402 250,250 271.8,255 258.6,243.1 250,39.5 	"/>
</g>
<g>
	<line class="st1" x1="250" y1="47" x2="250" y2="249"/>
	<line class="st1" x1="408.8" y1="123.6" x2="250.8" y2="249.4"/>
	<line class="st1" x1="447.9" y1="295.3" x2="251" y2="250.2"/>
	<line class="st1" x1="338" y1="433" x2="250.5" y2="250.9"/>
	<line class="st1" x1="161.8" y1="432.8" x2="249.6" y2="250.9"/>
	<line class="st1" x1="52.1" y1="295" x2="249.1" y2="250.2"/>
	<line class="st1" x1="91.4" y1="123.3" x2="249.3" y2="249.4"/>
</g>
<g>
	<path class="st2" d="M203.9,19h1.7l3.7,10.9H208l-1.1-3.1h-4.5l-1.1,3.1h-1.2L203.9,19z M202.8,25.7h3.8l-1.9-5.6L202.8,25.7z"/>
	<path class="st2" d="M214.4,30c-0.6,0-1.1-0.1-1.5-0.3s-0.9-0.5-1.2-0.8c-0.4-0.4-0.6-0.8-0.8-1.3c-0.2-0.5-0.3-1.1-0.3-1.7v-0.1
		c0-0.6,0.1-1.2,0.3-1.7c0.2-0.5,0.5-0.9,0.8-1.3c0.4-0.4,0.8-0.6,1.2-0.8c0.5-0.2,1-0.3,1.5-0.3c0.4,0,0.8,0.1,1.2,0.2
		c0.4,0.1,0.7,0.3,1.1,0.5c0.3,0.2,0.6,0.5,0.8,0.9c0.2,0.4,0.4,0.8,0.4,1.3h-1.2c-0.1-0.6-0.4-1.1-0.8-1.3
		c-0.4-0.3-0.9-0.4-1.4-0.4c-0.4,0-0.7,0.1-1,0.2c-0.3,0.1-0.6,0.3-0.8,0.6s-0.4,0.6-0.5,0.9c-0.1,0.4-0.2,0.8-0.2,1.3V26
		c0,1,0.2,1.7,0.7,2.2c0.5,0.5,1.1,0.8,1.9,0.8c0.3,0,0.6,0,0.8-0.1c0.3-0.1,0.5-0.2,0.7-0.4c0.2-0.2,0.4-0.4,0.5-0.6
		c0.1-0.2,0.2-0.5,0.3-0.8h1.2c0,0.4-0.2,0.8-0.3,1.2c-0.2,0.4-0.4,0.7-0.7,1c-0.3,0.3-0.7,0.5-1.1,0.6S214.9,30,214.4,30z"/>
	<path class="st2" d="M223.3,30c-0.6,0-1.1-0.1-1.6-0.3c-0.5-0.2-0.9-0.5-1.2-0.8c-0.3-0.4-0.6-0.8-0.8-1.3c-0.2-0.5-0.3-1-0.3-1.6
		v-0.1c0-0.6,0.1-1.1,0.3-1.6c0.2-0.5,0.5-0.9,0.8-1.3s0.8-0.6,1.2-0.8c0.5-0.2,1-0.3,1.6-0.3c0.6,0,1.1,0.1,1.6,0.3
		c0.5,0.2,0.9,0.5,1.2,0.8s0.6,0.8,0.8,1.3c0.2,0.5,0.3,1,0.3,1.6V26c0,0.6-0.1,1.2-0.3,1.7c-0.2,0.5-0.5,0.9-0.8,1.3
		c-0.4,0.4-0.8,0.6-1.2,0.8C224.3,29.9,223.8,30,223.3,30z M223.3,29c0.4,0,0.8-0.1,1.1-0.2c0.3-0.1,0.6-0.3,0.8-0.6
		c0.2-0.3,0.4-0.6,0.5-0.9c0.1-0.4,0.2-0.8,0.2-1.2v-0.1c0-0.5-0.1-0.9-0.2-1.2c-0.1-0.4-0.3-0.7-0.5-1c-0.2-0.3-0.5-0.5-0.8-0.6
		s-0.7-0.2-1.1-0.2s-0.8,0.1-1.1,0.2c-0.3,0.1-0.6,0.3-0.8,0.6c-0.2,0.3-0.4,0.6-0.5,0.9c-0.1,0.4-0.2,0.8-0.2,1.2V26
		c0,0.9,0.2,1.6,0.7,2.2C221.8,28.7,222.5,29,223.3,29z"/>
	<path class="st2" d="M232,30c-0.4,0-0.8-0.1-1.1-0.2s-0.6-0.3-0.9-0.5c-0.2-0.2-0.4-0.6-0.6-1c-0.1-0.4-0.2-0.9-0.2-1.4v-5h1.3v5
		c0,0.7,0.1,1.2,0.4,1.5c0.3,0.3,0.8,0.5,1.4,0.5c0.3,0,0.6,0,0.8-0.1s0.5-0.2,0.7-0.4s0.4-0.4,0.5-0.7c0.1-0.3,0.2-0.6,0.2-0.9
		v-4.8h1.3v8h-1.3v-1.3c-0.2,0.4-0.5,0.7-0.9,1C233.2,29.9,232.7,30,232,30z"/>
	<path class="st2" d="M241,30c-1,0-1.7-0.2-2.2-0.7c-0.5-0.5-0.8-1.1-0.9-1.9h1.2c0.1,0.5,0.2,0.9,0.5,1.1c0.3,0.3,0.7,0.4,1.4,0.4
		c0.6,0,1.1-0.1,1.3-0.3c0.3-0.2,0.4-0.5,0.4-0.9c0-0.4-0.2-0.7-0.5-0.9s-0.8-0.3-1.4-0.4c-0.5-0.1-1-0.2-1.3-0.3s-0.6-0.3-0.9-0.5
		c-0.2-0.2-0.4-0.4-0.5-0.7s-0.1-0.6-0.1-0.9c0-0.4,0.1-0.7,0.2-1c0.2-0.3,0.4-0.5,0.6-0.7c0.3-0.2,0.5-0.3,0.9-0.4s0.6-0.1,1-0.1
		c0.4,0,0.7,0,1,0.1c0.3,0.1,0.6,0.2,0.9,0.4c0.3,0.2,0.5,0.4,0.6,0.7c0.2,0.3,0.3,0.7,0.3,1.1h-1.2c-0.1-0.4-0.3-0.8-0.5-1
		c-0.3-0.2-0.6-0.3-1.1-0.3c-0.5,0-0.8,0.1-1.1,0.3c-0.3,0.2-0.4,0.5-0.4,0.8c0,0.2,0,0.3,0.1,0.5s0.2,0.2,0.3,0.3
		c0.1,0.1,0.3,0.2,0.6,0.3c0.2,0.1,0.5,0.1,0.9,0.2c0.4,0.1,0.8,0.2,1.1,0.3c0.3,0.1,0.6,0.2,0.9,0.4c0.2,0.2,0.4,0.4,0.6,0.7
		c0.1,0.3,0.2,0.6,0.2,1c0,0.7-0.2,1.3-0.7,1.8C242.7,29.8,242,30,241,30z"/>
	<path class="st2" d="M248.5,30c-0.7,0-1.3-0.2-1.6-0.6c-0.4-0.4-0.5-0.9-0.5-1.5V23h-1.1v-1.1h1.1v-1.8h1.3v1.8h1.9V23h-1.9v4.8
		c0,0.8,0.3,1.2,1,1.2c0.2,0,0.4,0,0.5,0c0.2,0,0.3-0.1,0.4-0.1v1.1c-0.1,0.1-0.3,0.1-0.4,0.1C249,30,248.7,30,248.5,30z"/>
	<path class="st2" d="M252.3,20.3c-0.2,0-0.4-0.1-0.6-0.2c-0.2-0.2-0.2-0.4-0.2-0.6s0.1-0.4,0.2-0.6c0.2-0.2,0.4-0.2,0.6-0.2
		c0.2,0,0.4,0.1,0.6,0.2s0.2,0.4,0.2,0.6s-0.1,0.4-0.2,0.6C252.7,20.2,252.5,20.3,252.3,20.3z M251.7,21.9h1.3v8h-1.3V21.9z"/>
	<path class="st2" d="M259,30c-0.6,0-1.1-0.1-1.5-0.3s-0.9-0.5-1.2-0.8s-0.6-0.8-0.8-1.3c-0.2-0.5-0.3-1.1-0.3-1.7v-0.1
		c0-0.6,0.1-1.2,0.3-1.7c0.2-0.5,0.5-0.9,0.8-1.3c0.4-0.4,0.8-0.6,1.2-0.8s1-0.3,1.5-0.3c0.4,0,0.8,0.1,1.2,0.2s0.7,0.3,1.1,0.5
		c0.3,0.2,0.6,0.5,0.8,0.9c0.2,0.4,0.3,0.8,0.4,1.3h-1.2c-0.1-0.6-0.4-1.1-0.8-1.3c-0.4-0.3-0.9-0.4-1.4-0.4c-0.4,0-0.7,0.1-1,0.2
		s-0.6,0.3-0.8,0.6s-0.4,0.6-0.5,0.9c-0.1,0.4-0.2,0.8-0.2,1.3V26c0,1,0.2,1.7,0.7,2.2c0.5,0.5,1.1,0.8,1.9,0.8c0.3,0,0.6,0,0.8-0.1
		c0.3-0.1,0.5-0.2,0.7-0.4c0.2-0.2,0.4-0.4,0.5-0.6c0.1-0.2,0.2-0.5,0.3-0.8h1.2c0,0.4-0.2,0.8-0.3,1.2c-0.2,0.4-0.4,0.7-0.7,1
		s-0.7,0.5-1.1,0.6S259.5,30,259,30z"/>
	<path class="st2" d="M264.6,21.9h1.3v1.3c0.2-0.4,0.5-0.7,0.9-1s1-0.4,1.6-0.4c0.4,0,0.8,0.1,1.1,0.2c0.3,0.1,0.6,0.3,0.9,0.6
		s0.4,0.6,0.6,1s0.2,0.9,0.2,1.5v4.9h-1.3v-5c0-0.7-0.2-1.2-0.5-1.5s-0.8-0.5-1.4-0.5c-0.3,0-0.6,0-0.8,0.1
		c-0.3,0.1-0.5,0.2-0.7,0.4s-0.4,0.4-0.5,0.7c-0.1,0.3-0.2,0.6-0.2,0.9v4.8h-1.3V21.9z"/>
	<path class="st2" d="M277.1,30c-0.6,0-1.1-0.1-1.6-0.3s-0.9-0.5-1.2-0.8c-0.3-0.4-0.6-0.8-0.8-1.3c-0.2-0.5-0.3-1.1-0.3-1.7v-0.1
		c0-0.6,0.1-1.2,0.3-1.7c0.2-0.5,0.4-0.9,0.8-1.3s0.7-0.6,1.2-0.8s1-0.3,1.5-0.3c0.5,0,0.9,0.1,1.3,0.2c0.4,0.1,0.8,0.4,1.1,0.7
		s0.6,0.7,0.8,1.2c0.2,0.5,0.3,1.1,0.3,1.8v0.4h-6c0,0.9,0.3,1.6,0.7,2.1c0.4,0.5,1.1,0.7,1.9,0.7c1.2,0,2-0.5,2.1-1.4h1.3
		c-0.1,0.8-0.5,1.4-1.1,1.8C278.8,29.8,278,30,277.1,30z M279.3,25.1c-0.1-0.8-0.3-1.4-0.7-1.8c-0.4-0.4-0.9-0.5-1.6-0.5
		c-0.6,0-1.2,0.2-1.6,0.6c-0.4,0.4-0.7,1-0.8,1.7H279.3z"/>
	<path class="st2" d="M285.2,30c-1,0-1.7-0.2-2.2-0.7c-0.5-0.5-0.8-1.1-0.9-1.9h1.2c0.1,0.5,0.2,0.9,0.5,1.1
		c0.3,0.3,0.7,0.4,1.4,0.4c0.6,0,1.1-0.1,1.3-0.3s0.4-0.5,0.4-0.9c0-0.4-0.2-0.7-0.5-0.9c-0.3-0.2-0.8-0.3-1.4-0.4
		c-0.5-0.1-1-0.2-1.3-0.3s-0.6-0.3-0.9-0.5c-0.2-0.2-0.4-0.4-0.5-0.7s-0.1-0.6-0.1-0.9c0-0.4,0.1-0.7,0.2-1c0.2-0.3,0.4-0.5,0.6-0.7
		c0.3-0.2,0.5-0.3,0.9-0.4c0.3-0.1,0.6-0.1,1-0.1c0.4,0,0.7,0,1,0.1c0.3,0.1,0.6,0.2,0.9,0.4c0.3,0.2,0.5,0.4,0.6,0.7
		c0.2,0.3,0.3,0.7,0.3,1.1h-1.2c-0.1-0.4-0.3-0.8-0.5-1c-0.3-0.2-0.6-0.3-1.2-0.3c-0.5,0-0.8,0.1-1.1,0.3s-0.4,0.5-0.4,0.8
		c0,0.2,0,0.3,0.1,0.5c0.1,0.1,0.2,0.2,0.3,0.3c0.1,0.1,0.3,0.2,0.6,0.3c0.2,0.1,0.5,0.1,0.9,0.2c0.4,0.1,0.8,0.2,1.1,0.3
		c0.3,0.1,0.6,0.2,0.9,0.4c0.2,0.2,0.4,0.4,0.6,0.7c0.1,0.3,0.2,0.6,0.2,1c0,0.7-0.2,1.3-0.7,1.8C286.9,29.8,286.2,30,285.2,30z"/>
	<path class="st2" d="M292.7,30c-1,0-1.7-0.2-2.2-0.7c-0.5-0.5-0.8-1.1-0.9-1.9h1.2c0.1,0.5,0.2,0.9,0.5,1.1
		c0.3,0.3,0.7,0.4,1.4,0.4c0.6,0,1.1-0.1,1.3-0.3c0.3-0.2,0.4-0.5,0.4-0.9c0-0.4-0.2-0.7-0.5-0.9c-0.3-0.2-0.8-0.3-1.4-0.4
		c-0.5-0.1-1-0.2-1.3-0.3s-0.6-0.3-0.9-0.5s-0.4-0.4-0.5-0.7s-0.1-0.6-0.1-0.9c0-0.4,0.1-0.7,0.2-1c0.2-0.3,0.4-0.5,0.6-0.7
		c0.3-0.2,0.5-0.3,0.9-0.4c0.3-0.1,0.6-0.1,1-0.1c0.4,0,0.7,0,1,0.1c0.3,0.1,0.6,0.2,0.9,0.4c0.3,0.2,0.5,0.4,0.6,0.7
		c0.2,0.3,0.3,0.7,0.3,1.1h-1.2c-0.1-0.4-0.3-0.8-0.5-1c-0.3-0.2-0.6-0.3-1.1-0.3c-0.5,0-0.8,0.1-1.1,0.3c-0.3,0.2-0.4,0.5-0.4,0.8
		c0,0.2,0,0.3,0.1,0.5c0.1,0.1,0.2,0.2,0.3,0.3c0.1,0.1,0.3,0.2,0.6,0.3c0.2,0.1,0.5,0.1,0.9,0.2c0.4,0.1,0.8,0.2,1.1,0.3
		c0.3,0.1,0.6,0.2,0.9,0.4c0.2,0.2,0.4,0.4,0.6,0.7c0.1,0.3,0.2,0.6,0.2,1c0,0.7-0.2,1.3-0.7,1.8C294.4,29.8,293.7,30,292.7,30z"/>
</g>
<g>
	<path class="st2" d="M350.6,106.4h2.9c0.9,0,1.7,0.1,2.4,0.4c0.7,0.3,1.3,0.6,1.7,1.1s0.8,1,1,1.7s0.3,1.4,0.3,2.1v0.1
		c0,0.8-0.1,1.5-0.3,2.1c-0.2,0.7-0.6,1.2-1,1.7c-0.5,0.5-1,0.9-1.7,1.1c-0.7,0.3-1.5,0.4-2.5,0.4h-2.8V106.4z M353.4,116.3
		c0.7,0,1.3-0.1,1.8-0.3s1-0.5,1.3-0.9c0.4-0.4,0.6-0.8,0.8-1.4c0.2-0.5,0.3-1.1,0.3-1.8v-0.1c0-0.6-0.1-1.2-0.2-1.7
		c-0.2-0.5-0.4-1-0.7-1.4c-0.3-0.4-0.8-0.7-1.3-0.9c-0.5-0.2-1.2-0.3-1.9-0.3H352v8.8H353.4z"/>
	<path class="st2" d="M363.3,117.5c-0.4,0-0.7,0-1-0.1c-0.3-0.1-0.6-0.2-0.8-0.4c-0.2-0.2-0.4-0.4-0.6-0.7c-0.1-0.3-0.2-0.6-0.2-1.1
		c0-0.5,0.1-0.8,0.3-1.2c0.2-0.3,0.5-0.6,0.9-0.8c0.4-0.2,0.8-0.3,1.3-0.4c0.5-0.1,1-0.1,1.5-0.1h1.1v-0.6c0-0.6-0.1-1.1-0.4-1.4
		c-0.3-0.3-0.7-0.4-1.3-0.4c-1.1,0-1.7,0.5-1.8,1.4H361c0-0.5,0.2-0.8,0.3-1.2c0.2-0.3,0.4-0.6,0.7-0.8c0.3-0.2,0.6-0.3,1-0.4
		c0.4-0.1,0.7-0.1,1.1-0.1c0.4,0,0.7,0,1.1,0.1c0.4,0.1,0.7,0.2,0.9,0.5c0.3,0.2,0.5,0.5,0.6,0.9c0.2,0.4,0.2,0.8,0.2,1.4v5.3h-1.3
		v-1c-0.3,0.4-0.6,0.7-1,0.9S363.9,117.5,363.3,117.5z M363.4,116.5c0.3,0,0.6,0,0.9-0.1c0.3-0.1,0.5-0.2,0.7-0.4
		c0.2-0.2,0.4-0.4,0.5-0.6c0.1-0.2,0.2-0.5,0.2-0.8v-1h-1.1c-0.4,0-0.8,0-1.1,0.1s-0.6,0.1-0.9,0.3c-0.2,0.1-0.4,0.3-0.6,0.5
		s-0.2,0.4-0.2,0.7c0,0.4,0.1,0.7,0.3,1C362.5,116.3,362.9,116.5,363.4,116.5z"/>
	<path class="st2" d="M369.7,109.4h1.3v1.3c0.2-0.4,0.5-0.7,0.9-1s1-0.4,1.6-0.4c0.4,0,0.8,0.1,1.1,0.2c0.3,0.1,0.6,0.3,0.9,0.6
		c0.2,0.3,0.4,0.6,0.6,1s0.2,0.9,0.2,1.5v4.9h-1.3v-5c0-0.7-0.2-1.2-0.5-1.5s-0.8-0.5-1.4-0.5c-0.3,0-0.6,0-0.8,0.1
		c-0.3,0.1-0.5,0.2-0.7,0.4s-0.4,0.4-0.5,0.7c-0.1,0.3-0.2,0.6-0.2,0.9v4.8h-1.3V109.4z"/>
	<path class="st2" d="M382.3,117.5c-0.6,0-1.1-0.1-1.5-0.3s-0.9-0.5-1.2-0.8c-0.4-0.4-0.6-0.8-0.8-1.3c-0.2-0.5-0.3-1.1-0.3-1.7
		v-0.1c0-0.6,0.1-1.2,0.3-1.7c0.2-0.5,0.5-0.9,0.8-1.3c0.3-0.4,0.8-0.6,1.2-0.8c0.5-0.2,1-0.3,1.5-0.3c0.4,0,0.8,0.1,1.2,0.2
		c0.4,0.1,0.7,0.3,1.1,0.5s0.6,0.5,0.8,0.9s0.4,0.8,0.4,1.3h-1.2c-0.1-0.6-0.4-1.1-0.8-1.3c-0.4-0.3-0.9-0.4-1.4-0.4
		c-0.4,0-0.7,0.1-1,0.2c-0.3,0.1-0.6,0.3-0.8,0.6s-0.4,0.6-0.5,0.9c-0.1,0.4-0.2,0.8-0.2,1.3v0.1c0,1,0.2,1.7,0.7,2.2
		c0.5,0.5,1.1,0.8,1.9,0.8c0.3,0,0.6,0,0.8-0.1c0.3-0.1,0.5-0.2,0.7-0.4c0.2-0.2,0.4-0.4,0.5-0.6c0.1-0.2,0.2-0.5,0.3-0.8h1.2
		c0,0.4-0.2,0.8-0.3,1.2c-0.2,0.4-0.4,0.7-0.7,1c-0.3,0.3-0.7,0.5-1.1,0.6S382.8,117.5,382.3,117.5z"/>
	<path class="st2" d="M391.1,117.5c-0.6,0-1.1-0.1-1.6-0.3c-0.5-0.2-0.9-0.5-1.2-0.8c-0.3-0.4-0.6-0.8-0.8-1.3
		c-0.2-0.5-0.3-1.1-0.3-1.7v-0.1c0-0.6,0.1-1.2,0.3-1.7c0.2-0.5,0.4-0.9,0.8-1.3c0.3-0.4,0.7-0.6,1.2-0.8s1-0.3,1.5-0.3
		c0.5,0,0.9,0.1,1.3,0.2c0.4,0.1,0.8,0.4,1.2,0.7c0.3,0.3,0.6,0.7,0.8,1.2c0.2,0.5,0.3,1.1,0.3,1.8v0.4h-6c0,0.9,0.3,1.6,0.7,2.1
		c0.4,0.5,1.1,0.7,1.9,0.7c1.2,0,2-0.5,2.1-1.4h1.3c-0.1,0.8-0.5,1.4-1.1,1.8C392.8,117.3,392,117.5,391.1,117.5z M393.3,112.6
		c-0.1-0.8-0.3-1.4-0.7-1.8c-0.4-0.4-0.9-0.5-1.6-0.5c-0.7,0-1.2,0.2-1.6,0.6c-0.4,0.4-0.7,1-0.8,1.7H393.3z"/>
	<path class="st2" d="M398.8,117.5c-0.4,0-0.7,0-1-0.1s-0.6-0.2-0.8-0.4c-0.2-0.2-0.4-0.4-0.6-0.7c-0.1-0.3-0.2-0.6-0.2-1.1
		c0-0.5,0.1-0.8,0.3-1.2c0.2-0.3,0.5-0.6,0.9-0.8c0.4-0.2,0.8-0.3,1.3-0.4c0.5-0.1,1-0.1,1.5-0.1h1.1v-0.6c0-0.6-0.1-1.1-0.4-1.4
		c-0.3-0.3-0.7-0.4-1.3-0.4c-1.1,0-1.7,0.5-1.8,1.4h-1.3c0-0.5,0.2-0.8,0.3-1.2c0.2-0.3,0.4-0.6,0.7-0.8c0.3-0.2,0.6-0.3,1-0.4
		c0.4-0.1,0.7-0.1,1.1-0.1c0.4,0,0.7,0,1.1,0.1c0.4,0.1,0.7,0.2,0.9,0.5c0.3,0.2,0.5,0.5,0.6,0.9s0.2,0.8,0.2,1.4v5.3h-1.3v-1
		c-0.3,0.4-0.6,0.7-1,0.9C399.9,117.4,399.4,117.5,398.8,117.5z M398.9,116.5c0.3,0,0.6,0,0.9-0.1c0.3-0.1,0.5-0.2,0.7-0.4
		c0.2-0.2,0.4-0.4,0.5-0.6c0.1-0.2,0.2-0.5,0.2-0.8v-1h-1.1c-0.4,0-0.8,0-1.1,0.1s-0.6,0.1-0.9,0.3c-0.2,0.1-0.4,0.3-0.6,0.5
		c-0.1,0.2-0.2,0.4-0.2,0.7c0,0.4,0.1,0.7,0.3,1C398,116.3,398.3,116.5,398.9,116.5z"/>
	<path class="st2" d="M409.2,117.5c-0.6,0-1.2-0.1-1.7-0.4s-0.8-0.6-1-1v1.3h-1.3v-11.8h1.3v5.1c0.1-0.2,0.3-0.4,0.4-0.6
		s0.4-0.3,0.6-0.5c0.2-0.1,0.5-0.2,0.8-0.3c0.3-0.1,0.6-0.1,0.9-0.1c0.5,0,1,0.1,1.4,0.3c0.4,0.2,0.8,0.4,1.2,0.8
		c0.3,0.3,0.6,0.8,0.8,1.3c0.2,0.5,0.3,1.1,0.3,1.7v0.1c0,0.6-0.1,1.2-0.3,1.7s-0.4,0.9-0.7,1.3c-0.3,0.4-0.7,0.6-1.1,0.8
		C410.2,117.4,409.7,117.5,409.2,117.5z M409,116.4c0.8,0,1.4-0.3,1.8-0.8c0.4-0.5,0.6-1.2,0.6-2.2v-0.1c0-0.5-0.1-0.9-0.2-1.3
		s-0.3-0.7-0.5-0.9c-0.2-0.2-0.5-0.4-0.8-0.6c-0.3-0.1-0.6-0.2-1-0.2c-0.4,0-0.7,0.1-1,0.2s-0.6,0.3-0.8,0.6
		c-0.2,0.2-0.4,0.6-0.5,0.9c-0.1,0.4-0.2,0.8-0.2,1.3v0.1c0,0.5,0.1,0.9,0.2,1.3c0.1,0.4,0.3,0.7,0.5,0.9c0.2,0.2,0.5,0.4,0.8,0.6
		C408.3,116.3,408.7,116.4,409,116.4z"/>
	<path class="st2" d="M415.6,107.7c-0.2,0-0.4-0.1-0.6-0.2c-0.2-0.2-0.2-0.4-0.2-0.6s0.1-0.4,0.2-0.6s0.4-0.2,0.6-0.2
		c0.2,0,0.4,0.1,0.6,0.2s0.2,0.4,0.2,0.6s-0.1,0.4-0.2,0.6C416,107.6,415.8,107.7,415.6,107.7z M415,109.4h1.3v8H415V109.4z"/>
	<path class="st2" d="M419,105.5h1.3v11.8H419V105.5z"/>
	<path class="st2" d="M423.7,107.7c-0.2,0-0.4-0.1-0.6-0.2c-0.2-0.2-0.2-0.4-0.2-0.6s0.1-0.4,0.2-0.6s0.4-0.2,0.6-0.2
		c0.2,0,0.4,0.1,0.6,0.2s0.2,0.4,0.2,0.6s-0.1,0.4-0.2,0.6C424.2,107.6,424,107.7,423.7,107.7z M423.1,109.4h1.3v8h-1.3V109.4z"/>
	<path class="st2" d="M429.6,117.4c-0.7,0-1.3-0.2-1.6-0.6c-0.3-0.4-0.5-0.9-0.5-1.5v-4.9h-1.1v-1.1h1.1v-1.8h1.3v1.8h1.9v1.1h-1.9
		v4.8c0,0.8,0.3,1.2,1,1.2c0.2,0,0.4,0,0.5,0c0.2,0,0.3-0.1,0.4-0.1v1.1c-0.1,0.1-0.3,0.1-0.4,0.1
		C430,117.4,429.8,117.4,429.6,117.4z"/>
	<path class="st2" d="M435,116.5l-3.1-7.1h1.4l2.4,5.7l2.2-5.7h1.3l-4.4,10.7h-1.3L435,116.5z"/>
</g>
<g>
	<path class="st2" d="M406.1,268.6h6.4v1.1h-5v3.7h4.1v1.1h-4.1v4h5.3v1.1h-6.6V268.6z"/>
	<path class="st2" d="M414.9,271.5h1.3v1.3c0.2-0.4,0.5-0.7,0.9-1c0.4-0.3,1-0.4,1.6-0.4c0.4,0,0.8,0.1,1.1,0.2s0.6,0.3,0.9,0.6
		c0.2,0.3,0.4,0.6,0.6,1c0.1,0.4,0.2,0.9,0.2,1.5v4.9h-1.3v-5c0-0.7-0.2-1.2-0.5-1.5c-0.3-0.3-0.8-0.5-1.4-0.5c-0.3,0-0.6,0-0.8,0.1
		c-0.3,0.1-0.5,0.2-0.7,0.4s-0.4,0.4-0.5,0.7s-0.2,0.6-0.2,0.9v4.8h-1.3V271.5z"/>
	<path class="st2" d="M427.4,279.6c-0.6,0-1.1-0.1-1.6-0.3c-0.5-0.2-0.9-0.5-1.2-0.8c-0.3-0.4-0.6-0.8-0.8-1.3
		c-0.2-0.5-0.3-1.1-0.3-1.7v-0.1c0-0.6,0.1-1.2,0.3-1.7c0.2-0.5,0.4-0.9,0.8-1.3c0.3-0.4,0.7-0.6,1.2-0.8c0.5-0.2,1-0.3,1.5-0.3
		c0.5,0,0.9,0.1,1.3,0.2c0.4,0.1,0.8,0.4,1.1,0.7c0.3,0.3,0.6,0.7,0.8,1.2c0.2,0.5,0.3,1.1,0.3,1.8v0.4h-6c0,0.9,0.3,1.6,0.7,2.1
		c0.4,0.5,1.1,0.7,1.9,0.7c1.2,0,2-0.5,2.1-1.4h1.3c-0.1,0.8-0.5,1.4-1.1,1.8C429.1,279.4,428.3,279.6,427.4,279.6z M429.6,274.7
		c-0.1-0.8-0.3-1.4-0.7-1.8c-0.4-0.4-0.9-0.5-1.6-0.5c-0.7,0-1.2,0.2-1.6,0.6c-0.4,0.4-0.7,1-0.8,1.7H429.6z"/>
	<path class="st2" d="M433,271.5h1.3v1.4c0.1-0.2,0.3-0.4,0.4-0.6c0.2-0.2,0.3-0.3,0.5-0.5s0.4-0.2,0.7-0.3c0.3-0.1,0.6-0.1,0.9-0.1
		v1.2c-0.4,0-0.8,0.1-1.1,0.2c-0.3,0.1-0.6,0.2-0.8,0.4s-0.4,0.4-0.5,0.8c-0.1,0.3-0.2,0.7-0.2,1.2v4.4H433V271.5z"/>
	<path class="st2" d="M441.8,282.4c-0.6,0-1.1-0.1-1.5-0.2c-0.4-0.1-0.8-0.3-1.1-0.5s-0.5-0.5-0.7-0.8c-0.2-0.3-0.3-0.6-0.3-1h1.3
		c0.2,0.9,1,1.4,2.3,1.4c0.8,0,1.4-0.2,1.9-0.6s0.7-1,0.7-1.9v-1.2c-0.1,0.2-0.3,0.4-0.4,0.6c-0.2,0.2-0.4,0.3-0.6,0.5
		c-0.2,0.1-0.5,0.2-0.8,0.3c-0.3,0.1-0.6,0.1-0.8,0.1c-0.5,0-1-0.1-1.4-0.3s-0.8-0.4-1.2-0.8c-0.3-0.3-0.6-0.7-0.8-1.2
		c-0.2-0.5-0.3-1-0.3-1.5v-0.1c0-0.5,0.1-1,0.3-1.5c0.2-0.5,0.4-0.9,0.8-1.3c0.3-0.4,0.7-0.6,1.2-0.9s1-0.3,1.5-0.3
		c0.7,0,1.2,0.1,1.6,0.4s0.7,0.6,1,1v-1.3h1.3v7.4c0,0.6-0.1,1.1-0.3,1.5c-0.2,0.4-0.5,0.8-0.8,1.1c-0.3,0.3-0.7,0.5-1.2,0.6
		C442.9,282.3,442.4,282.4,441.8,282.4z M441.8,278.2c0.4,0,0.7-0.1,1-0.2c0.3-0.1,0.6-0.3,0.8-0.5c0.2-0.2,0.4-0.5,0.5-0.9
		c0.1-0.3,0.2-0.7,0.2-1.2v-0.1c0-0.9-0.2-1.6-0.7-2.1s-1.1-0.7-1.9-0.7c-0.4,0-0.8,0.1-1.1,0.2c-0.3,0.1-0.6,0.3-0.8,0.6
		c-0.2,0.2-0.4,0.5-0.5,0.9c-0.1,0.3-0.2,0.7-0.2,1.1v0.1c0,0.4,0.1,0.8,0.2,1.2c0.1,0.3,0.3,0.6,0.5,0.9c0.2,0.2,0.5,0.4,0.8,0.5
		C441.2,278.1,441.5,278.2,441.8,278.2z"/>
	<path class="st2" d="M450.6,278.7l-3.1-7.1h1.4l2.4,5.7l2.2-5.7h1.3l-4.4,10.7h-1.3L450.6,278.7z"/>
</g>
<g>
	<path class="st2" d="M265.1,437.3h1.3v10.9h-1.3V437.3z"/>
	<path class="st2" d="M269.3,440.2h1.3v1.3c0.2-0.4,0.5-0.7,0.9-1c0.4-0.3,1-0.4,1.6-0.4c0.4,0,0.8,0.1,1.1,0.2
		c0.3,0.1,0.6,0.3,0.9,0.6c0.2,0.3,0.4,0.6,0.6,1c0.1,0.4,0.2,0.9,0.2,1.5v4.9h-1.3v-5c0-0.7-0.2-1.2-0.5-1.5
		c-0.3-0.3-0.8-0.5-1.4-0.5c-0.3,0-0.6,0-0.8,0.1c-0.3,0.1-0.5,0.2-0.7,0.4s-0.4,0.4-0.5,0.7s-0.2,0.6-0.2,0.9v4.8h-1.3V440.2z"/>
	<path class="st2" d="M281.1,448.3c-1,0-1.7-0.2-2.2-0.7c-0.5-0.5-0.8-1.1-0.9-1.9h1.2c0.1,0.5,0.2,0.9,0.5,1.1
		c0.3,0.3,0.7,0.4,1.4,0.4c0.6,0,1.1-0.1,1.3-0.3c0.3-0.2,0.4-0.5,0.4-0.9c0-0.4-0.2-0.7-0.5-0.9s-0.8-0.3-1.4-0.4
		c-0.5-0.1-1-0.2-1.3-0.3s-0.6-0.3-0.9-0.5s-0.4-0.4-0.5-0.7s-0.1-0.6-0.1-0.9c0-0.4,0.1-0.7,0.2-1c0.2-0.3,0.4-0.5,0.6-0.7
		c0.3-0.2,0.5-0.3,0.9-0.4c0.3-0.1,0.6-0.1,1-0.1c0.4,0,0.7,0,1,0.1c0.3,0.1,0.6,0.2,0.9,0.4c0.3,0.2,0.5,0.4,0.6,0.7
		c0.2,0.3,0.3,0.7,0.3,1.1h-1.2c-0.1-0.4-0.3-0.8-0.5-1c-0.3-0.2-0.6-0.3-1.2-0.3c-0.5,0-0.8,0.1-1.1,0.3s-0.4,0.5-0.4,0.8
		c0,0.2,0,0.3,0.1,0.5s0.2,0.2,0.3,0.3c0.1,0.1,0.3,0.2,0.6,0.3c0.2,0.1,0.5,0.1,0.9,0.2c0.4,0.1,0.8,0.2,1.1,0.3
		c0.3,0.1,0.6,0.2,0.9,0.4c0.2,0.2,0.4,0.4,0.6,0.7c0.1,0.3,0.2,0.6,0.2,1c0,0.7-0.2,1.3-0.7,1.8
		C282.8,448.1,282.1,448.3,281.1,448.3z"/>
	<path class="st2" d="M288.5,448.3c-0.7,0-1.3-0.2-1.6-0.6c-0.3-0.4-0.5-0.9-0.5-1.5v-4.9h-1.1v-1.1h1.1v-1.8h1.3v1.8h1.9v1.1h-1.9
		v4.8c0,0.8,0.3,1.2,1,1.2c0.2,0,0.4,0,0.5,0c0.2,0,0.3-0.1,0.4-0.1v1.1c-0.1,0.1-0.3,0.1-0.4,0.1
		C289,448.3,288.8,448.3,288.5,448.3z"/>
	<path class="st2" d="M291.7,440.2h1.3v1.4c0.1-0.2,0.3-0.4,0.4-0.6c0.2-0.2,0.3-0.3,0.5-0.5c0.2-0.1,0.4-0.2,0.7-0.3
		c0.3-0.1,0.6-0.1,0.9-0.1v1.2c-0.4,0-0.8,0.1-1.1,0.2s-0.6,0.2-0.8,0.4c-0.2,0.2-0.4,0.4-0.5,0.8c-0.1,0.3-0.2,0.7-0.2,1.2v4.4
		h-1.3V440.2z"/>
	<path class="st2" d="M300.3,448.3c-0.4,0-0.8-0.1-1.1-0.2c-0.3-0.1-0.6-0.3-0.9-0.5c-0.2-0.2-0.4-0.6-0.6-1
		c-0.1-0.4-0.2-0.9-0.2-1.4v-5h1.3v5c0,0.7,0.1,1.2,0.4,1.5c0.3,0.3,0.8,0.5,1.4,0.5c0.3,0,0.6,0,0.8-0.1c0.3-0.1,0.5-0.2,0.7-0.4
		s0.4-0.4,0.5-0.7s0.2-0.6,0.2-0.9v-4.8h1.3v8h-1.3v-1.3c-0.2,0.4-0.5,0.7-0.9,1C301.5,448.2,300.9,448.3,300.3,448.3z"/>
	<path class="st2" d="M306.8,440.2h1.3v1.2c0.2-0.4,0.5-0.7,0.9-1c0.4-0.3,0.9-0.4,1.5-0.4c0.5,0,1,0.1,1.4,0.3
		c0.4,0.2,0.7,0.6,0.9,1.1c0.1-0.3,0.3-0.5,0.5-0.7c0.2-0.2,0.4-0.3,0.7-0.5c0.2-0.1,0.5-0.2,0.8-0.3c0.3-0.1,0.5-0.1,0.8-0.1
		c0.4,0,0.7,0.1,1,0.2c0.3,0.1,0.6,0.3,0.9,0.5c0.2,0.3,0.4,0.6,0.6,1c0.1,0.4,0.2,0.9,0.2,1.5v4.9H317v-5c0-0.7-0.1-1.2-0.4-1.5
		c-0.3-0.3-0.7-0.5-1.3-0.5c-0.3,0-0.5,0-0.8,0.1c-0.2,0.1-0.5,0.2-0.7,0.4s-0.4,0.4-0.5,0.7c-0.1,0.3-0.2,0.6-0.2,0.9v4.9h-1.3v-5
		c0-0.7-0.1-1.2-0.4-1.5c-0.3-0.3-0.7-0.5-1.3-0.5c-0.3,0-0.5,0-0.8,0.1c-0.2,0.1-0.5,0.2-0.7,0.4s-0.4,0.4-0.5,0.7
		c-0.1,0.3-0.2,0.6-0.2,0.9v4.9h-1.3V440.2z"/>
	<path class="st2" d="M324.1,448.3c-0.6,0-1.1-0.1-1.6-0.3c-0.5-0.2-0.9-0.5-1.2-0.8c-0.3-0.4-0.6-0.8-0.8-1.3
		c-0.2-0.5-0.3-1.1-0.3-1.7v-0.1c0-0.6,0.1-1.2,0.3-1.7c0.2-0.5,0.4-0.9,0.8-1.3s0.7-0.6,1.2-0.8s1-0.3,1.5-0.3
		c0.5,0,0.9,0.1,1.3,0.2c0.4,0.1,0.8,0.4,1.1,0.7s0.6,0.7,0.8,1.2c0.2,0.5,0.3,1.1,0.3,1.8v0.4h-6c0,0.9,0.3,1.6,0.7,2.1
		s1.1,0.7,1.9,0.7c1.2,0,2-0.5,2.1-1.4h1.3c-0.1,0.8-0.5,1.4-1.1,1.8C325.8,448.1,325,448.3,324.1,448.3z M326.3,443.4
		c-0.1-0.8-0.3-1.4-0.7-1.8c-0.4-0.4-0.9-0.5-1.6-0.5c-0.7,0-1.2,0.2-1.6,0.6s-0.7,1-0.8,1.7H326.3z"/>
	<path class="st2" d="M329.7,440.2h1.3v1.3c0.2-0.4,0.5-0.7,0.9-1c0.4-0.3,1-0.4,1.6-0.4c0.4,0,0.8,0.1,1.1,0.2
		c0.3,0.1,0.6,0.3,0.9,0.6c0.2,0.3,0.4,0.6,0.6,1c0.1,0.4,0.2,0.9,0.2,1.5v4.9h-1.3v-5c0-0.7-0.2-1.2-0.5-1.5
		c-0.3-0.3-0.8-0.5-1.4-0.5c-0.3,0-0.6,0-0.8,0.1c-0.3,0.1-0.5,0.2-0.7,0.4s-0.4,0.4-0.5,0.7s-0.2,0.6-0.2,0.9v4.8h-1.3V440.2z"/>
	<path class="st2" d="M341.4,448.3c-0.7,0-1.3-0.2-1.6-0.6c-0.3-0.4-0.5-0.9-0.5-1.5v-4.9h-1.1v-1.1h1.1v-1.8h1.3v1.8h1.9v1.1h-1.9
		v4.8c0,0.8,0.3,1.2,1,1.2c0.2,0,0.4,0,0.5,0c0.2,0,0.3-0.1,0.4-0.1v1.1c-0.1,0.1-0.3,0.1-0.4,0.1
		C341.9,448.3,341.7,448.3,341.4,448.3z"/>
	<path class="st2" d="M346.7,448.3c-0.4,0-0.7,0-1-0.1c-0.3-0.1-0.6-0.2-0.8-0.4c-0.2-0.2-0.4-0.4-0.6-0.7c-0.1-0.3-0.2-0.6-0.2-1.1
		c0-0.5,0.1-0.8,0.3-1.2c0.2-0.3,0.5-0.6,0.9-0.8c0.4-0.2,0.8-0.3,1.3-0.4c0.5-0.1,1-0.1,1.5-0.1h1.1v-0.6c0-0.6-0.1-1.1-0.4-1.4
		c-0.3-0.3-0.7-0.4-1.3-0.4c-1.1,0-1.7,0.5-1.8,1.4h-1.3c0-0.5,0.2-0.8,0.3-1.2c0.2-0.3,0.4-0.6,0.7-0.8c0.3-0.2,0.6-0.3,1-0.4
		c0.4-0.1,0.7-0.1,1.1-0.1c0.4,0,0.7,0,1.1,0.1c0.4,0.1,0.7,0.2,0.9,0.5c0.3,0.2,0.5,0.5,0.6,0.9s0.2,0.8,0.2,1.4v5.3h-1.3v-1
		c-0.3,0.4-0.6,0.7-1,0.9S347.3,448.3,346.7,448.3z M346.8,447.3c0.3,0,0.6,0,0.9-0.1c0.3-0.1,0.5-0.2,0.7-0.4
		c0.2-0.2,0.4-0.4,0.5-0.6c0.1-0.2,0.2-0.5,0.2-0.8v-1h-1.1c-0.4,0-0.8,0-1.1,0.1c-0.3,0.1-0.6,0.1-0.9,0.3s-0.4,0.3-0.6,0.5
		c-0.1,0.2-0.2,0.4-0.2,0.7c0,0.4,0.1,0.7,0.3,1C345.8,447.2,346.2,447.3,346.8,447.3z"/>
	<path class="st2" d="M353.1,436.4h1.3v11.8h-1.3V436.4z"/>
	<path class="st2" d="M357.2,440.2h1.3v1.3c0.2-0.4,0.5-0.7,0.9-1c0.4-0.3,1-0.4,1.6-0.4c0.4,0,0.8,0.1,1.1,0.2
		c0.3,0.1,0.6,0.3,0.9,0.6c0.2,0.3,0.4,0.6,0.6,1c0.1,0.4,0.2,0.9,0.2,1.5v4.9h-1.3v-5c0-0.7-0.2-1.2-0.5-1.5
		c-0.3-0.3-0.8-0.5-1.4-0.5c-0.3,0-0.6,0-0.8,0.1c-0.3,0.1-0.5,0.2-0.7,0.4s-0.4,0.4-0.5,0.7s-0.2,0.6-0.2,0.9v4.8h-1.3V440.2z"/>
	<path class="st2" d="M369.7,448.3c-0.6,0-1.1-0.1-1.6-0.3s-0.9-0.5-1.2-0.8c-0.3-0.4-0.6-0.8-0.8-1.3c-0.2-0.5-0.3-1.1-0.3-1.7
		v-0.1c0-0.6,0.1-1.2,0.3-1.7c0.2-0.5,0.4-0.9,0.8-1.3c0.3-0.4,0.7-0.6,1.2-0.8s1-0.3,1.5-0.3c0.5,0,0.9,0.1,1.3,0.2
		c0.4,0.1,0.8,0.4,1.2,0.7c0.3,0.3,0.6,0.7,0.8,1.2c0.2,0.5,0.3,1.1,0.3,1.8v0.4h-6c0,0.9,0.3,1.6,0.7,2.1c0.4,0.5,1.1,0.7,1.9,0.7
		c1.2,0,2-0.5,2.1-1.4h1.3c-0.1,0.8-0.5,1.4-1.1,1.8C371.4,448.1,370.6,448.3,369.7,448.3z M371.9,443.4c-0.1-0.8-0.3-1.4-0.7-1.8
		c-0.4-0.4-0.9-0.5-1.6-0.5c-0.6,0-1.2,0.2-1.6,0.6c-0.4,0.4-0.7,1-0.8,1.7H371.9z"/>
	<path class="st2" d="M377.8,448.3c-1,0-1.7-0.2-2.2-0.7c-0.5-0.5-0.8-1.1-0.9-1.9h1.2c0.1,0.5,0.2,0.9,0.5,1.1
		c0.3,0.3,0.7,0.4,1.4,0.4c0.6,0,1.1-0.1,1.3-0.3s0.4-0.5,0.4-0.9c0-0.4-0.2-0.7-0.5-0.9s-0.8-0.3-1.4-0.4c-0.5-0.1-1-0.2-1.3-0.3
		s-0.6-0.3-0.9-0.5c-0.2-0.2-0.4-0.4-0.5-0.7s-0.1-0.6-0.1-0.9c0-0.4,0.1-0.7,0.2-1c0.2-0.3,0.4-0.5,0.6-0.7
		c0.3-0.2,0.5-0.3,0.9-0.4c0.3-0.1,0.6-0.1,1-0.1c0.4,0,0.7,0,1,0.1c0.3,0.1,0.6,0.2,0.9,0.4c0.3,0.2,0.5,0.4,0.6,0.7
		c0.2,0.3,0.3,0.7,0.3,1.1h-1.2c-0.1-0.4-0.3-0.8-0.5-1c-0.3-0.2-0.6-0.3-1.1-0.3c-0.5,0-0.8,0.1-1.1,0.3c-0.3,0.2-0.4,0.5-0.4,0.8
		c0,0.2,0,0.3,0.1,0.5s0.2,0.2,0.3,0.3c0.1,0.1,0.3,0.2,0.6,0.3c0.2,0.1,0.5,0.1,0.9,0.2c0.4,0.1,0.8,0.2,1.1,0.3
		c0.3,0.1,0.6,0.2,0.9,0.4c0.2,0.2,0.4,0.4,0.6,0.7c0.1,0.3,0.2,0.6,0.2,1c0,0.7-0.2,1.3-0.7,1.8
		C379.5,448.1,378.8,448.3,377.8,448.3z"/>
	<path class="st2" d="M385.3,448.3c-1,0-1.7-0.2-2.2-0.7c-0.5-0.5-0.8-1.1-0.9-1.9h1.2c0.1,0.5,0.2,0.9,0.5,1.1
		c0.3,0.3,0.7,0.4,1.4,0.4c0.6,0,1.1-0.1,1.3-0.3c0.3-0.2,0.4-0.5,0.4-0.9c0-0.4-0.2-0.7-0.5-0.9s-0.8-0.3-1.4-0.4
		c-0.5-0.1-1-0.2-1.3-0.3s-0.6-0.3-0.9-0.5s-0.4-0.4-0.5-0.7s-0.1-0.6-0.1-0.9c0-0.4,0.1-0.7,0.2-1c0.2-0.3,0.4-0.5,0.6-0.7
		c0.3-0.2,0.5-0.3,0.9-0.4c0.3-0.1,0.6-0.1,1-0.1c0.4,0,0.7,0,1,0.1c0.3,0.1,0.6,0.2,0.9,0.4c0.3,0.2,0.5,0.4,0.6,0.7
		c0.2,0.3,0.3,0.7,0.3,1.1h-1.2c-0.1-0.4-0.3-0.8-0.5-1c-0.3-0.2-0.6-0.3-1.2-0.3c-0.5,0-0.8,0.1-1.1,0.3s-0.4,0.5-0.4,0.8
		c0,0.2,0,0.3,0.1,0.5s0.2,0.2,0.3,0.3c0.1,0.1,0.3,0.2,0.6,0.3c0.2,0.1,0.5,0.1,0.9,0.2c0.4,0.1,0.8,0.2,1.1,0.3
		c0.3,0.1,0.6,0.2,0.9,0.4c0.2,0.2,0.4,0.4,0.6,0.7c0.1,0.3,0.2,0.6,0.2,1c0,0.7-0.2,1.3-0.7,1.8C387,448.1,386.3,448.3,385.3,448.3
		z"/>
</g>
<g>
	<path class="st2" d="M132.7,437.3h1.3v9.8h5v1.1h-6.3V437.3z"/>
	<path class="st2" d="M141.6,438.6c-0.2,0-0.4-0.1-0.6-0.2c-0.2-0.2-0.2-0.4-0.2-0.6s0.1-0.4,0.2-0.6c0.2-0.2,0.4-0.2,0.6-0.2
		c0.2,0,0.4,0.1,0.6,0.2c0.2,0.2,0.2,0.4,0.2,0.6s-0.1,0.4-0.2,0.6C142,438.5,141.8,438.6,141.6,438.6z M141,440.2h1.3v8H141V440.2z
		"/>
	<path class="st2" d="M144.1,440.2h1.4l2.4,6.7l2.3-6.7h1.3l-2.9,8H147L144.1,440.2z"/>
	<path class="st2" d="M156.3,448.3c-0.6,0-1.1-0.1-1.6-0.3c-0.5-0.2-0.9-0.5-1.2-0.8c-0.3-0.4-0.6-0.8-0.8-1.3
		c-0.2-0.5-0.3-1.1-0.3-1.7v-0.1c0-0.6,0.1-1.2,0.3-1.7c0.2-0.5,0.4-0.9,0.8-1.3c0.3-0.4,0.7-0.6,1.2-0.8s1-0.3,1.5-0.3
		c0.5,0,0.9,0.1,1.3,0.2c0.4,0.1,0.8,0.4,1.1,0.7c0.3,0.3,0.6,0.7,0.8,1.2c0.2,0.5,0.3,1.1,0.3,1.8v0.4h-6c0,0.9,0.3,1.6,0.7,2.1
		c0.4,0.5,1.1,0.7,1.9,0.7c1.2,0,2-0.5,2.1-1.4h1.3c-0.1,0.8-0.5,1.4-1.1,1.8C158,448.1,157.2,448.3,156.3,448.3z M158.5,443.4
		c-0.1-0.8-0.3-1.4-0.7-1.8c-0.4-0.4-0.9-0.5-1.6-0.5c-0.6,0-1.2,0.2-1.6,0.6c-0.4,0.4-0.7,1-0.8,1.7H158.5z"/>
	<path class="st2" d="M161.9,440.2h1.3v1.3c0.2-0.4,0.5-0.7,0.9-1c0.4-0.3,1-0.4,1.6-0.4c0.4,0,0.8,0.1,1.1,0.2
		c0.3,0.1,0.6,0.3,0.9,0.6c0.2,0.3,0.4,0.6,0.6,1c0.1,0.4,0.2,0.9,0.2,1.5v4.9h-1.3v-5c0-0.7-0.2-1.2-0.5-1.5
		c-0.3-0.3-0.8-0.5-1.4-0.5c-0.3,0-0.6,0-0.8,0.1c-0.3,0.1-0.5,0.2-0.7,0.4s-0.4,0.4-0.5,0.7c-0.1,0.3-0.2,0.6-0.2,0.9v4.8h-1.3
		V440.2z"/>
	<path class="st2" d="M174.5,448.3c-0.6,0-1.1-0.1-1.6-0.3c-0.5-0.2-0.9-0.5-1.2-0.8c-0.3-0.4-0.6-0.8-0.8-1.3
		c-0.2-0.5-0.3-1.1-0.3-1.7v-0.1c0-0.6,0.1-1.2,0.3-1.7c0.2-0.5,0.4-0.9,0.8-1.3c0.3-0.4,0.7-0.6,1.2-0.8s1-0.3,1.5-0.3
		c0.5,0,0.9,0.1,1.3,0.2c0.4,0.1,0.8,0.4,1.1,0.7c0.3,0.3,0.6,0.7,0.8,1.2c0.2,0.5,0.3,1.1,0.3,1.8v0.4h-6c0,0.9,0.3,1.6,0.7,2.1
		c0.4,0.5,1.1,0.7,1.9,0.7c1.2,0,2-0.5,2.1-1.4h1.3c-0.1,0.8-0.5,1.4-1.1,1.8C176.1,448.1,175.4,448.3,174.5,448.3z M176.6,443.4
		c-0.1-0.8-0.3-1.4-0.7-1.8c-0.4-0.4-0.9-0.5-1.6-0.5c-0.6,0-1.2,0.2-1.6,0.6c-0.4,0.4-0.7,1-0.8,1.7H176.6z"/>
	<path class="st2" d="M182.6,448.3c-1,0-1.7-0.2-2.2-0.7c-0.5-0.5-0.8-1.1-0.9-1.9h1.2c0.1,0.5,0.2,0.9,0.5,1.1
		c0.3,0.3,0.7,0.4,1.4,0.4c0.6,0,1.1-0.1,1.3-0.3c0.3-0.2,0.4-0.5,0.4-0.9c0-0.4-0.2-0.7-0.5-0.9s-0.8-0.3-1.4-0.4
		c-0.5-0.1-1-0.2-1.3-0.3s-0.6-0.3-0.9-0.5c-0.2-0.2-0.4-0.4-0.5-0.7s-0.1-0.6-0.1-0.9c0-0.4,0.1-0.7,0.2-1c0.2-0.3,0.4-0.5,0.6-0.7
		c0.3-0.2,0.5-0.3,0.9-0.4s0.6-0.1,1-0.1c0.4,0,0.7,0,1,0.1c0.3,0.1,0.6,0.2,0.9,0.4c0.3,0.2,0.5,0.4,0.6,0.7
		c0.2,0.3,0.3,0.7,0.3,1.1H184c-0.1-0.4-0.3-0.8-0.5-1c-0.3-0.2-0.6-0.3-1.1-0.3c-0.5,0-0.8,0.1-1.1,0.3c-0.3,0.2-0.4,0.5-0.4,0.8
		c0,0.2,0,0.3,0.1,0.5s0.2,0.2,0.3,0.3c0.1,0.1,0.3,0.2,0.6,0.3c0.2,0.1,0.5,0.1,0.9,0.2c0.4,0.1,0.8,0.2,1.1,0.3
		c0.3,0.1,0.6,0.2,0.9,0.4c0.2,0.2,0.4,0.4,0.6,0.7c0.1,0.3,0.2,0.6,0.2,1c0,0.7-0.2,1.3-0.7,1.8
		C184.3,448.1,183.6,448.3,182.6,448.3z"/>
	<path class="st2" d="M190.1,448.3c-1,0-1.7-0.2-2.2-0.7c-0.5-0.5-0.8-1.1-0.9-1.9h1.2c0.1,0.5,0.2,0.9,0.5,1.1
		c0.3,0.3,0.7,0.4,1.4,0.4c0.6,0,1.1-0.1,1.3-0.3c0.3-0.2,0.4-0.5,0.4-0.9c0-0.4-0.2-0.7-0.5-0.9s-0.8-0.3-1.4-0.4
		c-0.5-0.1-1-0.2-1.3-0.3s-0.6-0.3-0.9-0.5c-0.2-0.2-0.4-0.4-0.5-0.7s-0.1-0.6-0.1-0.9c0-0.4,0.1-0.7,0.2-1c0.2-0.3,0.4-0.5,0.6-0.7
		c0.3-0.2,0.5-0.3,0.9-0.4s0.6-0.1,1-0.1c0.4,0,0.7,0,1,0.1c0.3,0.1,0.6,0.2,0.9,0.4c0.3,0.2,0.5,0.4,0.6,0.7
		c0.2,0.3,0.3,0.7,0.3,1.1h-1.2c-0.1-0.4-0.3-0.8-0.5-1c-0.3-0.2-0.6-0.3-1.1-0.3c-0.5,0-0.8,0.1-1.1,0.3c-0.3,0.2-0.4,0.5-0.4,0.8
		c0,0.2,0,0.3,0.1,0.5s0.2,0.2,0.3,0.3c0.1,0.1,0.3,0.2,0.6,0.3c0.2,0.1,0.5,0.1,0.9,0.2c0.4,0.1,0.8,0.2,1.1,0.3
		c0.3,0.1,0.6,0.2,0.9,0.4c0.2,0.2,0.4,0.4,0.6,0.7c0.1,0.3,0.2,0.6,0.2,1c0,0.7-0.2,1.3-0.7,1.8
		C191.8,448.1,191.1,448.3,190.1,448.3z"/>
</g>
<g>
	<path class="st2" d="M18.8,279.4c-0.7,0-1.3-0.1-1.9-0.3c-0.5-0.2-0.9-0.4-1.2-0.8c-0.3-0.3-0.6-0.7-0.7-1.1s-0.3-0.9-0.3-1.3h1.3
		c0,0.3,0.1,0.6,0.2,0.9s0.3,0.5,0.5,0.8c0.2,0.2,0.5,0.4,0.8,0.5c0.4,0.1,0.8,0.2,1.3,0.2c0.3,0,0.7,0,1-0.1
		c0.3-0.1,0.6-0.2,0.8-0.4c0.2-0.2,0.4-0.4,0.5-0.7c0.1-0.3,0.2-0.5,0.2-0.8s0-0.6-0.1-0.8c-0.1-0.2-0.2-0.4-0.4-0.6
		c-0.2-0.2-0.5-0.3-0.8-0.4c-0.3-0.1-0.8-0.2-1.3-0.3c-0.6-0.1-1.1-0.2-1.5-0.3s-0.8-0.3-1.1-0.6s-0.6-0.5-0.7-0.9s-0.2-0.8-0.2-1.2
		c0-0.4,0.1-0.8,0.3-1.2c0.2-0.4,0.4-0.7,0.7-0.9c0.3-0.3,0.7-0.5,1.1-0.6c0.4-0.2,0.9-0.2,1.4-0.2c1.1,0,2,0.3,2.6,0.8
		c0.6,0.5,1,1.3,1.1,2.2h-1.2c-0.1-0.7-0.4-1.2-0.8-1.5c-0.4-0.3-1-0.4-1.8-0.4c-0.8,0-1.3,0.2-1.7,0.5c-0.4,0.3-0.6,0.8-0.6,1.3
		c0,0.3,0,0.5,0.1,0.7c0.1,0.2,0.2,0.4,0.4,0.5s0.5,0.3,0.8,0.4s0.8,0.2,1.3,0.3c0.6,0.1,1.1,0.2,1.6,0.4s0.8,0.3,1.2,0.6
		c0.3,0.2,0.6,0.5,0.7,0.9c0.2,0.4,0.2,0.8,0.2,1.3c0,0.5-0.1,0.9-0.3,1.3c-0.2,0.4-0.4,0.7-0.8,1c-0.3,0.3-0.7,0.5-1.2,0.7
		C19.9,279.3,19.4,279.4,18.8,279.4z"/>
	<path class="st2" d="M24.9,271.3h1.3v1.3c0.1-0.2,0.3-0.4,0.4-0.6c0.2-0.2,0.4-0.3,0.6-0.5c0.2-0.1,0.5-0.2,0.8-0.3
		c0.3-0.1,0.6-0.1,0.9-0.1c0.5,0,1,0.1,1.4,0.3s0.8,0.4,1.1,0.8c0.3,0.3,0.6,0.8,0.8,1.3c0.2,0.5,0.3,1.1,0.3,1.7v0.1
		c0,0.6-0.1,1.2-0.3,1.7c-0.2,0.5-0.4,0.9-0.7,1.3c-0.3,0.4-0.7,0.6-1.1,0.8c-0.4,0.2-0.9,0.3-1.5,0.3c-0.7,0-1.2-0.1-1.7-0.4
		c-0.5-0.3-0.8-0.6-1-1v4.1h-1.3V271.3z M28.8,278.3c0.8,0,1.4-0.3,1.8-0.8c0.4-0.5,0.6-1.2,0.6-2.2v-0.1c0-0.5-0.1-0.9-0.2-1.3
		s-0.3-0.7-0.5-0.9c-0.2-0.2-0.5-0.4-0.8-0.6c-0.3-0.1-0.6-0.2-1-0.2c-0.4,0-0.7,0.1-1,0.2s-0.6,0.3-0.8,0.6s-0.4,0.6-0.5,0.9
		s-0.2,0.8-0.2,1.3v0.1c0,0.5,0.1,0.9,0.2,1.3c0.1,0.4,0.3,0.7,0.5,0.9c0.2,0.2,0.5,0.4,0.8,0.6C28,278.3,28.4,278.3,28.8,278.3z"/>
	<path class="st2" d="M37.9,279.4c-0.6,0-1.1-0.1-1.6-0.3c-0.5-0.2-0.9-0.5-1.2-0.8c-0.3-0.3-0.6-0.8-0.8-1.3
		c-0.2-0.5-0.3-1.1-0.3-1.7v-0.1c0-0.6,0.1-1.2,0.3-1.7c0.2-0.5,0.4-0.9,0.8-1.3c0.3-0.4,0.7-0.6,1.2-0.8c0.5-0.2,1-0.3,1.5-0.3
		c0.5,0,0.9,0.1,1.3,0.2c0.4,0.1,0.8,0.4,1.1,0.7c0.3,0.3,0.6,0.7,0.8,1.2c0.2,0.5,0.3,1.1,0.3,1.8v0.4h-6c0,0.9,0.3,1.6,0.7,2.1
		c0.4,0.5,1.1,0.7,1.9,0.7c1.2,0,2-0.5,2.1-1.4h1.3c-0.1,0.8-0.5,1.4-1.1,1.8C39.6,279.2,38.8,279.4,37.9,279.4z M40.1,274.5
		c-0.1-0.8-0.3-1.4-0.7-1.8c-0.4-0.4-0.9-0.5-1.6-0.5c-0.6,0-1.2,0.2-1.6,0.6c-0.4,0.4-0.7,1-0.8,1.7H40.1z"/>
	<path class="st2" d="M46.8,279.4c-0.6,0-1.1-0.1-1.6-0.3c-0.5-0.2-0.9-0.5-1.2-0.8c-0.3-0.3-0.6-0.8-0.8-1.3
		c-0.2-0.5-0.3-1.1-0.3-1.7v-0.1c0-0.6,0.1-1.2,0.3-1.7c0.2-0.5,0.4-0.9,0.8-1.3c0.3-0.4,0.7-0.6,1.2-0.8c0.5-0.2,1-0.3,1.5-0.3
		c0.5,0,0.9,0.1,1.3,0.2c0.4,0.1,0.8,0.4,1.1,0.7c0.3,0.3,0.6,0.7,0.8,1.2c0.2,0.5,0.3,1.1,0.3,1.8v0.4h-6c0,0.9,0.3,1.6,0.7,2.1
		c0.4,0.5,1.1,0.7,1.9,0.7c1.2,0,2-0.5,2.1-1.4h1.3c-0.1,0.8-0.5,1.4-1.1,1.8C48.4,279.2,47.7,279.4,46.8,279.4z M48.9,274.5
		c-0.1-0.8-0.3-1.4-0.7-1.8c-0.4-0.4-0.9-0.5-1.6-0.5c-0.6,0-1.2,0.2-1.6,0.6c-0.4,0.4-0.7,1-0.8,1.7H48.9z"/>
	<path class="st2" d="M55.6,279.4c-0.6,0-1.1-0.1-1.5-0.3s-0.9-0.5-1.2-0.8c-0.4-0.4-0.6-0.8-0.8-1.3c-0.2-0.5-0.3-1.1-0.3-1.7v-0.1
		c0-0.6,0.1-1.2,0.3-1.7c0.2-0.5,0.5-0.9,0.8-1.3c0.4-0.4,0.8-0.6,1.2-0.8c0.5-0.2,1-0.3,1.5-0.3c0.4,0,0.8,0.1,1.2,0.2
		c0.4,0.1,0.7,0.3,1.1,0.5c0.3,0.2,0.6,0.5,0.8,0.9c0.2,0.4,0.4,0.8,0.4,1.3h-1.2c-0.1-0.6-0.4-1.1-0.8-1.3
		c-0.4-0.3-0.9-0.4-1.4-0.4c-0.4,0-0.7,0.1-1,0.2c-0.3,0.1-0.6,0.3-0.8,0.6s-0.4,0.6-0.5,0.9c-0.1,0.4-0.2,0.8-0.2,1.3v0.1
		c0,1,0.2,1.7,0.7,2.2c0.5,0.5,1.1,0.8,1.9,0.8c0.3,0,0.6,0,0.8-0.1c0.3-0.1,0.5-0.2,0.7-0.4s0.4-0.4,0.5-0.6
		c0.1-0.2,0.2-0.5,0.3-0.8h1.2c0,0.4-0.2,0.8-0.3,1.2c-0.2,0.4-0.4,0.7-0.7,1c-0.3,0.3-0.7,0.5-1.1,0.6S56.1,279.4,55.6,279.4z"/>
	<path class="st2" d="M61.2,267.5h1.3v5.1c0.2-0.4,0.5-0.7,0.9-1c0.4-0.3,1-0.4,1.6-0.4c0.4,0,0.8,0.1,1.1,0.2
		c0.3,0.1,0.6,0.3,0.9,0.6c0.2,0.3,0.4,0.6,0.6,1c0.1,0.4,0.2,0.9,0.2,1.5v4.9h-1.3v-5c0-0.7-0.2-1.2-0.5-1.5
		c-0.3-0.3-0.8-0.5-1.4-0.5c-0.3,0-0.6,0-0.8,0.1s-0.5,0.2-0.7,0.4s-0.4,0.4-0.5,0.7c-0.1,0.3-0.2,0.6-0.2,0.9v4.8h-1.3V267.5z"/>
	<path class="st2" d="M71.1,269.6c-0.2,0-0.4-0.1-0.6-0.2c-0.2-0.2-0.2-0.4-0.2-0.6c0-0.2,0.1-0.4,0.2-0.6c0.2-0.2,0.4-0.2,0.6-0.2
		c0.2,0,0.4,0.1,0.6,0.2c0.2,0.2,0.2,0.4,0.2,0.6c0,0.2-0.1,0.4-0.2,0.6C71.6,269.5,71.4,269.6,71.1,269.6z M70.5,271.3h1.3v8h-1.3
		V271.3z"/>
	<path class="st2" d="M74.6,271.3h1.3v1.3c0.2-0.4,0.5-0.7,0.9-1c0.4-0.3,1-0.4,1.6-0.4c0.4,0,0.8,0.1,1.1,0.2
		c0.3,0.1,0.6,0.3,0.9,0.6c0.2,0.3,0.4,0.6,0.6,1c0.1,0.4,0.2,0.9,0.2,1.5v4.9h-1.3v-5c0-0.7-0.2-1.2-0.5-1.5
		c-0.3-0.3-0.8-0.5-1.4-0.5c-0.3,0-0.6,0-0.8,0.1s-0.5,0.2-0.7,0.4s-0.4,0.4-0.5,0.7c-0.1,0.3-0.2,0.6-0.2,0.9v4.8h-1.3V271.3z"/>
	<path class="st2" d="M87.1,279.4c-0.6,0-1.1-0.1-1.6-0.3c-0.5-0.2-0.9-0.5-1.2-0.8c-0.3-0.3-0.6-0.8-0.8-1.3
		c-0.2-0.5-0.3-1.1-0.3-1.7v-0.1c0-0.6,0.1-1.2,0.3-1.7c0.2-0.5,0.4-0.9,0.8-1.3c0.3-0.4,0.7-0.6,1.2-0.8c0.5-0.2,1-0.3,1.5-0.3
		c0.5,0,0.9,0.1,1.3,0.2c0.4,0.1,0.8,0.4,1.1,0.7c0.3,0.3,0.6,0.7,0.8,1.2c0.2,0.5,0.3,1.1,0.3,1.8v0.4h-6c0,0.9,0.3,1.6,0.7,2.1
		c0.4,0.5,1.1,0.7,1.9,0.7c1.2,0,2-0.5,2.1-1.4h1.3c-0.1,0.8-0.5,1.4-1.1,1.8C88.8,279.2,88,279.4,87.1,279.4z M89.3,274.5
		c-0.1-0.8-0.3-1.4-0.7-1.8c-0.4-0.4-0.9-0.5-1.6-0.5c-0.6,0-1.2,0.2-1.6,0.6c-0.4,0.4-0.7,1-0.8,1.7H89.3z"/>
	<path class="st2" d="M95.2,279.4c-1,0-1.7-0.2-2.2-0.7c-0.5-0.5-0.8-1.1-0.9-1.9h1.2c0.1,0.5,0.2,0.9,0.5,1.1s0.7,0.4,1.4,0.4
		c0.6,0,1.1-0.1,1.3-0.3c0.3-0.2,0.4-0.5,0.4-0.9c0-0.4-0.2-0.7-0.5-0.9s-0.8-0.3-1.4-0.4c-0.5-0.1-1-0.2-1.3-0.3s-0.6-0.3-0.9-0.5
		c-0.2-0.2-0.4-0.4-0.5-0.7s-0.1-0.6-0.1-0.9c0-0.4,0.1-0.7,0.2-1c0.2-0.3,0.4-0.5,0.6-0.7c0.3-0.2,0.5-0.3,0.9-0.4
		c0.3-0.1,0.6-0.1,1-0.1c0.4,0,0.7,0,1,0.1c0.3,0.1,0.6,0.2,0.9,0.4c0.3,0.2,0.5,0.4,0.6,0.7c0.2,0.3,0.3,0.7,0.3,1.1h-1.2
		c-0.1-0.4-0.3-0.8-0.5-1c-0.3-0.2-0.6-0.3-1.1-0.3c-0.5,0-0.8,0.1-1.1,0.3c-0.3,0.2-0.4,0.5-0.4,0.8c0,0.2,0,0.3,0.1,0.5
		c0.1,0.1,0.2,0.2,0.3,0.3s0.3,0.2,0.6,0.3s0.5,0.1,0.9,0.2c0.4,0.1,0.8,0.2,1.1,0.3s0.6,0.2,0.9,0.4c0.2,0.2,0.4,0.4,0.6,0.7
		c0.1,0.3,0.2,0.6,0.2,1c0,0.7-0.2,1.3-0.7,1.8C96.9,279.2,96.2,279.4,95.2,279.4z"/>
	<path class="st2" d="M102.7,279.4c-1,0-1.7-0.2-2.2-0.7c-0.5-0.5-0.8-1.1-0.9-1.9h1.2c0.1,0.5,0.2,0.9,0.5,1.1s0.7,0.4,1.4,0.4
		c0.6,0,1.1-0.1,1.3-0.3c0.3-0.2,0.4-0.5,0.4-0.9c0-0.4-0.2-0.7-0.5-0.9s-0.8-0.3-1.4-0.4c-0.5-0.1-1-0.2-1.3-0.3s-0.6-0.3-0.9-0.5
		c-0.2-0.2-0.4-0.4-0.5-0.7s-0.1-0.6-0.1-0.9c0-0.4,0.1-0.7,0.2-1c0.2-0.3,0.4-0.5,0.6-0.7c0.3-0.2,0.5-0.3,0.9-0.4
		c0.3-0.1,0.6-0.1,1-0.1c0.4,0,0.7,0,1,0.1c0.3,0.1,0.6,0.2,0.9,0.4c0.3,0.2,0.5,0.4,0.6,0.7c0.2,0.3,0.3,0.7,0.3,1.1h-1.2
		c-0.1-0.4-0.3-0.8-0.5-1c-0.3-0.2-0.6-0.3-1.1-0.3c-0.5,0-0.8,0.1-1.1,0.3c-0.3,0.2-0.4,0.5-0.4,0.8c0,0.2,0,0.3,0.1,0.5
		c0.1,0.1,0.2,0.2,0.3,0.3s0.3,0.2,0.6,0.3s0.5,0.1,0.9,0.2c0.4,0.1,0.8,0.2,1.1,0.3s0.6,0.2,0.9,0.4c0.2,0.2,0.4,0.4,0.6,0.7
		c0.1,0.3,0.2,0.6,0.2,1c0,0.7-0.2,1.3-0.7,1.8C104.4,279.2,103.7,279.4,102.7,279.4z"/>
</g>
<g>
	<path class="st2" d="M66.5,106.2h1.3l3.2,9.6l3.2-9.6h1.2l-3.8,10.9h-1.6L66.5,106.2z"/>
	<path class="st2" d="M78.9,117.2c-0.4,0-0.7,0-1-0.1c-0.3-0.1-0.6-0.2-0.8-0.4c-0.2-0.2-0.4-0.4-0.6-0.7c-0.1-0.3-0.2-0.6-0.2-1.1
		c0-0.5,0.1-0.8,0.3-1.2c0.2-0.3,0.5-0.6,0.9-0.8c0.4-0.2,0.8-0.3,1.3-0.4c0.5-0.1,1-0.1,1.5-0.1h1.1v-0.6c0-0.6-0.1-1.1-0.4-1.4
		c-0.3-0.3-0.7-0.4-1.3-0.4c-1.1,0-1.7,0.5-1.8,1.4h-1.3c0-0.5,0.2-0.8,0.3-1.2c0.2-0.3,0.4-0.6,0.7-0.8c0.3-0.2,0.6-0.3,1-0.4
		c0.4-0.1,0.7-0.1,1.1-0.1c0.4,0,0.7,0,1.1,0.1c0.4,0.1,0.7,0.2,0.9,0.5c0.3,0.2,0.5,0.5,0.6,0.9c0.2,0.4,0.2,0.8,0.2,1.4v5.3h-1.3
		v-1c-0.3,0.4-0.6,0.7-1,0.9S79.5,117.2,78.9,117.2z M79,116.2c0.3,0,0.6,0,0.9-0.1c0.3-0.1,0.5-0.2,0.7-0.4
		c0.2-0.2,0.4-0.4,0.5-0.6c0.1-0.2,0.2-0.5,0.2-0.8v-1h-1.1c-0.4,0-0.8,0-1.1,0.1c-0.3,0.1-0.6,0.1-0.9,0.3
		c-0.2,0.1-0.4,0.3-0.6,0.5s-0.2,0.4-0.2,0.7c0,0.4,0.1,0.7,0.3,1C78.1,116.1,78.5,116.2,79,116.2z"/>
	<path class="st2" d="M85.3,105.3h1.3v11.8h-1.3V105.3z"/>
	<path class="st2" d="M92.7,117.2c-0.6,0-1.1-0.1-1.6-0.3c-0.5-0.2-0.9-0.5-1.2-0.8c-0.3-0.4-0.6-0.8-0.8-1.3
		c-0.2-0.5-0.3-1.1-0.3-1.7v-0.1c0-0.6,0.1-1.2,0.3-1.7c0.2-0.5,0.4-0.9,0.8-1.3c0.3-0.4,0.7-0.6,1.2-0.8s1-0.3,1.5-0.3
		c0.5,0,0.9,0.1,1.3,0.2c0.4,0.1,0.8,0.4,1.1,0.7c0.3,0.3,0.6,0.7,0.8,1.2c0.2,0.5,0.3,1.1,0.3,1.8v0.4h-6c0,0.9,0.3,1.6,0.7,2.1
		c0.4,0.5,1.1,0.7,1.9,0.7c1.2,0,2-0.5,2.1-1.4h1.3c-0.1,0.8-0.5,1.4-1.1,1.8C94.3,117,93.6,117.2,92.7,117.2z M94.8,112.3
		c-0.1-0.8-0.3-1.4-0.7-1.8c-0.4-0.4-0.9-0.5-1.6-0.5c-0.6,0-1.2,0.2-1.6,0.6c-0.4,0.4-0.7,1-0.8,1.7H94.8z"/>
	<path class="st2" d="M98.2,109.1h1.3v1.3c0.2-0.4,0.5-0.7,0.9-1c0.4-0.3,1-0.4,1.6-0.4c0.4,0,0.8,0.1,1.1,0.2
		c0.3,0.1,0.6,0.3,0.9,0.6c0.2,0.3,0.4,0.6,0.6,1c0.1,0.4,0.2,0.9,0.2,1.5v4.9h-1.3v-5c0-0.7-0.2-1.2-0.5-1.5
		c-0.3-0.3-0.8-0.5-1.4-0.5c-0.3,0-0.6,0-0.8,0.1c-0.3,0.1-0.5,0.2-0.7,0.4s-0.4,0.4-0.5,0.7c-0.1,0.3-0.2,0.6-0.2,0.9v4.8h-1.3
		V109.1z"/>
	<path class="st2" d="M110.8,117.2c-0.6,0-1.1-0.1-1.5-0.3s-0.9-0.5-1.2-0.8c-0.4-0.4-0.6-0.8-0.8-1.3c-0.2-0.5-0.3-1.1-0.3-1.7
		v-0.1c0-0.6,0.1-1.2,0.3-1.7c0.2-0.5,0.5-0.9,0.8-1.3c0.4-0.4,0.8-0.6,1.2-0.8c0.5-0.2,1-0.3,1.5-0.3c0.4,0,0.8,0.1,1.2,0.2
		c0.4,0.1,0.7,0.3,1.1,0.5c0.3,0.2,0.6,0.5,0.8,0.9c0.2,0.4,0.4,0.8,0.4,1.3H113c-0.1-0.6-0.4-1.1-0.8-1.3c-0.4-0.3-0.9-0.4-1.4-0.4
		c-0.4,0-0.7,0.1-1,0.2c-0.3,0.1-0.6,0.3-0.8,0.6s-0.4,0.6-0.5,0.9c-0.1,0.4-0.2,0.8-0.2,1.3v0.1c0,1,0.2,1.7,0.7,2.2
		c0.5,0.5,1.1,0.8,1.9,0.8c0.3,0,0.6,0,0.8-0.1c0.3-0.1,0.5-0.2,0.7-0.4c0.2-0.2,0.4-0.4,0.5-0.6c0.1-0.2,0.2-0.5,0.3-0.8h1.2
		c0,0.4-0.2,0.8-0.3,1.2c-0.2,0.4-0.4,0.7-0.7,1c-0.3,0.3-0.7,0.5-1.1,0.6S111.3,117.2,110.8,117.2z"/>
	<path class="st2" d="M119.6,117.2c-0.6,0-1.1-0.1-1.6-0.3c-0.5-0.2-0.9-0.5-1.2-0.8c-0.3-0.4-0.6-0.8-0.8-1.3
		c-0.2-0.5-0.3-1.1-0.3-1.7v-0.1c0-0.6,0.1-1.2,0.3-1.7c0.2-0.5,0.4-0.9,0.8-1.3c0.3-0.4,0.7-0.6,1.2-0.8s1-0.3,1.5-0.3
		c0.5,0,0.9,0.1,1.3,0.2c0.4,0.1,0.8,0.4,1.1,0.7c0.3,0.3,0.6,0.7,0.8,1.2c0.2,0.5,0.3,1.1,0.3,1.8v0.4h-6c0,0.9,0.3,1.6,0.7,2.1
		c0.4,0.5,1.1,0.7,1.9,0.7c1.2,0,2-0.5,2.1-1.4h1.3c-0.1,0.8-0.5,1.4-1.1,1.8C121.3,117,120.5,117.2,119.6,117.2z M121.8,112.3
		c-0.1-0.8-0.3-1.4-0.7-1.8c-0.4-0.4-0.9-0.5-1.6-0.5c-0.6,0-1.2,0.2-1.6,0.6c-0.4,0.4-0.7,1-0.8,1.7H121.8z"/>
</g>
<g transform="translate(0, 0)">
	<polygon class="st3" points="675,178 575.2,293.4 682.9,421 765.4,250.2 800.1,258 809.3,214.9 765.3,105.2 	"/>
</g>
<g>
	<line class="st1" x1="765.3" y1="47" x2="765.3" y2="249"/>
	<line class="st1" x1="924.1" y1="123.6" x2="766.1" y2="249.4"/>
	<line class="st1" x1="963.2" y1="295.3" x2="766.3" y2="250.2"/>
	<line class="st1" x1="853.3" y1="433" x2="765.8" y2="250.9"/>
	<line class="st1" x1="677.1" y1="432.8" x2="764.9" y2="250.9"/>
	<line class="st1" x1="567.4" y1="295" x2="764.4" y2="250.2"/>
	<line class="st1" x1="606.7" y1="123.3" x2="764.6" y2="249.4"/>
</g>
<g>
	<path class="st2" d="M719.2,19h1.7l3.7,10.9h-1.3l-1.1-3.1h-4.5l-1.1,3.1h-1.2L719.2,19z M718.1,25.7h3.8l-1.9-5.6L718.1,25.7z"/>
	<path class="st2" d="M729.7,30c-0.6,0-1.1-0.1-1.5-0.3s-0.9-0.5-1.2-0.8c-0.4-0.4-0.6-0.8-0.8-1.3c-0.2-0.5-0.3-1.1-0.3-1.7v-0.1
		c0-0.6,0.1-1.2,0.3-1.7c0.2-0.5,0.5-0.9,0.8-1.3c0.4-0.4,0.8-0.6,1.2-0.8c0.5-0.2,1-0.3,1.5-0.3c0.4,0,0.8,0.1,1.2,0.2
		c0.4,0.1,0.7,0.3,1.1,0.5c0.3,0.2,0.6,0.5,0.8,0.9c0.2,0.4,0.4,0.8,0.4,1.3h-1.2c-0.1-0.6-0.4-1.1-0.8-1.3
		c-0.4-0.3-0.9-0.4-1.4-0.4c-0.4,0-0.7,0.1-1,0.2c-0.3,0.1-0.6,0.3-0.8,0.6s-0.4,0.6-0.5,0.9c-0.1,0.4-0.2,0.8-0.2,1.3V26
		c0,1,0.2,1.7,0.7,2.2c0.5,0.5,1.1,0.8,1.9,0.8c0.3,0,0.6,0,0.8-0.1c0.3-0.1,0.5-0.2,0.7-0.4c0.2-0.2,0.4-0.4,0.5-0.6
		c0.1-0.2,0.2-0.5,0.3-0.8h1.2c0,0.4-0.2,0.8-0.3,1.2c-0.2,0.4-0.4,0.7-0.7,1c-0.3,0.3-0.7,0.5-1.1,0.6S730.1,30,729.7,30z"/>
	<path class="st2" d="M738.5,30c-0.6,0-1.1-0.1-1.6-0.3c-0.5-0.2-0.9-0.5-1.2-0.8c-0.3-0.4-0.6-0.8-0.8-1.3c-0.2-0.5-0.3-1-0.3-1.6
		v-0.1c0-0.6,0.1-1.1,0.3-1.6c0.2-0.5,0.5-0.9,0.8-1.3s0.8-0.6,1.2-0.8c0.5-0.2,1-0.3,1.6-0.3c0.6,0,1.1,0.1,1.6,0.3
		c0.5,0.2,0.9,0.5,1.2,0.8s0.6,0.8,0.8,1.3c0.2,0.5,0.3,1,0.3,1.6V26c0,0.6-0.1,1.2-0.3,1.7c-0.2,0.5-0.5,0.9-0.8,1.3
		c-0.4,0.4-0.8,0.6-1.2,0.8C739.6,29.9,739.1,30,738.5,30z M738.5,29c0.4,0,0.8-0.1,1.1-0.2c0.3-0.1,0.6-0.3,0.8-0.6
		c0.2-0.3,0.4-0.6,0.5-0.9c0.1-0.4,0.2-0.8,0.2-1.2v-0.1c0-0.5-0.1-0.9-0.2-1.2c-0.1-0.4-0.3-0.7-0.5-1c-0.2-0.3-0.5-0.5-0.8-0.6
		s-0.7-0.2-1.1-0.2s-0.8,0.1-1.1,0.2c-0.3,0.1-0.6,0.3-0.8,0.6c-0.2,0.3-0.4,0.6-0.5,0.9c-0.1,0.4-0.2,0.8-0.2,1.2V26
		c0,0.9,0.2,1.6,0.7,2.2C737.1,28.7,737.7,29,738.5,29z"/>
	<path class="st2" d="M747.3,30c-0.4,0-0.8-0.1-1.1-0.2s-0.6-0.3-0.9-0.5c-0.2-0.2-0.4-0.6-0.6-1c-0.1-0.4-0.2-0.9-0.2-1.4v-5h1.3v5
		c0,0.7,0.1,1.2,0.4,1.5c0.3,0.3,0.8,0.5,1.4,0.5c0.3,0,0.6,0,0.8-0.1s0.5-0.2,0.7-0.4s0.4-0.4,0.5-0.7c0.1-0.3,0.2-0.6,0.2-0.9
		v-4.8h1.3v8h-1.3v-1.3c-0.2,0.4-0.5,0.7-0.9,1C748.5,29.9,747.9,30,747.3,30z"/>
	<path class="st2" d="M756.3,30c-1,0-1.7-0.2-2.2-0.7c-0.5-0.5-0.8-1.1-0.9-1.9h1.2c0.1,0.5,0.2,0.9,0.5,1.1
		c0.3,0.3,0.7,0.4,1.4,0.4c0.6,0,1.1-0.1,1.3-0.3c0.3-0.2,0.4-0.5,0.4-0.9c0-0.4-0.2-0.7-0.5-0.9s-0.8-0.3-1.4-0.4
		c-0.5-0.1-1-0.2-1.3-0.3s-0.6-0.3-0.9-0.5c-0.2-0.2-0.4-0.4-0.5-0.7s-0.1-0.6-0.1-0.9c0-0.4,0.1-0.7,0.2-1c0.2-0.3,0.4-0.5,0.6-0.7
		c0.3-0.2,0.5-0.3,0.9-0.4s0.6-0.1,1-0.1c0.4,0,0.7,0,1,0.1c0.3,0.1,0.6,0.2,0.9,0.4c0.3,0.2,0.5,0.4,0.6,0.7
		c0.2,0.3,0.3,0.7,0.3,1.1h-1.2c-0.1-0.4-0.3-0.8-0.5-1c-0.3-0.2-0.6-0.3-1.1-0.3c-0.5,0-0.8,0.1-1.1,0.3c-0.3,0.2-0.4,0.5-0.4,0.8
		c0,0.2,0,0.3,0.1,0.5s0.2,0.2,0.3,0.3c0.1,0.1,0.3,0.2,0.6,0.3c0.2,0.1,0.5,0.1,0.9,0.2c0.4,0.1,0.8,0.2,1.1,0.3
		c0.3,0.1,0.6,0.2,0.9,0.4c0.2,0.2,0.4,0.4,0.6,0.7c0.1,0.3,0.2,0.6,0.2,1c0,0.7-0.2,1.3-0.7,1.8C758,29.8,757.3,30,756.3,30z"/>
	<path class="st2" d="M763.8,30c-0.7,0-1.3-0.2-1.6-0.6c-0.4-0.4-0.5-0.9-0.5-1.5V23h-1.1v-1.1h1.1v-1.8h1.3v1.8h1.9V23h-1.9v4.8
		c0,0.8,0.3,1.2,1,1.2c0.2,0,0.4,0,0.5,0c0.2,0,0.3-0.1,0.4-0.1v1.1c-0.1,0.1-0.3,0.1-0.4,0.1C764.2,30,764,30,763.8,30z"/>
	<path class="st2" d="M767.6,20.3c-0.2,0-0.4-0.1-0.6-0.2c-0.2-0.2-0.2-0.4-0.2-0.6s0.1-0.4,0.2-0.6c0.2-0.2,0.4-0.2,0.6-0.2
		c0.2,0,0.4,0.1,0.6,0.2s0.2,0.4,0.2,0.6s-0.1,0.4-0.2,0.6C768,20.2,767.8,20.3,767.6,20.3z M767,21.9h1.3v8H767V21.9z"/>
	<path class="st2" d="M774.3,30c-0.6,0-1.1-0.1-1.5-0.3s-0.9-0.5-1.2-0.8s-0.6-0.8-0.8-1.3c-0.2-0.5-0.3-1.1-0.3-1.7v-0.1
		c0-0.6,0.1-1.2,0.3-1.7c0.2-0.5,0.5-0.9,0.8-1.3c0.4-0.4,0.8-0.6,1.2-0.8s1-0.3,1.5-0.3c0.4,0,0.8,0.1,1.2,0.2s0.7,0.3,1.1,0.5
		c0.3,0.2,0.6,0.5,0.8,0.9c0.2,0.4,0.3,0.8,0.4,1.3h-1.2c-0.1-0.6-0.4-1.1-0.8-1.3c-0.4-0.3-0.9-0.4-1.4-0.4c-0.4,0-0.7,0.1-1,0.2
		s-0.6,0.3-0.8,0.6s-0.4,0.6-0.5,0.9c-0.1,0.4-0.2,0.8-0.2,1.3V26c0,1,0.2,1.7,0.7,2.2c0.5,0.5,1.1,0.8,1.9,0.8c0.3,0,0.6,0,0.8-0.1
		c0.3-0.1,0.5-0.2,0.7-0.4c0.2-0.2,0.4-0.4,0.5-0.6c0.1-0.2,0.2-0.5,0.3-0.8h1.2c0,0.4-0.2,0.8-0.3,1.2c-0.2,0.4-0.4,0.7-0.7,1
		s-0.7,0.5-1.1,0.6S774.8,30,774.3,30z"/>
	<path class="st2" d="M779.9,21.9h1.3v1.3c0.2-0.4,0.5-0.7,0.9-1s1-0.4,1.6-0.4c0.4,0,0.8,0.1,1.1,0.2c0.3,0.1,0.6,0.3,0.9,0.6
		s0.4,0.6,0.6,1s0.2,0.9,0.2,1.5v4.9h-1.3v-5c0-0.7-0.2-1.2-0.5-1.5s-0.8-0.5-1.4-0.5c-0.3,0-0.6,0-0.8,0.1
		c-0.3,0.1-0.5,0.2-0.7,0.4s-0.4,0.4-0.5,0.7c-0.1,0.3-0.2,0.6-0.2,0.9v4.8h-1.3V21.9z"/>
	<path class="st2" d="M792.4,30c-0.6,0-1.1-0.1-1.6-0.3s-0.9-0.5-1.2-0.8c-0.3-0.4-0.6-0.8-0.8-1.3c-0.2-0.5-0.3-1.1-0.3-1.7v-0.1
		c0-0.6,0.1-1.2,0.3-1.7c0.2-0.5,0.4-0.9,0.8-1.3s0.7-0.6,1.2-0.8s1-0.3,1.5-0.3c0.5,0,0.9,0.1,1.3,0.2c0.4,0.1,0.8,0.4,1.1,0.7
		s0.6,0.7,0.8,1.2c0.2,0.5,0.3,1.1,0.3,1.8v0.4h-6c0,0.9,0.3,1.6,0.7,2.1c0.4,0.5,1.1,0.7,1.9,0.7c1.2,0,2-0.5,2.1-1.4h1.3
		c-0.1,0.8-0.5,1.4-1.1,1.8C794.1,29.8,793.3,30,792.4,30z M794.6,25.1c-0.1-0.8-0.3-1.4-0.7-1.8c-0.4-0.4-0.9-0.5-1.6-0.5
		c-0.6,0-1.2,0.2-1.6,0.6c-0.4,0.4-0.7,1-0.8,1.7H794.6z"/>
	<path class="st2" d="M800.5,30c-1,0-1.7-0.2-2.2-0.7c-0.5-0.5-0.8-1.1-0.9-1.9h1.2c0.1,0.5,0.2,0.9,0.5,1.1
		c0.3,0.3,0.7,0.4,1.4,0.4c0.6,0,1.1-0.1,1.3-0.3s0.4-0.5,0.4-0.9c0-0.4-0.2-0.7-0.5-0.9c-0.3-0.2-0.8-0.3-1.4-0.4
		c-0.5-0.1-1-0.2-1.3-0.3s-0.6-0.3-0.9-0.5c-0.2-0.2-0.4-0.4-0.5-0.7s-0.1-0.6-0.1-0.9c0-0.4,0.1-0.7,0.2-1c0.2-0.3,0.4-0.5,0.6-0.7
		c0.3-0.2,0.5-0.3,0.9-0.4c0.3-0.1,0.6-0.1,1-0.1c0.4,0,0.7,0,1,0.1c0.3,0.1,0.6,0.2,0.9,0.4c0.3,0.2,0.5,0.4,0.6,0.7
		c0.2,0.3,0.3,0.7,0.3,1.1H802c-0.1-0.4-0.3-0.8-0.5-1c-0.3-0.2-0.6-0.3-1.2-0.3c-0.5,0-0.8,0.1-1.1,0.3s-0.4,0.5-0.4,0.8
		c0,0.2,0,0.3,0.1,0.5c0.1,0.1,0.2,0.2,0.3,0.3c0.1,0.1,0.3,0.2,0.6,0.3c0.2,0.1,0.5,0.1,0.9,0.2c0.4,0.1,0.8,0.2,1.1,0.3
		c0.3,0.1,0.6,0.2,0.9,0.4c0.2,0.2,0.4,0.4,0.6,0.7c0.1,0.3,0.2,0.6,0.2,1c0,0.7-0.2,1.3-0.7,1.8C802.2,29.8,801.5,30,800.5,30z"/>
	<path class="st2" d="M808,30c-1,0-1.7-0.2-2.2-0.7c-0.5-0.5-0.8-1.1-0.9-1.9h1.2c0.1,0.5,0.2,0.9,0.5,1.1c0.3,0.3,0.7,0.4,1.4,0.4
		c0.6,0,1.1-0.1,1.3-0.3c0.3-0.2,0.4-0.5,0.4-0.9c0-0.4-0.2-0.7-0.5-0.9c-0.3-0.2-0.8-0.3-1.4-0.4c-0.5-0.1-1-0.2-1.3-0.3
		s-0.6-0.3-0.9-0.5s-0.4-0.4-0.5-0.7s-0.1-0.6-0.1-0.9c0-0.4,0.1-0.7,0.2-1c0.2-0.3,0.4-0.5,0.6-0.7c0.3-0.2,0.5-0.3,0.9-0.4
		c0.3-0.1,0.6-0.1,1-0.1c0.4,0,0.7,0,1,0.1c0.3,0.1,0.6,0.2,0.9,0.4c0.3,0.2,0.5,0.4,0.6,0.7c0.2,0.3,0.3,0.7,0.3,1.1h-1.2
		c-0.1-0.4-0.3-0.8-0.5-1c-0.3-0.2-0.6-0.3-1.1-0.3c-0.5,0-0.8,0.1-1.1,0.3c-0.3,0.2-0.4,0.5-0.4,0.8c0,0.2,0,0.3,0.1,0.5
		c0.1,0.1,0.2,0.2,0.3,0.3c0.1,0.1,0.3,0.2,0.6,0.3c0.2,0.1,0.5,0.1,0.9,0.2c0.4,0.1,0.8,0.2,1.1,0.3c0.3,0.1,0.6,0.2,0.9,0.4
		c0.2,0.2,0.4,0.4,0.6,0.7c0.1,0.3,0.2,0.6,0.2,1c0,0.7-0.2,1.3-0.7,1.8C809.7,29.8,809,30,808,30z"/>
</g>
<g>
	<path class="st2" d="M865.9,106.4h2.9c0.9,0,1.7,0.1,2.4,0.4c0.7,0.3,1.3,0.6,1.7,1.1s0.8,1,1,1.7s0.3,1.4,0.3,2.1v0.1
		c0,0.8-0.1,1.5-0.3,2.1c-0.2,0.7-0.6,1.2-1,1.7c-0.5,0.5-1,0.9-1.7,1.1c-0.7,0.3-1.5,0.4-2.5,0.4h-2.8V106.4z M868.7,116.3
		c0.7,0,1.3-0.1,1.8-0.3s1-0.5,1.3-0.9c0.4-0.4,0.6-0.8,0.8-1.4c0.2-0.5,0.3-1.1,0.3-1.8v-0.1c0-0.6-0.1-1.2-0.2-1.7
		c-0.2-0.5-0.4-1-0.7-1.4c-0.3-0.4-0.8-0.7-1.3-0.9c-0.5-0.2-1.2-0.3-1.9-0.3h-1.5v8.8H868.7z"/>
	<path class="st2" d="M878.6,117.5c-0.4,0-0.7,0-1-0.1c-0.3-0.1-0.6-0.2-0.8-0.4c-0.2-0.2-0.4-0.4-0.6-0.7c-0.1-0.3-0.2-0.6-0.2-1.1
		c0-0.5,0.1-0.8,0.3-1.2c0.2-0.3,0.5-0.6,0.9-0.8c0.4-0.2,0.8-0.3,1.3-0.4c0.5-0.1,1-0.1,1.5-0.1h1.1v-0.6c0-0.6-0.1-1.1-0.4-1.4
		c-0.3-0.3-0.7-0.4-1.3-0.4c-1.1,0-1.7,0.5-1.8,1.4h-1.3c0-0.5,0.2-0.8,0.3-1.2c0.2-0.3,0.4-0.6,0.7-0.8c0.3-0.2,0.6-0.3,1-0.4
		c0.4-0.1,0.7-0.1,1.1-0.1c0.4,0,0.7,0,1.1,0.1c0.4,0.1,0.7,0.2,0.9,0.5c0.3,0.2,0.5,0.5,0.6,0.9c0.2,0.4,0.2,0.8,0.2,1.4v5.3h-1.3
		v-1c-0.3,0.4-0.6,0.7-1,0.9S879.2,117.5,878.6,117.5z M878.7,116.5c0.3,0,0.6,0,0.9-0.1c0.3-0.1,0.5-0.2,0.7-0.4
		c0.2-0.2,0.4-0.4,0.5-0.6c0.1-0.2,0.2-0.5,0.2-0.8v-1H880c-0.4,0-0.8,0-1.1,0.1s-0.6,0.1-0.9,0.3c-0.2,0.1-0.4,0.3-0.6,0.5
		s-0.2,0.4-0.2,0.7c0,0.4,0.1,0.7,0.3,1C877.8,116.3,878.2,116.5,878.7,116.5z"/>
	<path class="st2" d="M885,109.4h1.3v1.3c0.2-0.4,0.5-0.7,0.9-1s1-0.4,1.6-0.4c0.4,0,0.8,0.1,1.1,0.2c0.3,0.1,0.6,0.3,0.9,0.6
		c0.2,0.3,0.4,0.6,0.6,1s0.2,0.9,0.2,1.5v4.9h-1.3v-5c0-0.7-0.2-1.2-0.5-1.5s-0.8-0.5-1.4-0.5c-0.3,0-0.6,0-0.8,0.1
		c-0.3,0.1-0.5,0.2-0.7,0.4s-0.4,0.4-0.5,0.7c-0.1,0.3-0.2,0.6-0.2,0.9v4.8H885V109.4z"/>
	<path class="st2" d="M897.6,117.5c-0.6,0-1.1-0.1-1.5-0.3s-0.9-0.5-1.2-0.8c-0.4-0.4-0.6-0.8-0.8-1.3c-0.2-0.5-0.3-1.1-0.3-1.7
		v-0.1c0-0.6,0.1-1.2,0.3-1.7c0.2-0.5,0.5-0.9,0.8-1.3c0.3-0.4,0.8-0.6,1.2-0.8c0.5-0.2,1-0.3,1.5-0.3c0.4,0,0.8,0.1,1.2,0.2
		c0.4,0.1,0.7,0.3,1.1,0.5s0.6,0.5,0.8,0.9s0.4,0.8,0.4,1.3h-1.2c-0.1-0.6-0.4-1.1-0.8-1.3c-0.4-0.3-0.9-0.4-1.4-0.4
		c-0.4,0-0.7,0.1-1,0.2c-0.3,0.1-0.6,0.3-0.8,0.6s-0.4,0.6-0.5,0.9c-0.1,0.4-0.2,0.8-0.2,1.3v0.1c0,1,0.2,1.7,0.7,2.2
		c0.5,0.5,1.1,0.8,1.9,0.8c0.3,0,0.6,0,0.8-0.1c0.3-0.1,0.5-0.2,0.7-0.4c0.2-0.2,0.4-0.4,0.5-0.6c0.1-0.2,0.2-0.5,0.3-0.8h1.2
		c0,0.4-0.2,0.8-0.3,1.2c-0.2,0.4-0.4,0.7-0.7,1c-0.3,0.3-0.7,0.5-1.1,0.6S898.1,117.5,897.6,117.5z"/>
	<path class="st2" d="M906.4,117.5c-0.6,0-1.1-0.1-1.6-0.3c-0.5-0.2-0.9-0.5-1.2-0.8c-0.3-0.4-0.6-0.8-0.8-1.3
		c-0.2-0.5-0.3-1.1-0.3-1.7v-0.1c0-0.6,0.1-1.2,0.3-1.7c0.2-0.5,0.4-0.9,0.8-1.3c0.3-0.4,0.7-0.6,1.2-0.8s1-0.3,1.5-0.3
		c0.5,0,0.9,0.1,1.3,0.2c0.4,0.1,0.8,0.4,1.2,0.7c0.3,0.3,0.6,0.7,0.8,1.2c0.2,0.5,0.3,1.1,0.3,1.8v0.4h-6c0,0.9,0.3,1.6,0.7,2.1
		c0.4,0.5,1.1,0.7,1.9,0.7c1.2,0,2-0.5,2.1-1.4h1.3c-0.1,0.8-0.5,1.4-1.1,1.8C908.1,117.3,907.3,117.5,906.4,117.5z M908.6,112.6
		c-0.1-0.8-0.3-1.4-0.7-1.8c-0.4-0.4-0.9-0.5-1.6-0.5c-0.7,0-1.2,0.2-1.6,0.6c-0.4,0.4-0.7,1-0.8,1.7H908.6z"/>
	<path class="st2" d="M914.1,117.5c-0.4,0-0.7,0-1-0.1s-0.6-0.2-0.8-0.4c-0.2-0.2-0.4-0.4-0.6-0.7c-0.1-0.3-0.2-0.6-0.2-1.1
		c0-0.5,0.1-0.8,0.3-1.2c0.2-0.3,0.5-0.6,0.9-0.8c0.4-0.2,0.8-0.3,1.3-0.4c0.5-0.1,1-0.1,1.5-0.1h1.1v-0.6c0-0.6-0.1-1.1-0.4-1.4
		c-0.3-0.3-0.7-0.4-1.3-0.4c-1.1,0-1.7,0.5-1.8,1.4h-1.3c0-0.5,0.2-0.8,0.3-1.2c0.2-0.3,0.4-0.6,0.7-0.8c0.3-0.2,0.6-0.3,1-0.4
		c0.4-0.1,0.7-0.1,1.1-0.1c0.4,0,0.7,0,1.1,0.1c0.4,0.1,0.7,0.2,0.9,0.5c0.3,0.2,0.5,0.5,0.6,0.9s0.2,0.8,0.2,1.4v5.3h-1.3v-1
		c-0.3,0.4-0.6,0.7-1,0.9C915.1,117.4,914.7,117.5,914.1,117.5z M914.2,116.5c0.3,0,0.6,0,0.9-0.1c0.3-0.1,0.5-0.2,0.7-0.4
		c0.2-0.2,0.4-0.4,0.5-0.6c0.1-0.2,0.2-0.5,0.2-0.8v-1h-1.1c-0.4,0-0.8,0-1.1,0.1s-0.6,0.1-0.9,0.3c-0.2,0.1-0.4,0.3-0.6,0.5
		c-0.1,0.2-0.2,0.4-0.2,0.7c0,0.4,0.1,0.7,0.3,1C913.2,116.3,913.6,116.5,914.2,116.5z"/>
	<path class="st2" d="M924.4,117.5c-0.6,0-1.2-0.1-1.7-0.4s-0.8-0.6-1-1v1.3h-1.3v-11.8h1.3v5.1c0.1-0.2,0.3-0.4,0.4-0.6
		s0.4-0.3,0.6-0.5c0.2-0.1,0.5-0.2,0.8-0.3c0.3-0.1,0.6-0.1,0.9-0.1c0.5,0,1,0.1,1.4,0.3c0.4,0.2,0.8,0.4,1.2,0.8
		c0.3,0.3,0.6,0.8,0.8,1.3c0.2,0.5,0.3,1.1,0.3,1.7v0.1c0,0.6-0.1,1.2-0.3,1.7s-0.4,0.9-0.7,1.3c-0.3,0.4-0.7,0.6-1.1,0.8
		C925.5,117.4,925,117.5,924.4,117.5z M924.3,116.4c0.8,0,1.4-0.3,1.8-0.8c0.4-0.5,0.6-1.2,0.6-2.2v-0.1c0-0.5-0.1-0.9-0.2-1.3
		s-0.3-0.7-0.5-0.9c-0.2-0.2-0.5-0.4-0.8-0.6c-0.3-0.1-0.6-0.2-1-0.2c-0.4,0-0.7,0.1-1,0.2s-0.6,0.3-0.8,0.6
		c-0.2,0.2-0.4,0.6-0.5,0.9c-0.1,0.4-0.2,0.8-0.2,1.3v0.1c0,0.5,0.1,0.9,0.2,1.3c0.1,0.4,0.3,0.7,0.5,0.9c0.2,0.2,0.5,0.4,0.8,0.6
		C923.6,116.3,923.9,116.4,924.3,116.4z"/>
	<path class="st2" d="M930.8,107.7c-0.2,0-0.4-0.1-0.6-0.2c-0.2-0.2-0.2-0.4-0.2-0.6s0.1-0.4,0.2-0.6s0.4-0.2,0.6-0.2
		c0.2,0,0.4,0.1,0.6,0.2s0.2,0.4,0.2,0.6s-0.1,0.4-0.2,0.6C931.3,107.6,931.1,107.7,930.8,107.7z M930.2,109.4h1.3v8h-1.3V109.4z"/>
	<path class="st2" d="M934.3,105.5h1.3v11.8h-1.3V105.5z"/>
	<path class="st2" d="M939,107.7c-0.2,0-0.4-0.1-0.6-0.2c-0.2-0.2-0.2-0.4-0.2-0.6s0.1-0.4,0.2-0.6s0.4-0.2,0.6-0.2
		c0.2,0,0.4,0.1,0.6,0.2s0.2,0.4,0.2,0.6s-0.1,0.4-0.2,0.6C939.4,107.6,939.2,107.7,939,107.7z M938.4,109.4h1.3v8h-1.3V109.4z"/>
	<path class="st2" d="M944.8,117.4c-0.7,0-1.3-0.2-1.6-0.6c-0.3-0.4-0.5-0.9-0.5-1.5v-4.9h-1.1v-1.1h1.1v-1.8h1.3v1.8h1.9v1.1H944
		v4.8c0,0.8,0.3,1.2,1,1.2c0.2,0,0.4,0,0.5,0c0.2,0,0.3-0.1,0.4-0.1v1.1c-0.1,0.1-0.3,0.1-0.4,0.1
		C945.3,117.4,945.1,117.4,944.8,117.4z"/>
	<path class="st2" d="M950.2,116.5l-3.1-7.1h1.4l2.4,5.7l2.2-5.7h1.3l-4.4,10.7h-1.3L950.2,116.5z"/>
</g>
<g>
	<path class="st2" d="M921.4,268.6h6.4v1.1h-5v3.7h4.1v1.1h-4.1v4h5.3v1.1h-6.6V268.6z"/>
	<path class="st2" d="M930.1,271.5h1.3v1.3c0.2-0.4,0.5-0.7,0.9-1c0.4-0.3,1-0.4,1.6-0.4c0.4,0,0.8,0.1,1.1,0.2s0.6,0.3,0.9,0.6
		c0.2,0.3,0.4,0.6,0.6,1c0.1,0.4,0.2,0.9,0.2,1.5v4.9h-1.3v-5c0-0.7-0.2-1.2-0.5-1.5c-0.3-0.3-0.8-0.5-1.4-0.5c-0.3,0-0.6,0-0.8,0.1
		c-0.3,0.1-0.5,0.2-0.7,0.4s-0.4,0.4-0.5,0.7s-0.2,0.6-0.2,0.9v4.8h-1.3V271.5z"/>
	<path class="st2" d="M942.7,279.6c-0.6,0-1.1-0.1-1.6-0.3c-0.5-0.2-0.9-0.5-1.2-0.8c-0.3-0.4-0.6-0.8-0.8-1.3
		c-0.2-0.5-0.3-1.1-0.3-1.7v-0.1c0-0.6,0.1-1.2,0.3-1.7c0.2-0.5,0.4-0.9,0.8-1.3c0.3-0.4,0.7-0.6,1.2-0.8c0.5-0.2,1-0.3,1.5-0.3
		c0.5,0,0.9,0.1,1.3,0.2c0.4,0.1,0.8,0.4,1.1,0.7c0.3,0.3,0.6,0.7,0.8,1.2c0.2,0.5,0.3,1.1,0.3,1.8v0.4h-6c0,0.9,0.3,1.6,0.7,2.1
		c0.4,0.5,1.1,0.7,1.9,0.7c1.2,0,2-0.5,2.1-1.4h1.3c-0.1,0.8-0.5,1.4-1.1,1.8C944.3,279.4,943.6,279.6,942.7,279.6z M944.8,274.7
		c-0.1-0.8-0.3-1.4-0.7-1.8c-0.4-0.4-0.9-0.5-1.6-0.5c-0.7,0-1.2,0.2-1.6,0.6c-0.4,0.4-0.7,1-0.8,1.7H944.8z"/>
	<path class="st2" d="M948.3,271.5h1.3v1.4c0.1-0.2,0.3-0.4,0.4-0.6c0.2-0.2,0.3-0.3,0.5-0.5s0.4-0.2,0.7-0.3
		c0.3-0.1,0.6-0.1,0.9-0.1v1.2c-0.4,0-0.8,0.1-1.1,0.2c-0.3,0.1-0.6,0.2-0.8,0.4s-0.4,0.4-0.5,0.8c-0.1,0.3-0.2,0.7-0.2,1.2v4.4
		h-1.3V271.5z"/>
	<path class="st2" d="M957.1,282.4c-0.6,0-1.1-0.1-1.5-0.2c-0.4-0.1-0.8-0.3-1.1-0.5s-0.5-0.5-0.7-0.8c-0.2-0.3-0.3-0.6-0.3-1h1.3
		c0.2,0.9,1,1.4,2.3,1.4c0.8,0,1.4-0.2,1.9-0.6s0.7-1,0.7-1.9v-1.2c-0.1,0.2-0.3,0.4-0.4,0.6c-0.2,0.2-0.4,0.3-0.6,0.5
		c-0.2,0.1-0.5,0.2-0.8,0.3c-0.3,0.1-0.6,0.1-0.8,0.1c-0.5,0-1-0.1-1.4-0.3s-0.8-0.4-1.2-0.8c-0.3-0.3-0.6-0.7-0.8-1.2
		c-0.2-0.5-0.3-1-0.3-1.5v-0.1c0-0.5,0.1-1,0.3-1.5c0.2-0.5,0.4-0.9,0.8-1.3c0.3-0.4,0.7-0.6,1.2-0.9s1-0.3,1.5-0.3
		c0.7,0,1.2,0.1,1.6,0.4s0.7,0.6,1,1v-1.3h1.3v7.4c0,0.6-0.1,1.1-0.3,1.5c-0.2,0.4-0.5,0.8-0.8,1.1c-0.3,0.3-0.7,0.5-1.2,0.6
		C958.2,282.3,957.7,282.4,957.1,282.4z M957.1,278.2c0.4,0,0.7-0.1,1-0.2c0.3-0.1,0.6-0.3,0.8-0.5c0.2-0.2,0.4-0.5,0.5-0.9
		c0.1-0.3,0.2-0.7,0.2-1.2v-0.1c0-0.9-0.2-1.6-0.7-2.1s-1.1-0.7-1.9-0.7c-0.4,0-0.8,0.1-1.1,0.2c-0.3,0.1-0.6,0.3-0.8,0.6
		c-0.2,0.2-0.4,0.5-0.5,0.9c-0.1,0.3-0.2,0.7-0.2,1.1v0.1c0,0.4,0.1,0.8,0.2,1.2c0.1,0.3,0.3,0.6,0.5,0.9c0.2,0.2,0.5,0.4,0.8,0.5
		C956.5,278.1,956.8,278.2,957.1,278.2z"/>
	<path class="st2" d="M965.9,278.7l-3.1-7.1h1.4l2.4,5.7l2.2-5.7h1.3l-4.4,10.7h-1.3L965.9,278.7z"/>
</g>
<g>
	<path class="st2" d="M780.4,437.3h1.3v10.9h-1.3V437.3z"/>
	<path class="st2" d="M784.6,440.2h1.3v1.3c0.2-0.4,0.5-0.7,0.9-1c0.4-0.3,1-0.4,1.6-0.4c0.4,0,0.8,0.1,1.1,0.2
		c0.3,0.1,0.6,0.3,0.9,0.6c0.2,0.3,0.4,0.6,0.6,1c0.1,0.4,0.2,0.9,0.2,1.5v4.9H790v-5c0-0.7-0.2-1.2-0.5-1.5
		c-0.3-0.3-0.8-0.5-1.4-0.5c-0.3,0-0.6,0-0.8,0.1c-0.3,0.1-0.5,0.2-0.7,0.4s-0.4,0.4-0.5,0.7s-0.2,0.6-0.2,0.9v4.8h-1.3V440.2z"/>
	<path class="st2" d="M796.4,448.3c-1,0-1.7-0.2-2.2-0.7c-0.5-0.5-0.8-1.1-0.9-1.9h1.2c0.1,0.5,0.2,0.9,0.5,1.1
		c0.3,0.3,0.7,0.4,1.4,0.4c0.6,0,1.1-0.1,1.3-0.3c0.3-0.2,0.4-0.5,0.4-0.9c0-0.4-0.2-0.7-0.5-0.9s-0.8-0.3-1.4-0.4
		c-0.5-0.1-1-0.2-1.3-0.3s-0.6-0.3-0.9-0.5s-0.4-0.4-0.5-0.7s-0.1-0.6-0.1-0.9c0-0.4,0.1-0.7,0.2-1c0.2-0.3,0.4-0.5,0.6-0.7
		c0.3-0.2,0.5-0.3,0.9-0.4c0.3-0.1,0.6-0.1,1-0.1c0.4,0,0.7,0,1,0.1c0.3,0.1,0.6,0.2,0.9,0.4c0.3,0.2,0.5,0.4,0.6,0.7
		c0.2,0.3,0.3,0.7,0.3,1.1h-1.2c-0.1-0.4-0.3-0.8-0.5-1c-0.3-0.2-0.6-0.3-1.2-0.3c-0.5,0-0.8,0.1-1.1,0.3s-0.4,0.5-0.4,0.8
		c0,0.2,0,0.3,0.1,0.5s0.2,0.2,0.3,0.3c0.1,0.1,0.3,0.2,0.6,0.3c0.2,0.1,0.5,0.1,0.9,0.2c0.4,0.1,0.8,0.2,1.1,0.3
		c0.3,0.1,0.6,0.2,0.9,0.4c0.2,0.2,0.4,0.4,0.6,0.7c0.1,0.3,0.2,0.6,0.2,1c0,0.7-0.2,1.3-0.7,1.8
		C798.1,448.1,797.3,448.3,796.4,448.3z"/>
	<path class="st2" d="M803.8,448.3c-0.7,0-1.3-0.2-1.6-0.6c-0.3-0.4-0.5-0.9-0.5-1.5v-4.9h-1.1v-1.1h1.1v-1.8h1.3v1.8h1.9v1.1h-1.9
		v4.8c0,0.8,0.3,1.2,1,1.2c0.2,0,0.4,0,0.5,0c0.2,0,0.3-0.1,0.4-0.1v1.1c-0.1,0.1-0.3,0.1-0.4,0.1
		C804.3,448.3,804.1,448.3,803.8,448.3z"/>
	<path class="st2" d="M807,440.2h1.3v1.4c0.1-0.2,0.3-0.4,0.4-0.6c0.2-0.2,0.3-0.3,0.5-0.5c0.2-0.1,0.4-0.2,0.7-0.3
		c0.3-0.1,0.6-0.1,0.9-0.1v1.2c-0.4,0-0.8,0.1-1.1,0.2s-0.6,0.2-0.8,0.4c-0.2,0.2-0.4,0.4-0.5,0.8c-0.1,0.3-0.2,0.7-0.2,1.2v4.4H807
		V440.2z"/>
	<path class="st2" d="M815.6,448.3c-0.4,0-0.8-0.1-1.1-0.2c-0.3-0.1-0.6-0.3-0.9-0.5c-0.2-0.2-0.4-0.6-0.6-1
		c-0.1-0.4-0.2-0.9-0.2-1.4v-5h1.3v5c0,0.7,0.1,1.2,0.4,1.5c0.3,0.3,0.8,0.5,1.4,0.5c0.3,0,0.6,0,0.8-0.1c0.3-0.1,0.5-0.2,0.7-0.4
		s0.4-0.4,0.5-0.7s0.2-0.6,0.2-0.9v-4.8h1.3v8h-1.3v-1.3c-0.2,0.4-0.5,0.7-0.9,1C816.8,448.2,816.2,448.3,815.6,448.3z"/>
	<path class="st2" d="M822.1,440.2h1.3v1.2c0.2-0.4,0.5-0.7,0.9-1c0.4-0.3,0.9-0.4,1.5-0.4c0.5,0,1,0.1,1.4,0.3
		c0.4,0.2,0.7,0.6,0.9,1.1c0.1-0.3,0.3-0.5,0.5-0.7c0.2-0.2,0.4-0.3,0.7-0.5c0.2-0.1,0.5-0.2,0.8-0.3c0.3-0.1,0.5-0.1,0.8-0.1
		c0.4,0,0.7,0.1,1,0.2c0.3,0.1,0.6,0.3,0.9,0.5c0.2,0.3,0.4,0.6,0.6,1c0.1,0.4,0.2,0.9,0.2,1.5v4.9h-1.3v-5c0-0.7-0.1-1.2-0.4-1.5
		c-0.3-0.3-0.7-0.5-1.3-0.5c-0.3,0-0.5,0-0.8,0.1c-0.2,0.1-0.5,0.2-0.7,0.4s-0.4,0.4-0.5,0.7c-0.1,0.3-0.2,0.6-0.2,0.9v4.9h-1.3v-5
		c0-0.7-0.1-1.2-0.4-1.5c-0.3-0.3-0.7-0.5-1.3-0.5c-0.3,0-0.5,0-0.8,0.1c-0.2,0.1-0.5,0.2-0.7,0.4s-0.4,0.4-0.5,0.7
		c-0.1,0.3-0.2,0.6-0.2,0.9v4.9h-1.3V440.2z"/>
	<path class="st2" d="M839.4,448.3c-0.6,0-1.1-0.1-1.6-0.3c-0.5-0.2-0.9-0.5-1.2-0.8c-0.3-0.4-0.6-0.8-0.8-1.3
		c-0.2-0.5-0.3-1.1-0.3-1.7v-0.1c0-0.6,0.1-1.2,0.3-1.7c0.2-0.5,0.4-0.9,0.8-1.3s0.7-0.6,1.2-0.8s1-0.3,1.5-0.3
		c0.5,0,0.9,0.1,1.3,0.2c0.4,0.1,0.8,0.4,1.1,0.7s0.6,0.7,0.8,1.2c0.2,0.5,0.3,1.1,0.3,1.8v0.4h-6c0,0.9,0.3,1.6,0.7,2.1
		s1.1,0.7,1.9,0.7c1.2,0,2-0.5,2.1-1.4h1.3c-0.1,0.8-0.5,1.4-1.1,1.8C841.1,448.1,840.3,448.3,839.4,448.3z M841.6,443.4
		c-0.1-0.8-0.3-1.4-0.7-1.8c-0.4-0.4-0.9-0.5-1.6-0.5c-0.7,0-1.2,0.2-1.6,0.6s-0.7,1-0.8,1.7H841.6z"/>
	<path class="st2" d="M845,440.2h1.3v1.3c0.2-0.4,0.5-0.7,0.9-1c0.4-0.3,1-0.4,1.6-0.4c0.4,0,0.8,0.1,1.1,0.2
		c0.3,0.1,0.6,0.3,0.9,0.6c0.2,0.3,0.4,0.6,0.6,1c0.1,0.4,0.2,0.9,0.2,1.5v4.9h-1.3v-5c0-0.7-0.2-1.2-0.5-1.5
		c-0.3-0.3-0.8-0.5-1.4-0.5c-0.3,0-0.6,0-0.8,0.1c-0.3,0.1-0.5,0.2-0.7,0.4s-0.4,0.4-0.5,0.7s-0.2,0.6-0.2,0.9v4.8H845V440.2z"/>
	<path class="st2" d="M856.7,448.3c-0.7,0-1.3-0.2-1.6-0.6c-0.3-0.4-0.5-0.9-0.5-1.5v-4.9h-1.1v-1.1h1.1v-1.8h1.3v1.8h1.9v1.1h-1.9
		v4.8c0,0.8,0.3,1.2,1,1.2c0.2,0,0.4,0,0.5,0c0.2,0,0.3-0.1,0.4-0.1v1.1c-0.1,0.1-0.3,0.1-0.4,0.1
		C857.2,448.3,857,448.3,856.7,448.3z"/>
	<path class="st2" d="M861.9,448.3c-0.4,0-0.7,0-1-0.1c-0.3-0.1-0.6-0.2-0.8-0.4c-0.2-0.2-0.4-0.4-0.6-0.7c-0.1-0.3-0.2-0.6-0.2-1.1
		c0-0.5,0.1-0.8,0.3-1.2c0.2-0.3,0.5-0.6,0.9-0.8c0.4-0.2,0.8-0.3,1.3-0.4c0.5-0.1,1-0.1,1.5-0.1h1.1v-0.6c0-0.6-0.1-1.1-0.4-1.4
		c-0.3-0.3-0.7-0.4-1.3-0.4c-1.1,0-1.7,0.5-1.8,1.4h-1.3c0-0.5,0.2-0.8,0.3-1.2c0.2-0.3,0.4-0.6,0.7-0.8c0.3-0.2,0.6-0.3,1-0.4
		c0.4-0.1,0.7-0.1,1.1-0.1c0.4,0,0.7,0,1.1,0.1c0.4,0.1,0.7,0.2,0.9,0.5c0.3,0.2,0.5,0.5,0.6,0.9s0.2,0.8,0.2,1.4v5.3h-1.3v-1
		c-0.3,0.4-0.6,0.7-1,0.9S862.5,448.3,861.9,448.3z M862.1,447.3c0.3,0,0.6,0,0.9-0.1c0.3-0.1,0.5-0.2,0.7-0.4
		c0.2-0.2,0.4-0.4,0.5-0.6c0.1-0.2,0.2-0.5,0.2-0.8v-1h-1.1c-0.4,0-0.8,0-1.1,0.1c-0.3,0.1-0.6,0.1-0.9,0.3s-0.4,0.3-0.6,0.5
		c-0.1,0.2-0.2,0.4-0.2,0.7c0,0.4,0.1,0.7,0.3,1C861.1,447.2,861.5,447.3,862.1,447.3z"/>
	<path class="st2" d="M868.4,436.4h1.3v11.8h-1.3V436.4z"/>
	<path class="st2" d="M872.4,440.2h1.3v1.3c0.2-0.4,0.5-0.7,0.9-1c0.4-0.3,1-0.4,1.6-0.4c0.4,0,0.8,0.1,1.1,0.2
		c0.3,0.1,0.6,0.3,0.9,0.6c0.2,0.3,0.4,0.6,0.6,1c0.1,0.4,0.2,0.9,0.2,1.5v4.9h-1.3v-5c0-0.7-0.2-1.2-0.5-1.5
		c-0.3-0.3-0.8-0.5-1.4-0.5c-0.3,0-0.6,0-0.8,0.1c-0.3,0.1-0.5,0.2-0.7,0.4s-0.4,0.4-0.5,0.7s-0.2,0.6-0.2,0.9v4.8h-1.3V440.2z"/>
	<path class="st2" d="M885,448.3c-0.6,0-1.1-0.1-1.6-0.3s-0.9-0.5-1.2-0.8c-0.3-0.4-0.6-0.8-0.8-1.3c-0.2-0.5-0.3-1.1-0.3-1.7v-0.1
		c0-0.6,0.1-1.2,0.3-1.7c0.2-0.5,0.4-0.9,0.8-1.3c0.3-0.4,0.7-0.6,1.2-0.8s1-0.3,1.5-0.3c0.5,0,0.9,0.1,1.3,0.2
		c0.4,0.1,0.8,0.4,1.2,0.7c0.3,0.3,0.6,0.7,0.8,1.2c0.2,0.5,0.3,1.1,0.3,1.8v0.4h-6c0,0.9,0.3,1.6,0.7,2.1c0.4,0.5,1.1,0.7,1.9,0.7
		c1.2,0,2-0.5,2.1-1.4h1.3c-0.1,0.8-0.5,1.4-1.1,1.8C886.7,448.1,885.9,448.3,885,448.3z M887.2,443.4c-0.1-0.8-0.3-1.4-0.7-1.8
		c-0.4-0.4-0.9-0.5-1.6-0.5c-0.6,0-1.2,0.2-1.6,0.6c-0.4,0.4-0.7,1-0.8,1.7H887.2z"/>
	<path class="st2" d="M893.1,448.3c-1,0-1.7-0.2-2.2-0.7c-0.5-0.5-0.8-1.1-0.9-1.9h1.2c0.1,0.5,0.2,0.9,0.5,1.1
		c0.3,0.3,0.7,0.4,1.4,0.4c0.6,0,1.1-0.1,1.3-0.3s0.4-0.5,0.4-0.9c0-0.4-0.2-0.7-0.5-0.9s-0.8-0.3-1.4-0.4c-0.5-0.1-1-0.2-1.3-0.3
		s-0.6-0.3-0.9-0.5c-0.2-0.2-0.4-0.4-0.5-0.7s-0.1-0.6-0.1-0.9c0-0.4,0.1-0.7,0.2-1c0.2-0.3,0.4-0.5,0.6-0.7
		c0.3-0.2,0.5-0.3,0.9-0.4c0.3-0.1,0.6-0.1,1-0.1c0.4,0,0.7,0,1,0.1c0.3,0.1,0.6,0.2,0.9,0.4c0.3,0.2,0.5,0.4,0.6,0.7
		c0.2,0.3,0.3,0.7,0.3,1.1h-1.2c-0.1-0.4-0.3-0.8-0.5-1c-0.3-0.2-0.6-0.3-1.1-0.3c-0.5,0-0.8,0.1-1.1,0.3c-0.3,0.2-0.4,0.5-0.4,0.8
		c0,0.2,0,0.3,0.1,0.5s0.2,0.2,0.3,0.3c0.1,0.1,0.3,0.2,0.6,0.3c0.2,0.1,0.5,0.1,0.9,0.2c0.4,0.1,0.8,0.2,1.1,0.3
		c0.3,0.1,0.6,0.2,0.9,0.4c0.2,0.2,0.4,0.4,0.6,0.7c0.1,0.3,0.2,0.6,0.2,1c0,0.7-0.2,1.3-0.7,1.8
		C894.8,448.1,894.1,448.3,893.1,448.3z"/>
	<path class="st2" d="M900.6,448.3c-1,0-1.7-0.2-2.2-0.7c-0.5-0.5-0.8-1.1-0.9-1.9h1.2c0.1,0.5,0.2,0.9,0.5,1.1
		c0.3,0.3,0.7,0.4,1.4,0.4c0.6,0,1.1-0.1,1.3-0.3c0.3-0.2,0.4-0.5,0.4-0.9c0-0.4-0.2-0.7-0.5-0.9s-0.8-0.3-1.4-0.4
		c-0.5-0.1-1-0.2-1.3-0.3s-0.6-0.3-0.9-0.5s-0.4-0.4-0.5-0.7s-0.1-0.6-0.1-0.9c0-0.4,0.1-0.7,0.2-1c0.2-0.3,0.4-0.5,0.6-0.7
		c0.3-0.2,0.5-0.3,0.9-0.4c0.3-0.1,0.6-0.1,1-0.1c0.4,0,0.7,0,1,0.1c0.3,0.1,0.6,0.2,0.9,0.4c0.3,0.2,0.5,0.4,0.6,0.7
		c0.2,0.3,0.3,0.7,0.3,1.1h-1.2c-0.1-0.4-0.3-0.8-0.5-1c-0.3-0.2-0.6-0.3-1.2-0.3c-0.5,0-0.8,0.1-1.1,0.3s-0.4,0.5-0.4,0.8
		c0,0.2,0,0.3,0.1,0.5s0.2,0.2,0.3,0.3c0.1,0.1,0.3,0.2,0.6,0.3c0.2,0.1,0.5,0.1,0.9,0.2c0.4,0.1,0.8,0.2,1.1,0.3
		c0.3,0.1,0.6,0.2,0.9,0.4c0.2,0.2,0.4,0.4,0.6,0.7c0.1,0.3,0.2,0.6,0.2,1c0,0.7-0.2,1.3-0.7,1.8
		C902.3,448.1,901.6,448.3,900.6,448.3z"/>
</g>
<g>
	<path class="st2" d="M648,437.3h1.3v9.8h5v1.1H648V437.3z"/>
	<path class="st2" d="M656.9,438.6c-0.2,0-0.4-0.1-0.6-0.2c-0.2-0.2-0.2-0.4-0.2-0.6s0.1-0.4,0.2-0.6c0.2-0.2,0.4-0.2,0.6-0.2
		c0.2,0,0.4,0.1,0.6,0.2c0.2,0.2,0.2,0.4,0.2,0.6s-0.1,0.4-0.2,0.6C657.3,438.5,657.1,438.6,656.9,438.6z M656.2,440.2h1.3v8h-1.3
		V440.2z"/>
	<path class="st2" d="M659.4,440.2h1.4l2.4,6.7l2.3-6.7h1.3l-2.9,8h-1.6L659.4,440.2z"/>
	<path class="st2" d="M671.6,448.3c-0.6,0-1.1-0.1-1.6-0.3c-0.5-0.2-0.9-0.5-1.2-0.8c-0.3-0.4-0.6-0.8-0.8-1.3
		c-0.2-0.5-0.3-1.1-0.3-1.7v-0.1c0-0.6,0.1-1.2,0.3-1.7c0.2-0.5,0.4-0.9,0.8-1.3c0.3-0.4,0.7-0.6,1.2-0.8s1-0.3,1.5-0.3
		c0.5,0,0.9,0.1,1.3,0.2c0.4,0.1,0.8,0.4,1.1,0.7c0.3,0.3,0.6,0.7,0.8,1.2c0.2,0.5,0.3,1.1,0.3,1.8v0.4h-6c0,0.9,0.3,1.6,0.7,2.1
		c0.4,0.5,1.1,0.7,1.9,0.7c1.2,0,2-0.5,2.1-1.4h1.3c-0.1,0.8-0.5,1.4-1.1,1.8C673.3,448.1,672.5,448.3,671.6,448.3z M673.8,443.4
		c-0.1-0.8-0.3-1.4-0.7-1.8c-0.4-0.4-0.9-0.5-1.6-0.5c-0.6,0-1.2,0.2-1.6,0.6c-0.4,0.4-0.7,1-0.8,1.7H673.8z"/>
	<path class="st2" d="M677.2,440.2h1.3v1.3c0.2-0.4,0.5-0.7,0.9-1c0.4-0.3,1-0.4,1.6-0.4c0.4,0,0.8,0.1,1.1,0.2
		c0.3,0.1,0.6,0.3,0.9,0.6c0.2,0.3,0.4,0.6,0.6,1c0.1,0.4,0.2,0.9,0.2,1.5v4.9h-1.3v-5c0-0.7-0.2-1.2-0.5-1.5
		c-0.3-0.3-0.8-0.5-1.4-0.5c-0.3,0-0.6,0-0.8,0.1c-0.3,0.1-0.5,0.2-0.7,0.4s-0.4,0.4-0.5,0.7c-0.1,0.3-0.2,0.6-0.2,0.9v4.8h-1.3
		V440.2z"/>
	<path class="st2" d="M689.7,448.3c-0.6,0-1.1-0.1-1.6-0.3c-0.5-0.2-0.9-0.5-1.2-0.8c-0.3-0.4-0.6-0.8-0.8-1.3
		c-0.2-0.5-0.3-1.1-0.3-1.7v-0.1c0-0.6,0.1-1.2,0.3-1.7c0.2-0.5,0.4-0.9,0.8-1.3c0.3-0.4,0.7-0.6,1.2-0.8s1-0.3,1.5-0.3
		c0.5,0,0.9,0.1,1.3,0.2c0.4,0.1,0.8,0.4,1.1,0.7c0.3,0.3,0.6,0.7,0.8,1.2c0.2,0.5,0.3,1.1,0.3,1.8v0.4h-6c0,0.9,0.3,1.6,0.7,2.1
		c0.4,0.5,1.1,0.7,1.9,0.7c1.2,0,2-0.5,2.1-1.4h1.3c-0.1,0.8-0.5,1.4-1.1,1.8C691.4,448.1,690.7,448.3,689.7,448.3z M691.9,443.4
		c-0.1-0.8-0.3-1.4-0.7-1.8c-0.4-0.4-0.9-0.5-1.6-0.5c-0.6,0-1.2,0.2-1.6,0.6c-0.4,0.4-0.7,1-0.8,1.7H691.9z"/>
	<path class="st2" d="M697.9,448.3c-1,0-1.7-0.2-2.2-0.7c-0.5-0.5-0.8-1.1-0.9-1.9h1.2c0.1,0.5,0.2,0.9,0.5,1.1
		c0.3,0.3,0.7,0.4,1.4,0.4c0.6,0,1.1-0.1,1.3-0.3c0.3-0.2,0.4-0.5,0.4-0.9c0-0.4-0.2-0.7-0.5-0.9s-0.8-0.3-1.4-0.4
		c-0.5-0.1-1-0.2-1.3-0.3s-0.6-0.3-0.9-0.5c-0.2-0.2-0.4-0.4-0.5-0.7s-0.1-0.6-0.1-0.9c0-0.4,0.1-0.7,0.2-1c0.2-0.3,0.4-0.5,0.6-0.7
		c0.3-0.2,0.5-0.3,0.9-0.4s0.6-0.1,1-0.1c0.4,0,0.7,0,1,0.1c0.3,0.1,0.6,0.2,0.9,0.4c0.3,0.2,0.5,0.4,0.6,0.7
		c0.2,0.3,0.3,0.7,0.3,1.1h-1.2c-0.1-0.4-0.3-0.8-0.5-1c-0.3-0.2-0.6-0.3-1.1-0.3c-0.5,0-0.8,0.1-1.1,0.3c-0.3,0.2-0.4,0.5-0.4,0.8
		c0,0.2,0,0.3,0.1,0.5s0.2,0.2,0.3,0.3c0.1,0.1,0.3,0.2,0.6,0.3c0.2,0.1,0.5,0.1,0.9,0.2c0.4,0.1,0.8,0.2,1.1,0.3
		c0.3,0.1,0.6,0.2,0.9,0.4c0.2,0.2,0.4,0.4,0.6,0.7c0.1,0.3,0.2,0.6,0.2,1c0,0.7-0.2,1.3-0.7,1.8
		C699.6,448.1,698.8,448.3,697.9,448.3z"/>
	<path class="st2" d="M705.4,448.3c-1,0-1.7-0.2-2.2-0.7c-0.5-0.5-0.8-1.1-0.9-1.9h1.2c0.1,0.5,0.2,0.9,0.5,1.1
		c0.3,0.3,0.7,0.4,1.4,0.4c0.6,0,1.1-0.1,1.3-0.3c0.3-0.2,0.4-0.5,0.4-0.9c0-0.4-0.2-0.7-0.5-0.9s-0.8-0.3-1.4-0.4
		c-0.5-0.1-1-0.2-1.3-0.3s-0.6-0.3-0.9-0.5c-0.2-0.2-0.4-0.4-0.5-0.7s-0.1-0.6-0.1-0.9c0-0.4,0.1-0.7,0.2-1c0.2-0.3,0.4-0.5,0.6-0.7
		c0.3-0.2,0.5-0.3,0.9-0.4s0.6-0.1,1-0.1c0.4,0,0.7,0,1,0.1c0.3,0.1,0.6,0.2,0.9,0.4c0.3,0.2,0.5,0.4,0.6,0.7
		c0.2,0.3,0.3,0.7,0.3,1.1h-1.2c-0.1-0.4-0.3-0.8-0.5-1c-0.3-0.2-0.6-0.3-1.1-0.3c-0.5,0-0.8,0.1-1.1,0.3c-0.3,0.2-0.4,0.5-0.4,0.8
		c0,0.2,0,0.3,0.1,0.5s0.2,0.2,0.3,0.3c0.1,0.1,0.3,0.2,0.6,0.3c0.2,0.1,0.5,0.1,0.9,0.2c0.4,0.1,0.8,0.2,1.1,0.3
		c0.3,0.1,0.6,0.2,0.9,0.4c0.2,0.2,0.4,0.4,0.6,0.7c0.1,0.3,0.2,0.6,0.2,1c0,0.7-0.2,1.3-0.7,1.8
		C707.1,448.1,706.3,448.3,705.4,448.3z"/>
</g>
<g>
	<path class="st2" d="M534.1,279.4c-0.7,0-1.3-0.1-1.9-0.3c-0.5-0.2-0.9-0.4-1.2-0.8c-0.3-0.3-0.6-0.7-0.7-1.1s-0.3-0.9-0.3-1.3h1.3
		c0,0.3,0.1,0.6,0.2,0.9s0.3,0.5,0.5,0.8c0.2,0.2,0.5,0.4,0.8,0.5c0.4,0.1,0.8,0.2,1.3,0.2c0.3,0,0.7,0,1-0.1
		c0.3-0.1,0.6-0.2,0.8-0.4c0.2-0.2,0.4-0.4,0.5-0.7c0.1-0.3,0.2-0.5,0.2-0.8s0-0.6-0.1-0.8c-0.1-0.2-0.2-0.4-0.4-0.6
		c-0.2-0.2-0.5-0.3-0.8-0.4c-0.3-0.1-0.8-0.2-1.3-0.3c-0.6-0.1-1.1-0.2-1.5-0.3s-0.8-0.3-1.1-0.6s-0.6-0.5-0.7-0.9s-0.2-0.8-0.2-1.2
		c0-0.4,0.1-0.8,0.3-1.2c0.2-0.4,0.4-0.7,0.7-0.9c0.3-0.3,0.7-0.5,1.1-0.6c0.4-0.2,0.9-0.2,1.4-0.2c1.1,0,2,0.3,2.6,0.8
		c0.6,0.5,1,1.3,1.1,2.2h-1.2c-0.1-0.7-0.4-1.2-0.8-1.5c-0.4-0.3-1-0.4-1.8-0.4c-0.8,0-1.3,0.2-1.7,0.5c-0.4,0.3-0.6,0.8-0.6,1.3
		c0,0.3,0,0.5,0.1,0.7c0.1,0.2,0.2,0.4,0.4,0.5s0.5,0.3,0.8,0.4s0.8,0.2,1.3,0.3c0.6,0.1,1.1,0.2,1.6,0.4s0.8,0.3,1.2,0.6
		c0.3,0.2,0.6,0.5,0.7,0.9c0.2,0.4,0.2,0.8,0.2,1.3c0,0.5-0.1,0.9-0.3,1.3c-0.2,0.4-0.4,0.7-0.8,1c-0.3,0.3-0.7,0.5-1.2,0.7
		C535.1,279.3,534.6,279.4,534.1,279.4z"/>
	<path class="st2" d="M540.2,271.3h1.3v1.3c0.1-0.2,0.3-0.4,0.4-0.6c0.2-0.2,0.4-0.3,0.6-0.5c0.2-0.1,0.5-0.2,0.8-0.3
		c0.3-0.1,0.6-0.1,0.9-0.1c0.5,0,1,0.1,1.4,0.3s0.8,0.4,1.1,0.8c0.3,0.3,0.6,0.8,0.8,1.3c0.2,0.5,0.3,1.1,0.3,1.7v0.1
		c0,0.6-0.1,1.2-0.3,1.7c-0.2,0.5-0.4,0.9-0.7,1.3c-0.3,0.4-0.7,0.6-1.1,0.8c-0.4,0.2-0.9,0.3-1.5,0.3c-0.7,0-1.2-0.1-1.7-0.4
		c-0.5-0.3-0.8-0.6-1-1v4.1h-1.3V271.3z M544.1,278.3c0.8,0,1.4-0.3,1.8-0.8c0.4-0.5,0.6-1.2,0.6-2.2v-0.1c0-0.5-0.1-0.9-0.2-1.3
		s-0.3-0.7-0.5-0.9c-0.2-0.2-0.5-0.4-0.8-0.6c-0.3-0.1-0.6-0.2-1-0.2c-0.4,0-0.7,0.1-1,0.2s-0.6,0.3-0.8,0.6s-0.4,0.6-0.5,0.9
		s-0.2,0.8-0.2,1.3v0.1c0,0.5,0.1,0.9,0.2,1.3c0.1,0.4,0.3,0.7,0.5,0.9c0.2,0.2,0.5,0.4,0.8,0.6
		C543.3,278.3,543.7,278.3,544.1,278.3z"/>
	<path class="st2" d="M553.2,279.4c-0.6,0-1.1-0.1-1.6-0.3c-0.5-0.2-0.9-0.5-1.2-0.8c-0.3-0.3-0.6-0.8-0.8-1.3
		c-0.2-0.5-0.3-1.1-0.3-1.7v-0.1c0-0.6,0.1-1.2,0.3-1.7c0.2-0.5,0.4-0.9,0.8-1.3c0.3-0.4,0.7-0.6,1.2-0.8c0.5-0.2,1-0.3,1.5-0.3
		c0.5,0,0.9,0.1,1.3,0.2c0.4,0.1,0.8,0.4,1.1,0.7c0.3,0.3,0.6,0.7,0.8,1.2c0.2,0.5,0.3,1.1,0.3,1.8v0.4h-6c0,0.9,0.3,1.6,0.7,2.1
		c0.4,0.5,1.1,0.7,1.9,0.7c1.2,0,2-0.5,2.1-1.4h1.3c-0.1,0.8-0.5,1.4-1.1,1.8C554.9,279.2,554.1,279.4,553.2,279.4z M555.4,274.5
		c-0.1-0.8-0.3-1.4-0.7-1.8c-0.4-0.4-0.9-0.5-1.6-0.5c-0.6,0-1.2,0.2-1.6,0.6c-0.4,0.4-0.7,1-0.8,1.7H555.4z"/>
	<path class="st2" d="M562,279.4c-0.6,0-1.1-0.1-1.6-0.3c-0.5-0.2-0.9-0.5-1.2-0.8c-0.3-0.3-0.6-0.8-0.8-1.3
		c-0.2-0.5-0.3-1.1-0.3-1.7v-0.1c0-0.6,0.1-1.2,0.3-1.7c0.2-0.5,0.4-0.9,0.8-1.3c0.3-0.4,0.7-0.6,1.2-0.8c0.5-0.2,1-0.3,1.5-0.3
		c0.5,0,0.9,0.1,1.3,0.2c0.4,0.1,0.8,0.4,1.1,0.7c0.3,0.3,0.6,0.7,0.8,1.2c0.2,0.5,0.3,1.1,0.3,1.8v0.4h-6c0,0.9,0.3,1.6,0.7,2.1
		c0.4,0.5,1.1,0.7,1.9,0.7c1.2,0,2-0.5,2.1-1.4h1.3c-0.1,0.8-0.5,1.4-1.1,1.8C563.7,279.2,562.9,279.4,562,279.4z M564.2,274.5
		c-0.1-0.8-0.3-1.4-0.7-1.8c-0.4-0.4-0.9-0.5-1.6-0.5c-0.6,0-1.2,0.2-1.6,0.6c-0.4,0.4-0.7,1-0.8,1.7H564.2z"/>
	<path class="st2" d="M570.9,279.4c-0.6,0-1.1-0.1-1.5-0.3s-0.9-0.5-1.2-0.8c-0.4-0.4-0.6-0.8-0.8-1.3c-0.2-0.5-0.3-1.1-0.3-1.7
		v-0.1c0-0.6,0.1-1.2,0.3-1.7c0.2-0.5,0.5-0.9,0.8-1.3c0.4-0.4,0.8-0.6,1.2-0.8c0.5-0.2,1-0.3,1.5-0.3c0.4,0,0.8,0.1,1.2,0.2
		c0.4,0.1,0.7,0.3,1.1,0.5c0.3,0.2,0.6,0.5,0.8,0.9c0.2,0.4,0.4,0.8,0.4,1.3h-1.2c-0.1-0.6-0.4-1.1-0.8-1.3
		c-0.4-0.3-0.9-0.4-1.4-0.4c-0.4,0-0.7,0.1-1,0.2c-0.3,0.1-0.6,0.3-0.8,0.6s-0.4,0.6-0.5,0.9c-0.1,0.4-0.2,0.8-0.2,1.3v0.1
		c0,1,0.2,1.7,0.7,2.2c0.5,0.5,1.1,0.8,1.9,0.8c0.3,0,0.6,0,0.8-0.1c0.3-0.1,0.5-0.2,0.7-0.4s0.4-0.4,0.5-0.6
		c0.1-0.2,0.2-0.5,0.3-0.8h1.2c0,0.4-0.2,0.8-0.3,1.2c-0.2,0.4-0.4,0.7-0.7,1c-0.3,0.3-0.7,0.5-1.1,0.6S571.4,279.4,570.9,279.4z"/>
	<path class="st2" d="M576.5,267.5h1.3v5.1c0.2-0.4,0.5-0.7,0.9-1c0.4-0.3,1-0.4,1.6-0.4c0.4,0,0.8,0.1,1.1,0.2
		c0.3,0.1,0.6,0.3,0.9,0.6c0.2,0.3,0.4,0.6,0.6,1c0.1,0.4,0.2,0.9,0.2,1.5v4.9h-1.3v-5c0-0.7-0.2-1.2-0.5-1.5
		c-0.3-0.3-0.8-0.5-1.4-0.5c-0.3,0-0.6,0-0.8,0.1s-0.5,0.2-0.7,0.4s-0.4,0.4-0.5,0.7c-0.1,0.3-0.2,0.6-0.2,0.9v4.8h-1.3V267.5z"/>
	<path class="st2" d="M586.4,269.6c-0.2,0-0.4-0.1-0.6-0.2c-0.2-0.2-0.2-0.4-0.2-0.6c0-0.2,0.1-0.4,0.2-0.6c0.2-0.2,0.4-0.2,0.6-0.2
		c0.2,0,0.4,0.1,0.6,0.2c0.2,0.2,0.2,0.4,0.2,0.6c0,0.2-0.1,0.4-0.2,0.6C586.8,269.5,586.6,269.6,586.4,269.6z M585.8,271.3h1.3v8
		h-1.3V271.3z"/>
	<path class="st2" d="M589.8,271.3h1.3v1.3c0.2-0.4,0.5-0.7,0.9-1c0.4-0.3,1-0.4,1.6-0.4c0.4,0,0.8,0.1,1.1,0.2
		c0.3,0.1,0.6,0.3,0.9,0.6c0.2,0.3,0.4,0.6,0.6,1c0.1,0.4,0.2,0.9,0.2,1.5v4.9h-1.3v-5c0-0.7-0.2-1.2-0.5-1.5
		c-0.3-0.3-0.8-0.5-1.4-0.5c-0.3,0-0.6,0-0.8,0.1s-0.5,0.2-0.7,0.4s-0.4,0.4-0.5,0.7c-0.1,0.3-0.2,0.6-0.2,0.9v4.8h-1.3V271.3z"/>
	<path class="st2" d="M602.4,279.4c-0.6,0-1.1-0.1-1.6-0.3c-0.5-0.2-0.9-0.5-1.2-0.8c-0.3-0.3-0.6-0.8-0.8-1.3
		c-0.2-0.5-0.3-1.1-0.3-1.7v-0.1c0-0.6,0.1-1.2,0.3-1.7c0.2-0.5,0.4-0.9,0.8-1.3c0.3-0.4,0.7-0.6,1.2-0.8c0.5-0.2,1-0.3,1.5-0.3
		c0.5,0,0.9,0.1,1.3,0.2c0.4,0.1,0.8,0.4,1.1,0.7c0.3,0.3,0.6,0.7,0.8,1.2c0.2,0.5,0.3,1.1,0.3,1.8v0.4h-6c0,0.9,0.3,1.6,0.7,2.1
		c0.4,0.5,1.1,0.7,1.9,0.7c1.2,0,2-0.5,2.1-1.4h1.3c-0.1,0.8-0.5,1.4-1.1,1.8C604,279.2,603.3,279.4,602.4,279.4z M604.5,274.5
		c-0.1-0.8-0.3-1.4-0.7-1.8c-0.4-0.4-0.9-0.5-1.6-0.5c-0.6,0-1.2,0.2-1.6,0.6c-0.4,0.4-0.7,1-0.8,1.7H604.5z"/>
	<path class="st2" d="M610.5,279.4c-1,0-1.7-0.2-2.2-0.7c-0.5-0.5-0.8-1.1-0.9-1.9h1.2c0.1,0.5,0.2,0.9,0.5,1.1s0.7,0.4,1.4,0.4
		c0.6,0,1.1-0.1,1.3-0.3c0.3-0.2,0.4-0.5,0.4-0.9c0-0.4-0.2-0.7-0.5-0.9s-0.8-0.3-1.4-0.4c-0.5-0.1-1-0.2-1.3-0.3s-0.6-0.3-0.9-0.5
		c-0.2-0.2-0.4-0.4-0.5-0.7s-0.1-0.6-0.1-0.9c0-0.4,0.1-0.7,0.2-1c0.2-0.3,0.4-0.5,0.6-0.7c0.3-0.2,0.5-0.3,0.9-0.4
		c0.3-0.1,0.6-0.1,1-0.1c0.4,0,0.7,0,1,0.1c0.3,0.1,0.6,0.2,0.9,0.4c0.3,0.2,0.5,0.4,0.6,0.7c0.2,0.3,0.3,0.7,0.3,1.1H612
		c-0.1-0.4-0.3-0.8-0.5-1c-0.3-0.2-0.6-0.3-1.1-0.3c-0.5,0-0.8,0.1-1.1,0.3c-0.3,0.2-0.4,0.5-0.4,0.8c0,0.2,0,0.3,0.1,0.5
		c0.1,0.1,0.2,0.2,0.3,0.3s0.3,0.2,0.6,0.3s0.5,0.1,0.9,0.2c0.4,0.1,0.8,0.2,1.1,0.3s0.6,0.2,0.9,0.4c0.2,0.2,0.4,0.4,0.6,0.7
		c0.1,0.3,0.2,0.6,0.2,1c0,0.7-0.2,1.3-0.7,1.8C612.2,279.2,611.5,279.4,610.5,279.4z"/>
	<path class="st2" d="M618,279.4c-1,0-1.7-0.2-2.2-0.7c-0.5-0.5-0.8-1.1-0.9-1.9h1.2c0.1,0.5,0.2,0.9,0.5,1.1s0.7,0.4,1.4,0.4
		c0.6,0,1.1-0.1,1.3-0.3c0.3-0.2,0.4-0.5,0.4-0.9c0-0.4-0.2-0.7-0.5-0.9s-0.8-0.3-1.4-0.4c-0.5-0.1-1-0.2-1.3-0.3s-0.6-0.3-0.9-0.5
		c-0.2-0.2-0.4-0.4-0.5-0.7s-0.1-0.6-0.1-0.9c0-0.4,0.1-0.7,0.2-1c0.2-0.3,0.4-0.5,0.6-0.7c0.3-0.2,0.5-0.3,0.9-0.4
		c0.3-0.1,0.6-0.1,1-0.1c0.4,0,0.7,0,1,0.1c0.3,0.1,0.6,0.2,0.9,0.4c0.3,0.2,0.5,0.4,0.6,0.7c0.2,0.3,0.3,0.7,0.3,1.1h-1.2
		c-0.1-0.4-0.3-0.8-0.5-1c-0.3-0.2-0.6-0.3-1.1-0.3c-0.5,0-0.8,0.1-1.1,0.3c-0.3,0.2-0.4,0.5-0.4,0.8c0,0.2,0,0.3,0.1,0.5
		c0.1,0.1,0.2,0.2,0.3,0.3s0.3,0.2,0.6,0.3s0.5,0.1,0.9,0.2c0.4,0.1,0.8,0.2,1.1,0.3s0.6,0.2,0.9,0.4c0.2,0.2,0.4,0.4,0.6,0.7
		c0.1,0.3,0.2,0.6,0.2,1c0,0.7-0.2,1.3-0.7,1.8C619.7,279.2,619,279.4,618,279.4z"/>
</g>
<g>
	<path class="st2" d="M581.8,106.2h1.3l3.2,9.6l3.2-9.6h1.2l-3.8,10.9h-1.6L581.8,106.2z"/>
	<path class="st2" d="M594.2,117.2c-0.4,0-0.7,0-1-0.1c-0.3-0.1-0.6-0.2-0.8-0.4c-0.2-0.2-0.4-0.4-0.6-0.7c-0.1-0.3-0.2-0.6-0.2-1.1
		c0-0.5,0.1-0.8,0.3-1.2c0.2-0.3,0.5-0.6,0.9-0.8c0.4-0.2,0.8-0.3,1.3-0.4c0.5-0.1,1-0.1,1.5-0.1h1.1v-0.6c0-0.6-0.1-1.1-0.4-1.4
		c-0.3-0.3-0.7-0.4-1.3-0.4c-1.1,0-1.7,0.5-1.8,1.4h-1.3c0-0.5,0.2-0.8,0.3-1.2c0.2-0.3,0.4-0.6,0.7-0.8c0.3-0.2,0.6-0.3,1-0.4
		c0.4-0.1,0.7-0.1,1.1-0.1c0.4,0,0.7,0,1.1,0.1c0.4,0.1,0.7,0.2,0.9,0.5c0.3,0.2,0.5,0.5,0.6,0.9c0.2,0.4,0.2,0.8,0.2,1.4v5.3h-1.3
		v-1c-0.3,0.4-0.6,0.7-1,0.9S594.8,117.2,594.2,117.2z M594.3,116.2c0.3,0,0.6,0,0.9-0.1c0.3-0.1,0.5-0.2,0.7-0.4
		c0.2-0.2,0.4-0.4,0.5-0.6c0.1-0.2,0.2-0.5,0.2-0.8v-1h-1.1c-0.4,0-0.8,0-1.1,0.1c-0.3,0.1-0.6,0.1-0.9,0.3
		c-0.2,0.1-0.4,0.3-0.6,0.5s-0.2,0.4-0.2,0.7c0,0.4,0.1,0.7,0.3,1C593.4,116.1,593.7,116.2,594.3,116.2z"/>
	<path class="st2" d="M600.6,105.3h1.3v11.8h-1.3V105.3z"/>
	<path class="st2" d="M607.9,117.2c-0.6,0-1.1-0.1-1.6-0.3c-0.5-0.2-0.9-0.5-1.2-0.8c-0.3-0.4-0.6-0.8-0.8-1.3
		c-0.2-0.5-0.3-1.1-0.3-1.7v-0.1c0-0.6,0.1-1.2,0.3-1.7c0.2-0.5,0.4-0.9,0.8-1.3c0.3-0.4,0.7-0.6,1.2-0.8s1-0.3,1.5-0.3
		c0.5,0,0.9,0.1,1.3,0.2c0.4,0.1,0.8,0.4,1.1,0.7c0.3,0.3,0.6,0.7,0.8,1.2c0.2,0.5,0.3,1.1,0.3,1.8v0.4h-6c0,0.9,0.3,1.6,0.7,2.1
		c0.4,0.5,1.1,0.7,1.9,0.7c1.2,0,2-0.5,2.1-1.4h1.3c-0.1,0.8-0.5,1.4-1.1,1.8C609.6,117,608.8,117.2,607.9,117.2z M610.1,112.3
		c-0.1-0.8-0.3-1.4-0.7-1.8c-0.4-0.4-0.9-0.5-1.6-0.5c-0.6,0-1.2,0.2-1.6,0.6c-0.4,0.4-0.7,1-0.8,1.7H610.1z"/>
	<path class="st2" d="M613.5,109.1h1.3v1.3c0.2-0.4,0.5-0.7,0.9-1c0.4-0.3,1-0.4,1.6-0.4c0.4,0,0.8,0.1,1.1,0.2
		c0.3,0.1,0.6,0.3,0.9,0.6c0.2,0.3,0.4,0.6,0.6,1c0.1,0.4,0.2,0.9,0.2,1.5v4.9h-1.3v-5c0-0.7-0.2-1.2-0.5-1.5
		c-0.3-0.3-0.8-0.5-1.4-0.5c-0.3,0-0.6,0-0.8,0.1c-0.3,0.1-0.5,0.2-0.7,0.4s-0.4,0.4-0.5,0.7c-0.1,0.3-0.2,0.6-0.2,0.9v4.8h-1.3
		V109.1z"/>
	<path class="st2" d="M626.1,117.2c-0.6,0-1.1-0.1-1.5-0.3s-0.9-0.5-1.2-0.8c-0.4-0.4-0.6-0.8-0.8-1.3c-0.2-0.5-0.3-1.1-0.3-1.7
		v-0.1c0-0.6,0.1-1.2,0.3-1.7c0.2-0.5,0.5-0.9,0.8-1.3c0.4-0.4,0.8-0.6,1.2-0.8c0.5-0.2,1-0.3,1.5-0.3c0.4,0,0.8,0.1,1.2,0.2
		c0.4,0.1,0.7,0.3,1.1,0.5c0.3,0.2,0.6,0.5,0.8,0.9c0.2,0.4,0.4,0.8,0.4,1.3h-1.2c-0.1-0.6-0.4-1.1-0.8-1.3
		c-0.4-0.3-0.9-0.4-1.4-0.4c-0.4,0-0.7,0.1-1,0.2c-0.3,0.1-0.6,0.3-0.8,0.6s-0.4,0.6-0.5,0.9c-0.1,0.4-0.2,0.8-0.2,1.3v0.1
		c0,1,0.2,1.7,0.7,2.2c0.5,0.5,1.1,0.8,1.9,0.8c0.3,0,0.6,0,0.8-0.1c0.3-0.1,0.5-0.2,0.7-0.4c0.2-0.2,0.4-0.4,0.5-0.6
		c0.1-0.2,0.2-0.5,0.3-0.8h1.2c0,0.4-0.2,0.8-0.3,1.2c-0.2,0.4-0.4,0.7-0.7,1c-0.3,0.3-0.7,0.5-1.1,0.6S626.6,117.2,626.1,117.2z"/>
	<path class="st2" d="M634.9,117.2c-0.6,0-1.1-0.1-1.6-0.3c-0.5-0.2-0.9-0.5-1.2-0.8c-0.3-0.4-0.6-0.8-0.8-1.3
		c-0.2-0.5-0.3-1.1-0.3-1.7v-0.1c0-0.6,0.1-1.2,0.3-1.7c0.2-0.5,0.4-0.9,0.8-1.3c0.3-0.4,0.7-0.6,1.2-0.8s1-0.3,1.5-0.3
		c0.5,0,0.9,0.1,1.3,0.2c0.4,0.1,0.8,0.4,1.1,0.7c0.3,0.3,0.6,0.7,0.8,1.2c0.2,0.5,0.3,1.1,0.3,1.8v0.4h-6c0,0.9,0.3,1.6,0.7,2.1
		c0.4,0.5,1.1,0.7,1.9,0.7c1.2,0,2-0.5,2.1-1.4h1.3c-0.1,0.8-0.5,1.4-1.1,1.8C636.6,117,635.8,117.2,634.9,117.2z M637.1,112.3
		c-0.1-0.8-0.3-1.4-0.7-1.8c-0.4-0.4-0.9-0.5-1.6-0.5c-0.6,0-1.2,0.2-1.6,0.6c-0.4,0.4-0.7,1-0.8,1.7H637.1z"/>
</g>
</svg>
