<?xml version="1.0" encoding="utf-8"?>
<!-- Generator: Adobe Illustrator 23.0.6, SVG Export Plug-In . SVG Version: 6.00 Build 0)  -->
<svg version="1.1" id="Layer_1" xmlns="http://www.w3.org/2000/svg" xmlns:xlink="http://www.w3.org/1999/xlink" x="0px" y="0px"
	 viewBox="0 0 1000 500" style="enable-background:new 0 0 1000 500;" xml:space="preserve">
<style type="text/css">
	.st0{clip-path:url(#SVGID_2_);}
	.st1{fill:#AEAEAE;fill-opacity:0.5;}
	.st2{fill:#154ED0;fill-opacity:0.5;}
	.st3{fill:#BA7ECF;fill-opacity:0.5;}
	.st4{fill:#ACACAC;fill-opacity:0.5;}
	.st5{fill:#C1BDC8;fill-opacity:0.5;}
	.st6{fill:#D09ACD;fill-opacity:0.5;}
	.st7{fill:#72BDE0;fill-opacity:0.5;}
	.st8{fill:#3099A4;fill-opacity:0.5;}
	.st9{fill:#B768D3;fill-opacity:0.5;}
	.st10{fill:#B32854;fill-opacity:0.5;}
	.st11{fill:#85AAA4;fill-opacity:0.5;}
	.st12{fill:#24605D;fill-opacity:0.5;}
	.st13{fill:#707C86;fill-opacity:0.5;}
	.st14{fill:#BDBDBD;fill-opacity:0.5;}
	.st15{fill-opacity:0.5;}
	.st16{fill:#3D3A54;fill-opacity:0.5;}
	.st17{fill:#828D97;fill-opacity:0.5;}
	.st18{fill:#4AAECA;fill-opacity:0.5;}
	.st19{fill:#4283D5;fill-opacity:0.5;}
	.st20{fill:#DA81D8;fill-opacity:0.5;}
	.st21{fill:#73D3D6;fill-opacity:0.5;}
	.st22{fill:#6139C2;fill-opacity:0.5;}
	.st23{fill:#008AA3;fill-opacity:0.5;}
	.st24{fill:#A47C8E;fill-opacity:0.5;}
	.st25{fill:#F75959;fill-opacity:0.5;}
	.st26{fill:#7890CD;fill-opacity:0.5;}
	.st27{fill:#943DA3;fill-opacity:0.5;}
	.st28{fill:#A9A9A9;fill-opacity:0.5;}
	.st29{fill:#1D812D;fill-opacity:0.5;}
	.st30{fill:#D19ED2;fill-opacity:0.5;}
	.st31{fill:#64D1D1;fill-opacity:0.5;}
	.st32{fill:#ABB9B8;fill-opacity:0.5;}
	.st33{fill:#C52C6F;fill-opacity:0.5;}
	.st34{fill:#CD91F4;fill-opacity:0.5;}
	.st35{fill:#00B4C7;fill-opacity:0.5;}
	.st36{fill:#55F7E7;fill-opacity:0.5;}
	.st37{fill:#596B6A;fill-opacity:0.5;}
	.st38{fill:#4BD9F6;fill-opacity:0.5;}
	.st39{fill:#2AF594;fill-opacity:0.5;}
	.st40{fill:#C9C9C9;fill-opacity:0.5;}
	.st41{fill:#13BEBE;fill-opacity:0.5;}
	.st42{fill:#5DC2B9;fill-opacity:0.5;}
	.st43{fill:#9D9D9D;fill-opacity:0.5;}
	.st44{fill:#743691;fill-opacity:0.5;}
	.st45{fill:#0918B9;fill-opacity:0.5;}
	.st46{fill:#00B4BA;fill-opacity:0.5;}
	.st47{fill:#1D3C3F;fill-opacity:0.5;}
	.st48{fill:#708186;fill-opacity:0.5;}
	.st49{fill:#187599;fill-opacity:0.5;}
	.st50{fill:#707070;fill-opacity:0.5;}
	.st51{clip-path:url(#SVGID_4_);}
</style>
<g>
	<g>
		<defs>
			<rect id="SVGID_1_" width="500" height="500"/>
		</defs>
		<clipPath id="SVGID_2_">
			<use xlink:href="#SVGID_1_"  style="overflow:visible;"/>
		</clipPath>
		<g class="st0">
			<g transform="rotate(144.39547990831264) translate(85.9587253846766, 90.82407957776735)">
				<polygon class="st1" points="-98.2,-381.1 -228.6,-309.8 -139.5,-179 -57.6,-348.7 -37.5,-344.2 -50,-355 -57.7,-486.8 				"/>
			</g>
			<g transform="rotate(22.766958974500753) translate(69.87222201066163, 127.19481970467814)">
				<polygon class="st2" points="319.7,127.6 142.3,176 267.8,257.2 327.3,133.7 347.4,138.4 332.9,129.2 327.3,-53.5 				"/>
			</g>
			<g transform="rotate(276.439315856506) translate(70.35178208948889, -115.49243530540112)">
				<polygon class="st3" points="-307.8,206.8 -361.7,308.8 -291.2,423.5 -220.4,276.5 -193.3,282.6 -205.8,264.9 -220.4,232.8 				
					"/>
			</g>
			<g transform="rotate(20.699742538809712) translate(-193.1827662406085, -71.57293977296337)">
				<polygon class="st4" points="311.8,137.1 167.9,180.7 252.3,290.7 322.3,145.5 347.5,151.2 330.9,138.6 322.3,73.7 				"/>
			</g>
			<g transform="rotate(164.63663754260193) translate(-118.37871401944552, -156.81388958717542)">
				<polygon class="st5" points="-197.9,-325.8 -295.5,-279.8 -264,-122.1 -174.9,-307.3 -138,-298.9 -165.6,-314.6 -174.9,-370.8 
									"/>
			</g>
			<g transform="rotate(43.55938517502771) translate(186.48487798086603, 122.84965482118037)">
				<polygon class="st6" points="293,-39.3 267.1,28.6 284.8,151.5 353.4,8.9 378.8,14.6 366,-1.1 353.4,-38.6 				"/>
			</g>
			<g transform="rotate(113.97229989459193) translate(-72.33819105123783, -20.19767665451306)">
				<polygon class="st7" points="110.3,-343.2 -64.7,-286.3 39.2,-148 126.9,-329.9 146.9,-325.4 144.1,-343.8 126.8,-482.3 				"/>
			</g>
			<g transform="rotate(64.62031707878052) translate(186.10859283343933, 102.289764425989)">
				<polygon class="st8" points="198.5,-226 131.9,-72.9 268.6,14.9 333,-118.6 374.5,-109.2 352.4,-134.1 333,-253.7 				"/>
			</g>
			<g transform="rotate(113.74159705890605) translate(31.513042575150365, -32.33968838327192)">
				<polygon class="st9" points="112,-342.5 -38,-291.6 55.8,-179.2 128.2,-329.5 152.2,-324 155.3,-351.2 128.2,-503.5 				"/>
			</g>
			<g transform="rotate(348.8200399875488) translate(-24.471442621434562, 69.51273697938802)">
				<polygon class="st10" points="192.8,290.6 15.2,335.2 127.2,438.3 196.8,293.7 212.8,297.4 252.9,248.9 196.8,237.2 				"/>
			</g>
			<g transform="rotate(137.75651870987065) translate(13.393954569871369, 1.8275960903167743)">
				<polygon class="st11" points="-127.4,-441.3 -197.7,-311.9 -74.4,-234 -17,-353.1 -0.2,-349.3 -6,-361.9 -17,-584.1 				"/>
			</g>
			<g transform="rotate(124.6998492034515) translate(-36.6561988429639, -32.186852270993654)">
				<polygon class="st12" points="39,-367.2 -92.7,-312.2 -7.1,-202 63.2,-347.8 82.8,-343.3 99.8,-377 63.2,-484.8 				"/>
			</g>
			<g transform="rotate(298.7048021572296) translate(-140.16318754544204, 155.36958621426288)">
				<polygon class="st13" points="-246,222.3 -221.4,367.3 -143.1,430.6 -99.2,339.4 -73.6,345.1 -93,334.4 -99.2,227.9 				"/>
			</g>
			<g transform="rotate(213.1320665798896) translate(-174.0023986576672, 149.28240506263467)">
				<polygon class="st14" points="-387,-105.5 -493,-39.1 -418.3,77.2 -346,-72.8 -289.5,-59.8 -337,-79.9 -346,-185.8 				"/>
			</g>
			<g transform="rotate(141.54069564962543) translate(58.31432333033348, -186.48881822848423)">
				<polygon class="st15" points="-104.4,-402.4 -211.1,-312.3 -86.4,-255.6 -26.2,-321.9 -15.9,-345.7 33,-409.7 -40.2,-491.8 				
					"/>
			</g>
			<g transform="rotate(318.83203722266126) translate(34.14208980132884, 179.82710364583482)">
				<polygon class="st16" points="-11.7,324.5 -181.9,399.6 -18.7,440.9 23.6,352.8 57,360.4 40.1,339.6 23.6,228.8 				"/>
			</g>
			<g transform="rotate(6.642455791774511) translate(-97.99877301204094, -27.74504315693619)">
				<polygon class="st17" points="247.3,195.6 160.9,246 203.3,373 277.2,219.5 295.8,223.6 295.3,205 277.2,133.2 				"/>
			</g>
			<g transform="rotate(113.53415949453584) translate(-103.0203920891228, 113.91720724261825)">
				<polygon class="st18" points="111.5,-343.3 -65.1,-284.6 56.1,-177 129.4,-329 151.1,-324 138,-335.9 129.4,-539.5 				"/>
			</g>
			<g transform="rotate(15.291612946530986) translate(78.92202305382455, -13.25632424242147)">
				<polygon class="st19" points="295.3,165.8 200.3,199.6 226.6,342.4 307.1,175.3 330.8,180.6 331.1,156 307.1,112 				"/>
			</g>
			<g transform="rotate(116.8609698468493) translate(-101.23151327938697, -83.33362505717825)">
				<polygon class="st20" points="87.2,-354.2 -42.2,-301.2 27.3,-164.1 110,-336 137.2,-329.8 129.5,-351.5 110,-400.7 				"/>
			</g>
			<g transform="rotate(2.5864260334020717) translate(-6.8692376620515745, -159.6673168659033)">
				<polygon class="st21" points="207,195.5 60.4,284.2 184,398.3 261,238.5 298,247 274.5,227.7 261,144.5 				"/>
			</g>
			<g transform="rotate(292.1294147670179) translate(-91.72267848040354, -133.16735986442328)">
				<polygon class="st22" points="-147.8,317.4 -351.5,374.6 -204.6,465.1 -137.5,325.8 -109.8,332 -117.5,309.9 -137.5,166 				"/>
			</g>
			<g transform="rotate(58.13186728270574) translate(91.87653994591437, 66.01789760529783)">
				<polygon class="st23" points="318.9,-100.5 141.8,-34 284.4,44 344.3,-80.3 369.1,-74.7 373.4,-103.5 344.3,-172.8 				"/>
			</g>
			<g transform="rotate(145.02626327952797) translate(-120.94138230119347, 91.33804079766958)">
				<polygon class="st24" points="-178.8,-441.6 -210.2,-314.3 -129.2,-207.6 -61.6,-348.1 -2.3,-334.6 -1.1,-396.4 -61.6,-409.1 
									"/>
			</g>
			<g transform="rotate(172.2223288746729) translate(-49.991225914648055, 142.59182516733546)">
				<polygon class="st25" points="-237.2,-300.1 -311.4,-259.2 -300.2,-102.5 -213.9,-281.6 -175.2,-272.7 -123.8,-353.3 
					-213.9,-457.1 				"/>
			</g>
			<g transform="rotate(171.71825836827895) translate(-75.19077797254124, -120.36383890971108)">
				<polygon class="st26" points="-348.8,-393 -393.5,-241.9 -271.6,-158.4 -211.3,-283.4 -176.3,-275.4 -205.2,-288.4 
					-211.3,-384.1 				"/>
			</g>
			<g transform="rotate(258.95522962137795) translate(174.58659148143119, -141.29602076109467)">
				<polygon class="st27" points="-360.2,144.2 -464.7,236.6 -357.7,331.3 -293.3,197.4 -263.3,204.3 -278.5,185.8 -293.3,78.7 				
					"/>
			</g>
			<g transform="rotate(15.192862815751331) translate(-44.00334644706413, 50.619029895509556)">
				<polygon class="st28" points="278.1,152.8 142.1,213.3 224.2,347.1 306.8,175.7 391.3,195.1 321.2,164.3 306.8,36 				"/>
			</g>
			<g transform="rotate(263.6095667423198) translate(-33.87881246357361, -60.572119143798545)">
				<polygon class="st29" points="-372.4,144 -363.8,240.6 -335.2,343 -276.3,220.6 -247.5,227.2 -258.3,206.3 -276.3,107.3 				"/>
			</g>
			<g transform="rotate(328.68290767832667) translate(187.17739657729766, -56.91565425166422)">
				<polygon class="st30" points="62.1,326.4 -90.6,383.3 15.9,484 83.6,343.5 113.6,350.4 105.9,325.8 83.6,240.5 				"/>
			</g>
			<g transform="rotate(227.97969208524046) translate(5.752057779469766, 87.65464993864754)">
				<polygon class="st31" points="-406.7,-24.3 -528.8,58.4 -437.3,193.2 -353,18.3 -278,35.6 -316.5,-10.8 -353,-70.9 				"/>
			</g>
			<g transform="rotate(149.78575263131816) translate(65.71239388545581, 143.49690287713366)">
				<polygon class="st32" points="-180.5,-413.9 -280.4,-298.4 -172.5,-170.9 -90.1,-341.7 -55.4,-333.9 -46.3,-376.9 -90.3,-486.5 
									"/>
			</g>
			<g transform="rotate(75.32362390118972) translate(-106.87018366003716, 104.84122353681965)">
				<polygon class="st33" points="275.5,-202.2 121.4,-136.5 235.1,-33 305.2,-178.5 331.5,-172.5 367.1,-227.9 305.2,-285.8 				
					"/>
			</g>
			<g transform="rotate(257.0593127197778) translate(-98.80362004005528, 150.77003512491467)">
				<polygon class="st34" points="-353,145.2 -477.8,228.3 -389.9,375 -299.7,187.7 -283.4,191.4 -289.8,179.8 -299.7,-47.3 				"/>
			</g>
			<g transform="rotate(314.52277969961847) translate(-141.43629397237478, 25.80229192023188)">
				<polygon class="st35" points="-6.2,350.9 -183.2,394.7 -57,465.7 -2.6,354.2 74.8,371.3 6,346.4 -3,190.6 				"/>
			</g>
			<g transform="rotate(338.5448794304878) translate(14.977295709173916, 51.8601025570041)">
				<polygon class="st36" points="112.9,301.6 -55.2,368.9 55.9,501.2 141.2,324.1 164.1,329.3 155.7,312.6 141.2,179.1 				"/>
			</g>
			<g transform="rotate(227.40498578144403) translate(-188.89689396428443, 42.561434075534294)">
				<polygon class="st37" points="-377.3,-4.3 -523.4,53.7 -402.5,117.1 -353.3,14.8 -315.4,23.4 -323.8,-8.7 -353.3,-19.4 				"/>
			</g>
			<g transform="rotate(170.26754406915424) translate(-73.15005880449235, 134.42755005254367)">
				<polygon class="st38" points="-223.9,-304.4 -406.6,-242.5 -258.6,-175.6 -204.1,-288.6 -174.4,-281.9 -195.1,-295.9 
					-204.1,-313.9 				"/>
			</g>
			<g transform="rotate(109.92853019729996) translate(10.227174376462756, -38.50671232283065)">
				<polygon class="st39" points="146.5,-322.9 -29,-279.4 59.1,-131.9 149.9,-320.2 193.5,-310.3 164.2,-331.7 149.9,-475.9 				
					"/>
			</g>
			<g transform="rotate(236.20386326598128) translate(38.59132770233535, -172.43168494202519)">
				<polygon class="st40" points="-360.8,57.6 -523.5,109 -432.5,246.6 -346.8,68.7 -332.1,72.1 -308.3,38 -346.8,-122 				"/>
			</g>
			<g transform="rotate(157.8645327424144) translate(-176.12148698867202, -65.40050092038175)">
				<polygon class="st41" points="-231.6,-400.9 -333.8,-280.9 -197.9,-200 -137.4,-325.8 -122.3,-322.3 -124.1,-336.4 
					-137.4,-495.3 				"/>
			</g>
			<g transform="rotate(251.17188999690043) translate(156.85112275711333, -126.10243216148488)">
				<polygon class="st42" points="-381.2,105 -511.1,200.1 -399.2,326 -317.3,156 -204.2,181.7 -308.5,148.9 -317.3,-48 				"/>
			</g>
			<g transform="rotate(346.6057096150038) translate(12.178247310284348, -161.9499956186122)">
				<polygon class="st43" points="169.8,288.9 107.1,319 109.3,458.7 185.3,301.1 254.7,317 193.6,294.5 185.3,201.6 				"/>
			</g>
			<g transform="rotate(235.50314983333755) translate(-75.91514945345979, 158.8833614664843)">
				<polygon class="st44" points="-380.8,38 -476.8,94 -405.9,185.6 -347.6,64.5 -287.2,78.2 -341.1,59.2 -347.6,-7.5 				"/>
			</g>
			<g transform="rotate(58.850019854529585) translate(-59.35193616261313, 128.9100410906076)">
				<polygon class="st45" points="335.3,-91 178.2,-47 262.6,82.9 343.3,-84.6 361.3,-80.5 349.1,-89.2 343.2,-242.4 				"/>
			</g>
			<g transform="rotate(293.7532736532782) translate(131.0138622059759, 120.81218576853706)">
				<polygon class="st46" points="-201.2,271.2 -306.6,370.2 -178.3,433.8 -128.1,329.6 -80.8,340.3 -122.5,325.1 -128.1,230.3 				
					"/>
			</g>
			<g transform="rotate(179.497048355283) translate(141.38067760021931, 155.42689141864372)">
				<polygon class="st47" points="-252.7,-256.1 -438.8,-208.6 -303.8,-135.7 -247.8,-252.2 -210,-243.6 -207,-284.7 -247.8,-303.7 
									"/>
			</g>
			<g transform="rotate(52.04238304365565) translate(-19.75465985278052, 129.11110245582586)">
				<polygon class="st48" points="251.8,-122.4 198.3,-8.5 284.7,94 350.8,-43.4 377.5,-37.3 371.8,-60 350.8,-113.4 				"/>
			</g>
			<g transform="rotate(269.369592122805) translate(-192.78827727928763, -8.428201551696986)">
				<polygon class="st49" points="-255.8,244.8 -421.6,285.8 -326.3,400 -252.8,247.2 -228.1,252.8 -246.4,242.2 -252.8,146.2 				
					"/>
			</g>
			<g transform="rotate(157.62738072274072) translate(187.60077335468839, 109.85366114259688)">
				<polygon class="st50" points="-298.8,-456.2 -258.3,-298.5 -187.7,-219.1 -136,-326.3 -108.5,-320.1 -130.3,-330.8 -136,-383.6 
									"/>
			</g>
		</g>
	</g>
</g>
<g>
	<g>
		<defs>
			<rect id="SVGID_3_" x="500" y="0" width="500" height="500"/>
		</defs>
		<clipPath id="SVGID_4_">
			<use xlink:href="#SVGID_3_"  style="overflow:visible;"/>
		</clipPath>
		<g class="st51">
			<g transform="rotate(0) translate(0, 0)">
				<polygon class="st1" points="709.5,217.8 579.1,289 668.2,419.9 750.1,250.1 770.2,254.6 757.8,243.9 750,112 				"/>
			</g>
			<g transform="rotate(0) translate(0, 0)">
				<polygon class="st2" points="742.4,243.9 565,292.2 690.5,373.4 750,250 770.1,254.6 755.6,245.5 750,62.7 				"/>
			</g>
			<g transform="rotate(0) translate(0, 0)">
				<polygon class="st3" points="662.6,180.4 608.6,282.2 679.1,397.1 750,250 777,256.1 764.5,238.4 750,206.2 				"/>
			</g>
			<g transform="rotate(0) translate(0, 0)">
				<polygon class="st4" points="739.5,241.6 595.8,285.2 680,395.2 750,250 775.4,255.8 758.6,243.1 750,178.2 				"/>
			</g>
			<g transform="rotate(0) translate(0, 0)">
				<polygon class="st5" points="726.9,231.6 629.4,277.5 660.9,435.1 750,250 786.8,258.4 759.1,242.6 750,186.5 				"/>
			</g>
			<g transform="rotate(0) translate(0, 0)">
				<polygon class="st6" points="689.6,201.9 663.8,269.7 681.4,392.6 750,250 775.4,255.8 762.6,240 750,202.5 				"/>
			</g>
			<g transform="rotate(0) translate(0, 0)">
				<polygon class="st7" points="733.5,236.9 558.4,293.8 662.4,432 750,250.1 770,254.6 767.2,236.2 750,97.7 				"/>
			</g>
			<g transform="rotate(0) translate(0, 0)">
				<polygon class="st8" points="615.5,142.8 548.9,295.9 685.6,383.6 750,250 791.4,259.5 769.2,234.6 750,115 				"/>
			</g>
			<g transform="rotate(0) translate(0, 0)">
				<polygon class="st9" points="733.8,237 583.8,288 677.6,400.2 750,250 774,255.5 777.1,228.4 750,76 				"/>
			</g>
			<g transform="rotate(0) translate(0, 0)">
				<polygon class="st10" points="746,246.9 568.4,291.5 680.4,394.6 750,250 766,253.6 806.1,205.2 750,193.5 				"/>
			</g>
			<g transform="rotate(0) translate(0, 0)">
				<polygon class="st11" points="639.6,161.9 569.4,291.2 692.6,369.1 750,250 766.8,253.9 761,241.2 750,19 				"/>
			</g>
			<g transform="rotate(0) translate(0, 0)">
				<polygon class="st12" points="725.8,230.6 594,285.6 679.8,396 750,250 769.5,254.5 786.5,220.9 750,113 				"/>
			</g>
			<g transform="rotate(0) translate(0, 0)">
				<polygon class="st13" points="603.2,133 627.9,277.9 706.1,341.2 750,250 775.6,255.9 756.2,245 750,138.5 				"/>
			</g>
			<g transform="rotate(0) translate(0, 0)">
				<polygon class="st14" points="709,217.2 603,283.5 677.8,400 750,250 806.5,262.9 759,242.9 750,137 				"/>
			</g>
			<g transform="rotate(0) translate(0, 0)">
				<polygon class="st15" points="685.9,198.9 579.1,289 703.9,345.8 764.1,279.2 774.4,255.6 823.2,191.5 750,109.5 				"/>
			</g>
			<g transform="rotate(0) translate(0, 0)">
				<polygon class="st16" points="714.6,221.7 544.5,296.9 707.6,338.1 750,250 783.4,257.6 766.5,236.9 750,126 				"/>
			</g>
			<g transform="rotate(0) translate(0, 0)">
				<polygon class="st17" points="720.1,226.1 633.8,276.5 676,403.6 750,250 768.6,254.2 768.1,235.6 750,163.8 				"/>
			</g>
			<g transform="rotate(0) translate(0, 0)">
				<polygon class="st18" points="732.1,235.8 555.5,294.4 676.8,402 750,250 771.8,255 758.6,243.1 750,39.5 				"/>
			</g>
			<g transform="rotate(0) translate(0, 0)">
				<polygon class="st19" points="738.2,240.6 643.2,274.4 669.5,417.1 750,250 773.8,255.4 774,230.9 750,186.7 				"/>
			</g>
			<g transform="rotate(0) translate(0, 0)">
				<polygon class="st20" points="727.1,231.7 597.6,284.7 667.2,421.9 750,250 777,256.1 769.4,234.5 750,185.2 				"/>
			</g>
			<g transform="rotate(0) translate(0, 0)">
				<polygon class="st21" points="696,207 549.4,295.8 673,409.9 750,250 787,258.5 763.5,239.2 750,156 				"/>
			</g>
			<g transform="rotate(0) translate(0, 0)">
				<polygon class="st22" points="739.6,241.7 536,298.9 682.9,389.4 750,250 777.5,256.2 769.9,234.1 750,90.2 				"/>
			</g>
			<g transform="rotate(0) translate(0, 0)">
				<polygon class="st23" points="724.6,229.8 547.5,296.2 690.1,374.4 750,250 774.9,255.6 779.1,226.7 750,157.5 				"/>
			</g>
			<g transform="rotate(0) translate(0, 0)">
				<polygon class="st24" points="632.8,156.5 601.4,283.9 682.4,390.5 750,250 809.2,263.5 810.4,201.9 750,189 				"/>
			</g>
			<g transform="rotate(0) translate(0, 0)">
				<polygon class="st25" points="726.8,231.5 652.5,272.2 663.8,429.1 750,250 788.8,258.9 840.1,178.1 750,74.5 				"/>
			</g>
			<g transform="rotate(0) translate(0, 0)">
				<polygon class="st26" points="612.6,140.4 567.9,291.5 689.8,375 750,250 785.1,258 756.1,245.1 750,149.2 				"/>
			</g>
			<g transform="rotate(0) translate(0, 0)">
				<polygon class="st27" points="683.1,196.7 578.6,289.1 685.6,383.8 750,250 780,256.9 764.8,238.2 750,131.2 				"/>
			</g>
			<g transform="rotate(0) translate(0, 0)">
				<polygon class="st28" points="721.2,227.1 585.2,287.6 667.5,421.4 750,250 834.6,269.2 764.4,238.5 750,110.2 				"/>
			</g>
			<g transform="rotate(0) translate(0, 0)">
				<polygon class="st29" points="653.9,173.2 662.5,270 691.1,372.2 750,250 778.8,256.6 768,235.6 750,136.7 				"/>
			</g>
			<g transform="rotate(0) translate(0, 0)">
				<polygon class="st30" points="728.5,232.9 575.8,289.7 682.4,390.5 750,250 780,256.9 772.2,232.2 750,147 				"/>
			</g>
			<g transform="rotate(0) translate(0, 0)">
				<polygon class="st31" points="696.5,207.2 574.2,290.1 665.9,424.7 750,250 825.1,267.1 786.5,220.9 750,160.8 				"/>
			</g>
			<g transform="rotate(0) translate(0, 0)">
				<polygon class="st32" points="659.8,178 559.9,293.4 667.6,421 750.1,250.2 784.9,258 794,214.9 750,105.2 				"/>
			</g>
			<g transform="rotate(0) translate(0, 0)">
				<polygon class="st33" points="720.2,226.2 566.2,292 679.9,395.5 750,250 776.4,256 812,200.6 750,142.8 				"/>
			</g>
			<g transform="rotate(0) translate(0, 0)">
				<polygon class="st34" points="696.6,207.5 571.9,290.6 659.8,437.4 750,250 766.2,253.8 759.9,242.1 750,15 				"/>
			</g>
			<g transform="rotate(0) translate(0, 0)">
				<polygon class="st35" points="746.8,247.4 569.6,291.1 696,362.1 750.2,250.6 827.8,267.8 758.9,242.9 750,87 				"/>
			</g>
			<g transform="rotate(0) translate(0, 0)">
				<polygon class="st36" points="721.6,227.4 553.5,294.9 664.8,427 750,250 772.8,255.2 764.5,238.5 750,105 				"/>
			</g>
			<g transform="rotate(0) translate(0, 0)">
				<polygon class="st37" points="726,230.9 579.9,288.9 700.8,352.2 750,250 787.8,258.6 779.5,226.5 750,215.8 				"/>
			</g>
			<g transform="rotate(0) translate(0, 0)">
				<polygon class="st38" points="730.2,234.2 547.5,296.2 695.5,363.1 750,250 779.8,256.8 759,242.9 750,224.8 				"/>
			</g>
			<g transform="rotate(0) translate(0, 0)">
				<polygon class="st39" points="746.6,247.4 571.1,290.9 659.4,438.2 750,250 793.6,260 764.4,238.5 750,94.2 				"/>
			</g>
			<g transform="rotate(0) translate(0, 0)">
				<polygon class="st40" points="736.1,238.9 573.2,290.4 664.2,428 750,250 764.6,253.4 788.5,219.2 750,59.2 				"/>
			</g>
			<g transform="rotate(0) translate(0, 0)">
				<polygon class="st41" points="655.8,174.9 553.5,294.9 689.5,375.6 750,250 765.1,253.5 763.4,239.4 750,80.5 				"/>
			</g>
			<g transform="rotate(0) translate(0, 0)">
				<polygon class="st42" points="686.1,199 556.2,294.2 668.1,420 750,250 863.1,275.8 758.9,242.9 750,46 				"/>
			</g>
			<g transform="rotate(0) translate(0, 0)">
				<polygon class="st43" points="734.6,237.8 671.8,267.9 674.1,407.6 750,250 819.5,265.9 758.2,243.4 750,150.5 				"/>
			</g>
			<g transform="rotate(0) translate(0, 0)">
				<polygon class="st44" points="716.8,223.5 620.9,279.5 691.6,371.1 750,250 810.5,263.8 756.5,244.8 750,178 				"/>
			</g>
			<g transform="rotate(0) translate(0, 0)">
				<polygon class="st45" points="742.1,243.8 585,287.6 669.2,417.6 750,250 768,254.1 755.8,245.4 750,92.2 				"/>
			</g>
			<g transform="rotate(0) translate(0, 0)">
				<polygon class="st46" points="676.9,191.7 571.6,290.8 699.8,354.2 750,250 797.2,260.8 755.6,245.5 750,150.8 				"/>
			</g>
			<g transform="rotate(0) translate(0, 0)">
				<polygon class="st47" points="745.1,246.1 558.9,293.6 693.9,366.5 750,250 787.8,258.6 790.9,217.4 750,198.5 				"/>
			</g>
			<g transform="rotate(0) translate(0, 0)">
				<polygon class="st48" points="650.9,171 597.4,284.9 683.9,387.4 750,250 776.6,256.1 770.9,233.4 750,180 				"/>
			</g>
			<g transform="rotate(0) translate(0, 0)">
				<polygon class="st49" points="747,247.6 581.1,288.5 676.5,402.8 750,250 774.6,255.6 756.4,245 750,149 				"/>
			</g>
			<g transform="rotate(0) translate(0, 0)">
				<polygon class="st50" points="587.1,120.1 627.6,277.9 698.4,357.2 750,250 777.5,256.2 755.6,245.5 750,192.8 				"/>
			</g>
		</g>
	</g>
</g>
</svg>
