<?xml version="1.0" encoding="utf-8"?>
<!-- Generator: Adobe Illustrator 23.0.4, SVG Export Plug-In . SVG Version: 6.00 Build 0)  -->
<svg version="1.1" id="Layer_1" xmlns="http://www.w3.org/2000/svg" xmlns:xlink="http://www.w3.org/1999/xlink" x="0px" y="0px"
	 viewBox="0 0 453.5 255.1" style="enable-background:new 0 0 453.5 255.1;" xml:space="preserve">
<style type="text/css">
	.st0{fill-rule:evenodd;clip-rule:evenodd;fill:#FEFEFE;}
	.st1{fill:none;stroke:#231F20;}
</style>
<title>Page 1</title>
<desc>Created with Sketch.</desc>
<g>
	<g id="Artboard-Copy-6" transform="translate(-864.000000, -3075.000000)">
		<g id="Page-1" transform="translate(865.000000, 3076.000000)">
			<path id="Fill-1" class="st0" d="M177.9,83.2c0,4.9-4,8.9-8.9,8.9c-4.9,0-8.9-4-8.9-8.9c0-4.9,4-8.9,8.9-8.9
				C174,74.3,177.9,78.3,177.9,83.2"/>
			<path id="Stroke-3" class="st1" d="M177.9,83.2c0,4.9-4,8.9-8.9,8.9c-4.9,0-8.9-4-8.9-8.9c0-4.9,4-8.9,8.9-8.9
				C174,74.3,177.9,78.3,177.9,83.2z"/>
			<path id="Fill-5" class="st0" d="M206.3,83.2c0,4.9-4,8.9-8.9,8.9c-4.9,0-8.9-4-8.9-8.9c0-4.9,4-8.9,8.9-8.9
				C202.3,74.3,206.3,78.3,206.3,83.2"/>
			<path id="Stroke-7" class="st1" d="M206.3,83.2c0,4.9-4,8.9-8.9,8.9c-4.9,0-8.9-4-8.9-8.9c0-4.9,4-8.9,8.9-8.9
				C202.3,74.3,206.3,78.3,206.3,83.2z"/>
			<path id="Fill-9" class="st0" d="M232.9,83.2c0,4.9-4,8.9-8.9,8.9s-8.9-4-8.9-8.9c0-4.9,4-8.9,8.9-8.9S232.9,78.3,232.9,83.2"/>
			<path id="Stroke-11" class="st1" d="M232.9,83.2c0,4.9-4,8.9-8.9,8.9s-8.9-4-8.9-8.9c0-4.9,4-8.9,8.9-8.9S232.9,78.3,232.9,83.2z
				"/>
			<path id="Fill-13" class="st0" d="M206.3,170c0,4.9-4,8.9-8.9,8.9c-4.9,0-8.9-4-8.9-8.9c0-4.9,4-8.9,8.9-8.9
				C202.3,161.1,206.3,165.1,206.3,170"/>
			<path id="Stroke-15" class="st1" d="M206.3,170c0,4.9-4,8.9-8.9,8.9c-4.9,0-8.9-4-8.9-8.9c0-4.9,4-8.9,8.9-8.9
				C202.3,161.1,206.3,165.1,206.3,170z"/>
			<path id="Fill-17" class="st0" d="M232.9,170c0,4.9-4,8.9-8.9,8.9s-8.9-4-8.9-8.9c0-4.9,4-8.9,8.9-8.9S232.9,165.1,232.9,170"/>
			<path id="Stroke-19" class="st1" d="M232.9,170c0,4.9-4,8.9-8.9,8.9s-8.9-4-8.9-8.9c0-4.9,4-8.9,8.9-8.9S232.9,165.1,232.9,170z"
				/>
			<path id="Fill-21" class="st0" d="M177.9,111.5c0,4.9-4,8.9-8.9,8.9c-4.9,0-8.9-4-8.9-8.9c0-4.9,4-8.9,8.9-8.9
				C174,102.6,177.9,106.6,177.9,111.5"/>
			<path id="Stroke-23" class="st1" d="M177.9,111.5c0,4.9-4,8.9-8.9,8.9c-4.9,0-8.9-4-8.9-8.9c0-4.9,4-8.9,8.9-8.9
				C174,102.6,177.9,106.6,177.9,111.5z"/>
			<path id="Fill-25" class="st0" d="M177.9,141.6c0,4.9-4,8.9-8.9,8.9c-4.9,0-8.9-4-8.9-8.9c0-4.9,4-8.9,8.9-8.9
				C174,132.8,177.9,136.7,177.9,141.6"/>
			<path id="Stroke-27" class="st1" d="M177.9,141.6c0,4.9-4,8.9-8.9,8.9c-4.9,0-8.9-4-8.9-8.9c0-4.9,4-8.9,8.9-8.9
				C174,132.8,177.9,136.7,177.9,141.6z"/>
			<path id="Fill-29" class="st0" d="M232.9,111.5c0,4.9-4,8.9-8.9,8.9s-8.9-4-8.9-8.9c0-4.9,4-8.9,8.9-8.9S232.9,106.6,232.9,111.5
				"/>
			<path id="Stroke-31" class="st1" d="M232.9,111.5c0,4.9-4,8.9-8.9,8.9s-8.9-4-8.9-8.9c0-4.9,4-8.9,8.9-8.9
				S232.9,106.6,232.9,111.5z"/>
			<path id="Fill-33" class="st0" d="M232.9,141.6c0,4.9-4,8.9-8.9,8.9s-8.9-4-8.9-8.9c0-4.9,4-8.9,8.9-8.9S232.9,136.7,232.9,141.6
				"/>
			<path id="Stroke-35" class="st1" d="M232.9,141.6c0,4.9-4,8.9-8.9,8.9s-8.9-4-8.9-8.9c0-4.9,4-8.9,8.9-8.9
				S232.9,136.7,232.9,141.6z"/>
			<path id="Fill-37" class="st0" d="M177.9,170c0,4.9-4,8.9-8.9,8.9c-4.9,0-8.9-4-8.9-8.9c0-4.9,4-8.9,8.9-8.9
				C174,161.1,177.9,165.1,177.9,170"/>
			<path id="Stroke-39" class="st1" d="M177.9,170c0,4.9-4,8.9-8.9,8.9c-4.9,0-8.9-4-8.9-8.9c0-4.9,4-8.9,8.9-8.9
				C174,161.1,177.9,165.1,177.9,170z"/>
			<path id="Fill-41" class="st0" d="M53.9,92c0,4.9-4,8.9-8.9,8.9s-8.9-4-8.9-8.9c0-4.9,4-8.9,8.9-8.9S53.9,87.1,53.9,92"/>
			<path id="Stroke-43" class="st1" d="M53.9,92c0,4.9-4,8.9-8.9,8.9s-8.9-4-8.9-8.9c0-4.9,4-8.9,8.9-8.9S53.9,87.1,53.9,92z"/>
			<path id="Fill-45" class="st0" d="M30.9,120.4c0,4.9-4,8.9-8.9,8.9s-8.9-4-8.9-8.9s4-8.9,8.9-8.9S30.9,115.5,30.9,120.4"/>
			<path id="Stroke-47" class="st1" d="M30.9,120.4c0,4.9-4,8.9-8.9,8.9s-8.9-4-8.9-8.9s4-8.9,8.9-8.9S30.9,115.5,30.9,120.4z"/>
			<path id="Fill-49" class="st0" d="M77,131c0,4.9-4,8.9-8.9,8.9s-8.9-4-8.9-8.9c0-4.9,4-8.9,8.9-8.9S77,126.1,77,131"/>
			<path id="Stroke-51" class="st1" d="M77,131c0,4.9-4,8.9-8.9,8.9s-8.9-4-8.9-8.9c0-4.9,4-8.9,8.9-8.9S77,126.1,77,131z"/>
			<path id="Fill-53" class="st0" d="M41.5,159.3c0,4.9-4,8.9-8.9,8.9s-8.9-4-8.9-8.9c0-4.9,4-8.9,8.9-8.9S41.5,154.4,41.5,159.3"/>
			<path id="Stroke-55" class="st1" d="M41.5,159.3c0,4.9-4,8.9-8.9,8.9s-8.9-4-8.9-8.9c0-4.9,4-8.9,8.9-8.9S41.5,154.4,41.5,159.3z
				"/>
			<path id="Fill-57" class="st0" d="M358.6,113.3c0,4.9-4,8.9-8.9,8.9c-4.9,0-8.9-4-8.9-8.9c0-4.9,4-8.9,8.9-8.9
				C354.7,104.4,358.6,108.4,358.6,113.3"/>
			<path id="Stroke-59" class="st1" d="M358.6,113.3c0,4.9-4,8.9-8.9,8.9c-4.9,0-8.9-4-8.9-8.9c0-4.9,4-8.9,8.9-8.9
				C354.7,104.4,358.6,108.4,358.6,113.3z"/>
			<path id="Fill-61" class="st0" d="M372.8,61.9c0,4.9-4,8.9-8.9,8.9s-8.9-4-8.9-8.9s4-8.9,8.9-8.9S372.8,57,372.8,61.9"/>
			<path id="Stroke-63" class="st1" d="M372.8,61.9c0,4.9-4,8.9-8.9,8.9s-8.9-4-8.9-8.9s4-8.9,8.9-8.9S372.8,57,372.8,61.9z"/>
			<path id="Fill-65" class="st0" d="M385.2,113.3c0,4.9-4,8.9-8.9,8.9c-4.9,0-8.9-4-8.9-8.9c0-4.9,4-8.9,8.9-8.9
				C381.3,104.4,385.2,108.4,385.2,113.3"/>
			<path id="Stroke-67" class="st1" d="M385.2,113.3c0,4.9-4,8.9-8.9,8.9c-4.9,0-8.9-4-8.9-8.9c0-4.9,4-8.9,8.9-8.9
				C381.3,104.4,385.2,108.4,385.2,113.3z"/>
			<path id="Fill-69" class="st0" d="M438.4,111.5c0,4.9-4,8.9-8.9,8.9s-8.9-4-8.9-8.9c0-4.9,4-8.9,8.9-8.9S438.4,106.6,438.4,111.5
				"/>
			<path id="Stroke-71" class="st1" d="M438.4,111.5c0,4.9-4,8.9-8.9,8.9s-8.9-4-8.9-8.9c0-4.9,4-8.9,8.9-8.9
				S438.4,106.6,438.4,111.5z"/>
			<path id="Fill-73" class="st0" d="M413.6,191.2c0,4.9-4,8.9-8.9,8.9c-4.9,0-8.9-4-8.9-8.9c0-4.9,4-8.9,8.9-8.9
				C409.6,182.4,413.6,186.3,413.6,191.2"/>
			<path id="Stroke-75" class="st1" d="M413.6,191.2c0,4.9-4,8.9-8.9,8.9c-4.9,0-8.9-4-8.9-8.9c0-4.9,4-8.9,8.9-8.9
				C409.6,182.4,413.6,186.3,413.6,191.2z"/>
			<path id="Fill-77" class="st0" d="M330.3,191.2c0,4.9-4,8.9-8.9,8.9s-8.9-4-8.9-8.9c0-4.9,4-8.9,8.9-8.9S330.3,186.3,330.3,191.2
				"/>
			<path id="Stroke-79" class="st1" d="M330.3,191.2c0,4.9-4,8.9-8.9,8.9s-8.9-4-8.9-8.9c0-4.9,4-8.9,8.9-8.9
				S330.3,186.3,330.3,191.2z"/>
			<path id="Fill-81" class="st0" d="M305.5,111.5c0,4.9-4,8.9-8.9,8.9c-4.9,0-8.9-4-8.9-8.9c0-4.9,4-8.9,8.9-8.9
				C301.5,102.6,305.5,106.6,305.5,111.5"/>
			<path id="Stroke-83" class="st1" d="M305.5,111.5c0,4.9-4,8.9-8.9,8.9c-4.9,0-8.9-4-8.9-8.9c0-4.9,4-8.9,8.9-8.9
				C301.5,102.6,305.5,106.6,305.5,111.5z"/>
			<path id="Fill-85" class="st0" d="M392.3,139.8c0,4.9-4,8.9-8.9,8.9s-8.9-4-8.9-8.9c0-4.9,4-8.9,8.9-8.9S392.3,135,392.3,139.8"
				/>
			<path id="Stroke-87" class="st1" d="M392.3,139.8c0,4.9-4,8.9-8.9,8.9s-8.9-4-8.9-8.9c0-4.9,4-8.9,8.9-8.9S392.3,135,392.3,139.8
				z"/>
			<path id="Fill-89" class="st0" d="M372.8,155.8c0,4.9-4,8.9-8.9,8.9s-8.9-4-8.9-8.9c0-4.9,4-8.9,8.9-8.9S372.8,150.9,372.8,155.8
				"/>
			<path id="Stroke-91" class="st1" d="M372.8,155.8c0,4.9-4,8.9-8.9,8.9s-8.9-4-8.9-8.9c0-4.9,4-8.9,8.9-8.9
				S372.8,150.9,372.8,155.8z"/>
			<path id="Fill-93" class="st0" d="M349.8,139.8c0,4.9-4,8.9-8.9,8.9c-4.9,0-8.9-4-8.9-8.9c0-4.9,4-8.9,8.9-8.9
				C345.8,131,349.8,135,349.8,139.8"/>
			<path id="Stroke-95" class="st1" d="M349.8,139.8c0,4.9-4,8.9-8.9,8.9c-4.9,0-8.9-4-8.9-8.9c0-4.9,4-8.9,8.9-8.9
				C345.8,131,349.8,135,349.8,139.8z"/>
		</g>
	</g>
</g>
</svg>
